<?xml version="1.0" standalone="no"?>
<!DOCTYPE svg PUBLIC "-//W3C//DTD SVG 20010904//EN"
 "http://www.w3.org/TR/2001/REC-SVG-20010904/DTD/svg10.dtd">
<svg version="1.0" xmlns="http://www.w3.org/2000/svg"
 width="512.000000pt" height="512.000000pt" viewBox="0 0 512.000000 512.000000"
 preserveAspectRatio="xMidYMid meet">
<metadata>
Created by potrace 1.13, written by Peter Selinger 2001-2015
</metadata>
<g transform="translate(0.000000,512.000000) scale(0.100000,-0.100000)"
fill="#000000" stroke="none">
<path d="M2820 5111 c-157 -30 -311 -138 -387 -272 -71 -125 -94 -303 -57
-430 72 -246 287 -409 540 -411 160 -1 284 50 398 165 161 163 207 382 126
598 -56 151 -195 282 -348 329 -74 23 -206 33 -272 21z m224 -221 c231 -87
305 -386 140 -569 -171 -190 -476 -146 -585 84 -54 114 -46 241 22 347 87 134
271 194 423 138z"/>
<path d="M1895 4090 c-147 -30 -351 -150 -507 -299 -187 -179 -299 -380 -344
-618 -21 -115 -21 -272 1 -348 50 -173 186 -304 361 -349 77 -20 210 -20 289
-1 33 8 65 14 71 15 6 0 11 -28 12 -71 2 -77 24 -178 54 -247 l18 -44 -103
-356 c-95 -326 -114 -381 -220 -627 -63 -148 -151 -346 -195 -440 -106 -228
-124 -282 -130 -387 -8 -146 33 -225 145 -280 148 -72 286 -25 422 145 156
196 293 466 498 977 85 212 158 388 162 393 6 6 246 -186 313 -252 17 -15 15
-39 -27 -456 -25 -241 -45 -471 -45 -510 0 -211 97 -327 273 -329 109 -1 178
43 250 156 37 58 67 179 91 364 125 944 128 969 122 1038 -12 132 -18 139
-358 482 l-310 311 73 329 c39 181 75 333 79 337 4 5 92 -51 195 -124 103 -72
213 -143 244 -157 66 -31 170 -41 227 -22 21 7 103 53 183 102 l146 89 5
-1425 5 -1424 24 -26 c31 -33 70 -41 115 -22 70 29 66 -77 66 1559 l0 1473 31
18 c75 44 191 141 225 188 91 123 68 264 -55 336 -39 23 -57 27 -123 27 l-78
-1 0 116 c0 174 -18 216 -98 227 -33 4 -44 1 -73 -25 l-34 -30 -3 -194 -4
-193 -175 -82 c-108 -51 -180 -80 -187 -74 -431 336 -608 467 -665 491 -104
44 -460 140 -520 140 -28 0 -68 -7 -88 -15 -36 -15 -37 -15 -67 14 -85 79
-199 119 -291 101z m98 -214 c46 -19 87 -70 87 -109 0 -18 -62 -254 -137 -526
l-138 -495 -43 -27 c-56 -35 -128 -52 -224 -53 -183 0 -308 129 -308 318 0
106 32 251 79 359 90 208 334 437 555 523 72 27 86 28 129 10z m540 -137 c100
-28 203 -60 229 -71 45 -19 46 -21 41 -56 -3 -21 -66 -309 -139 -642 -74 -333
-134 -625 -134 -650 l0 -45 327 -326 c180 -179 330 -335 334 -345 16 -42 7
-172 -36 -498 -25 -187 -57 -425 -70 -527 -37 -276 -73 -369 -142 -369 -44 0
-56 14 -64 72 -8 62 -4 121 51 656 41 396 41 404 23 437 -11 21 -166 158 -410
363 -215 182 -413 354 -439 383 -93 105 -131 235 -121 410 3 53 11 118 18 145
10 43 246 896 285 1031 15 52 36 83 55 83 6 0 92 -23 192 -51z m702 -416 c240
-185 252 -193 289 -193 13 0 154 61 313 136 277 131 353 159 367 136 9 -15
-57 -80 -131 -130 -32 -22 -174 -111 -314 -198 -220 -137 -259 -158 -294 -158
-23 1 -54 9 -70 20 -80 50 -455 316 -455 322 0 4 12 62 26 129 19 85 30 120
38 115 6 -5 110 -85 231 -179z m-1092 -1516 c64 -54 117 -103 117 -107 0 -5
-75 -194 -166 -422 -174 -435 -250 -598 -365 -788 -123 -203 -210 -292 -271
-277 -92 23 -79 104 63 412 226 490 310 703 399 1007 54 189 87 285 94 281 6
-4 64 -51 129 -106z"/>
</g>
</svg>
