<?xml version="1.0" encoding="utf-8"?>
<!-- Generator: Adobe Illustrator 19.2.1, SVG Export Plug-In . SVG Version: 6.00 Build 0)  -->
<!DOCTYPE svg PUBLIC "-//W3C//DTD SVG 1.1//EN" "http://www.w3.org/Graphics/SVG/1.1/DTD/svg11.dtd">
<svg version="1.1" id="Layer_1" xmlns="http://www.w3.org/2000/svg" xmlns:xlink="http://www.w3.org/1999/xlink" x="0px" y="0px"
	 viewBox="0 0 107.9 275.7" style="enable-background:new 0 0 107.9 275.7;" xml:space="preserve">
<style type="text/css">
	.st0{fill:#B8CBD5;}
	.st1{fill:#FFFFFF;}
	.st2{fill:none;stroke:#B8CBD5;stroke-width:3.6;stroke-linecap:round;stroke-linejoin:round;stroke-miterlimit:10;}
	.st3{fill:none;stroke:#FDE900;stroke-width:3.6;stroke-linecap:round;stroke-linejoin:round;stroke-miterlimit:10;}
	.st4{fill:#C6CED0;}
	.st5{fill:#B1B6B7;}
</style>
<path class="st0" d="M102.5,95.1c0-14-11.5-25.7-12-26.1c-0.8-0.8-2.2-0.8-3,0c-0.8,0.8-0.8,2.2,0,3c0.1,0.1,10.7,10.9,10.7,23.1
	c0,12.2-10.6,23-10.7,23.1c-0.5,0.5-12,12.2-12,26.1c0,12.4,9.1,23,11.5,25.6c0.1,0.1,0.1,0.2,0.2,0.2c0.1,0.1,10.7,10.9,10.7,23.1
	c0,12.2-10.6,23-10.7,23.1c-0.5,0.5-12,12.2-12,26.1c0,14,11.5,25.7,12,26.1c0.8,0.8,2.2,0.8,3,0c0.8-0.8,0.8-2.2,0-3
	c-0.1-0.1-10.7-10.9-10.7-23.1c0-12.2,10.6-23,10.7-23.1c0.5-0.5,12-12.2,12-26.1c0-12.4-9-23-11.4-25.6c-0.1-0.1-0.1-0.2-0.2-0.3
	c-0.1-0.1-10.7-10.9-10.7-23.1c0-12.2,10.6-23,10.7-23.1C91,120.8,102.5,109.1,102.5,95.1"/>
<path class="st1" d="M89.4,76.4c3.4,0,6.2-2.8,6.2-6.2c0-3.4-2.8-6.2-6.2-6.2c-3.4,0-6.2,2.8-6.2,6.2C83.3,73.7,86.1,76.4,89.4,76.4
	"/>
<circle class="st2" cx="89.4" cy="70.3" r="6.2"/>
<path class="st1" d="M76.8,148c3.4,0,6.2-2.8,6.2-6.2c0-3.4-2.8-6.2-6.2-6.2c-3.4,0-6.2,2.8-6.2,6.2C70.7,145.3,73.4,148,76.8,148"
	/>
<circle class="st2" cx="76.8" cy="141.9" r="6.2"/>
<path class="st1" d="M99.9,198.7c3.4,0,6.2-2.8,6.2-6.2c0-3.4-2.8-6.2-6.2-6.2c-3.4,0-6.2,2.8-6.2,6.2
	C93.8,195.9,96.5,198.7,99.9,198.7"/>
<circle class="st3" cx="99.9" cy="192.5" r="6.2"/>
<path class="st1" d="M88.8,273.9c3.4,0,6.2-2.8,6.2-6.2c0-3.4-2.8-6.2-6.2-6.2c-3.4,0-6.2,2.8-6.2,6.2
	C82.6,271.1,85.4,273.9,88.8,273.9"/>
<circle class="st2" cx="88.8" cy="267.7" r="6.2"/>
<path class="st4" d="M47.1,149.9c0-3.9-3.2-7.1-7.1-7.1c-3.9,0-7.1,3.2-7.1,7.1c0,3.9,3.2,7.1,7.1,7.1
	C43.9,157,47.1,153.8,47.1,149.9 M52.9,149.9c0,7.1-5.8,12.9-12.9,12.9c-7.1,0-12.9-5.8-12.9-12.9c0-7.1,5.8-12.9,12.9-12.9
	C47.1,137,52.9,142.8,52.9,149.9 M62,149.9C62,137.8,52.1,128,40,128c-12.1,0-21.9,9.8-21.9,21.9c0,6.8,4.5,13.9,7.8,18.7
	c4.9,6.9,10.5,12.5,12.1,14c0.5,0.5,1.2,0.8,2,0.8c0.7,0,1.5-0.3,2-0.8c1.6-1.5,7.2-7.1,12.1-14C57.5,163.8,62,156.7,62,149.9"/>
<g>
	<path class="st5" d="M64.9,188.5c0,0.2,0,0.3-0.1,0.3c-0.1,0-0.1,0.1-0.2,0.1h-1.1c-0.2,0-0.3-0.1-0.3-0.4v-4.9
		c0-0.5-0.3-0.7-0.8-0.8c-0.2,0-0.4,0-0.6,0c-0.2,0-0.5,0-0.9,0c-0.3,0-0.6,0-0.9,0c-0.3,0-0.6,0-1,0.1c-0.2,0-0.4-0.1-0.4-0.3v-0.8
		c0-0.2,0.1-0.4,0.3-0.4c0.5-0.1,1-0.1,1.5-0.1c0.5,0,0.9,0,1.4,0c1.1,0,1.9,0.2,2.4,0.6c0.5,0.4,0.8,1,0.8,1.8V188.5z M60.5,188.5
		c0,0.2,0,0.3-0.1,0.3c-0.1,0-0.1,0.1-0.3,0.1h-1.1c-0.2,0-0.3-0.1-0.3-0.4v-2.3c0-0.5,0.1-1,0.4-1.5c0.1-0.1,0.2-0.2,0.3-0.2h0.7
		c0.2,0,0.3,0.1,0.3,0.3V188.5z"/>
	<path class="st5" d="M73.3,186.4c0,0.8-0.2,1.5-0.6,1.9c-0.4,0.4-1,0.7-1.7,0.7c-0.6,0-1-0.1-1.4-0.2c-0.1,0-0.2-0.1-0.2-0.1
		c0,0,0-0.1,0-0.3v-0.7c0-0.2,0.1-0.3,0.4-0.3c0.4,0,0.7,0,0.7,0c0.7,0,1.1-0.3,1.1-1v-2.5c0-0.7-0.4-1.1-1.1-1.1h-1.1
		c-0.5,0-0.8,0.1-0.9,0.3v5.4c0,0.2,0,0.2-0.1,0.3c0,0-0.1,0.1-0.2,0.1h-1.1c-0.1,0-0.1,0-0.2,0c0,0-0.1,0-0.1,0c0,0,0-0.1,0-0.1
		c0,0,0-0.1,0-0.2v-5c0-0.2-0.1-0.4-0.2-0.6l-0.4-0.4c-0.1-0.1-0.2-0.2-0.2-0.3c0-0.1,0.1-0.2,0.2-0.3l0.7-0.7
		c0.1-0.1,0.2-0.2,0.3-0.2c0.1,0,0.2,0,0.2,0.1l0.3,0.3l0.4,0.5c0.6-0.6,1.2-0.8,1.7-0.8H71c1.6,0,2.3,0.8,2.3,2.4V186.4z"/>
	<path class="st5" d="M78.4,188.5c-0.1,0.3-0.2,0.4-0.4,0.4h-1.2c-0.1,0-0.2-0.1-0.2-0.2c0-0.1,0-0.2,0.1-0.4l1.9-5.5h-3.7
		c-0.2,0-0.3-0.1-0.3-0.3v-3.3c0-0.2,0.1-0.3,0.4-0.3h1.1c0.2,0,0.3,0.1,0.3,0.4v2h4.1c0.2,0,0.4,0.1,0.4,0.3c0,0.1,0,0.2,0,0.3
		L78.4,188.5z"/>
	<path class="st5" d="M26.5,202.9l-2.6-10.8h2.1l1,4.9c0.3,1.3,0.5,2.7,0.7,3.8h0c0.2-1.1,0.5-2.4,0.8-3.8l1.2-4.9h2.1l1.1,5
		c0.3,1.3,0.5,2.5,0.7,3.6h0c0.2-1.2,0.4-2.4,0.7-3.7l1.1-4.9h2l-2.9,10.8h-2.1l-1.1-5.1c-0.3-1.2-0.5-2.3-0.6-3.4h0
		c-0.2,1.2-0.4,2.2-0.7,3.4l-1.2,5.1H26.5z"/>
	<path class="st5" d="M44,201c0,0.7,0,1.4,0.1,1.9h-1.8l-0.1-0.9h0c-0.5,0.6-1.3,1-2.3,1c-1.6,0-2.4-1.1-2.4-2.3c0-2,1.7-3,4.6-2.9
		v-0.1c0-0.5-0.2-1.4-1.6-1.4c-0.8,0-1.6,0.2-2.1,0.6l-0.4-1.3c0.6-0.4,1.6-0.7,2.8-0.7c2.5,0,3.2,1.6,3.2,3.3V201z M42.1,199.1
		c-1.4,0-2.7,0.3-2.7,1.5c0,0.8,0.5,1.1,1.1,1.1c0.8,0,1.4-0.5,1.6-1.1c0-0.1,0-0.3,0-0.4V199.1z"/>
	<path class="st5" d="M48,198.5L48,198.5c0.2-0.3,0.4-0.6,0.6-0.9l1.9-2.5h2.4l-2.9,3.2l3.3,4.6h-2.4l-2.2-3.4l-0.7,0.8v2.7h-2
		v-11.4h2V198.5z"/>
	<path class="st5" d="M55.5,199.5c0,1.4,1.1,2,2.4,2c0.9,0,1.6-0.1,2.2-0.4l0.3,1.3c-0.7,0.3-1.6,0.5-2.7,0.5c-2.5,0-4-1.6-4-3.9
		c0-2.2,1.3-4.2,3.8-4.2c2.5,0,3.4,2.1,3.4,3.8c0,0.4,0,0.7-0.1,0.8H55.5z M58.9,198.2c0-0.7-0.3-1.9-1.6-1.9
		c-1.2,0-1.7,1.1-1.8,1.9H58.9z"/>
	<path class="st5" d="M64.4,192.1v6.3c0,2.1,0.9,3.1,2.2,3.1c1.4,0,2.3-1,2.3-3.1v-6.3h2v6.2c0,3.3-1.7,4.8-4.3,4.8
		c-2.5,0-4.1-1.4-4.1-4.8v-6.2H64.4z"/>
	<path class="st5" d="M73,197.7c0-1,0-1.9-0.1-2.6h1.7l0.1,1.2h0c0.6-0.9,1.5-1.4,2.7-1.4c1.8,0,3.3,1.5,3.3,4
		c0,2.8-1.8,4.2-3.6,4.2c-1,0-1.8-0.4-2.2-1h0v4h-2V197.7z M75,199.6c0,0.2,0,0.4,0,0.5c0.2,0.8,0.9,1.4,1.7,1.4c1.2,0,2-1,2-2.6
		c0-1.4-0.7-2.5-1.9-2.5c-0.8,0-1.6,0.6-1.8,1.5c0,0.2-0.1,0.3-0.1,0.5V199.6z"/>
</g>
</svg>
