<svg id="Layer_1" data-name="Layer 1" xmlns="http://www.w3.org/2000/svg" viewBox="0 0 89.78 213.36"><defs><style>.cls-1{fill:#e8eaeb;}.cls-2{fill:#c6ced1;}.cls-3,.cls-4,.cls-5{fill:none;stroke-linecap:round;stroke-linejoin:round;stroke-width:3.6px;}.cls-3{stroke:#e8eaea;}.cls-4{stroke:#e8eaeb;}.cls-5{stroke:#fde900;}</style></defs><title>MovingGraphic-03</title><path class="cls-1" d="M102.53,95.13c0-14-11.51-25.65-12-26.14a2.14,2.14,0,0,0-3,3c0.11,0.11,10.74,10.93,10.74,23.12s-10.64,23-10.74,23.12c-0.49.49-12,12.16-12,26.14,0,12.44,9.1,23,11.45,25.58a2.2,2.2,0,0,0,.19.24c0.11,0.11,10.74,10.93,10.74,23.12s-10.64,23-10.74,23.12c-0.49.49-12,12.16-12,26.14s11.5,25.65,12,26.14a2.14,2.14,0,1,0,3-3c-0.11-.11-10.74-10.88-10.74-23.12s10.63-23,10.74-23.11c0.49-.49,12-12.16,12-26.15,0-12.4-9-23-11.44-25.56a2.19,2.19,0,0,0-.22-0.27c-0.11-.11-10.74-10.88-10.74-23.12s10.63-23,10.74-23.12c0.49-.49,12-12.16,12-26.15" transform="translate(-18.11 -62.33)"/><path class="cls-2" d="M89.44,76.43a6.15,6.15,0,1,0-6.15-6.15,6.16,6.16,0,0,0,6.15,6.15" transform="translate(-18.11 -62.33)"/><circle class="cls-3" cx="71.34" cy="7.95" r="6.15"/><path class="cls-2" d="M76.84,148a6.15,6.15,0,1,0-6.15-6.15A6.16,6.16,0,0,0,76.84,148" transform="translate(-18.11 -62.33)"/><circle class="cls-4" cx="58.73" cy="79.56" r="6.15"/><path class="cls-2" d="M99.93,198.65a6.15,6.15,0,1,0-6.15-6.15,6.16,6.16,0,0,0,6.15,6.15" transform="translate(-18.11 -62.33)"/><circle class="cls-5" cx="81.82" cy="130.17" r="6.15"/><path class="cls-2" d="M88.77,273.89a6.15,6.15,0,1,0-6.15-6.15,6.16,6.16,0,0,0,6.15,6.15" transform="translate(-18.11 -62.33)"/><circle class="cls-4" cx="70.66" cy="205.41" r="6.15"/><path class="cls-1" d="M47.13,149.91A7.09,7.09,0,1,0,40,157a7.1,7.1,0,0,0,7.09-7.09m5.78,0A12.87,12.87,0,1,1,40,137a12.89,12.89,0,0,1,12.87,12.87m9.06,0a21.93,21.93,0,1,0-43.87,0c0,6.82,4.47,13.92,7.83,18.66a105.67,105.67,0,0,0,12.12,14,2.87,2.87,0,0,0,4,0,105.71,105.71,0,0,0,12.12-14c3.36-4.75,7.82-11.84,7.82-18.66" transform="translate(-18.11 -62.33)"/><path class="cls-1" d="M64.94,188.51a0.39,0.39,0,0,1-.08.31,0.42,0.42,0,0,1-.24.05H63.53a0.31,0.31,0,0,1-.34-0.37V183.6a0.79,0.79,0,0,0-.84-0.8l-0.65,0-0.85,0-0.95,0-1,.06a0.27,0.27,0,0,1-.35-0.29v-0.8a0.33,0.33,0,0,1,.34-0.37q0.78-.08,1.49-0.12t1.36,0a4.14,4.14,0,0,1,2.41.55,2.1,2.1,0,0,1,.76,1.83v4.93Zm-4.43,0a0.39,0.39,0,0,1-.08.31,0.46,0.46,0,0,1-.25.05H59.08a0.31,0.31,0,0,1-.32-0.37v-2.27a3,3,0,0,1,.39-1.47,0.35,0.35,0,0,1,.34-0.2H60.2a0.27,0.27,0,0,1,.3.3v3.63Z" transform="translate(-18.11 -62.33)"/><path class="cls-1" d="M73.34,186.36a2.82,2.82,0,0,1-.59,1.93A2.15,2.15,0,0,1,71,189a4,4,0,0,1-1.36-.19,0.47,0.47,0,0,1-.23-0.12,0.64,0.64,0,0,1,0-.26v-0.73q0-.3.35-0.27l0.73,0a0.93,0.93,0,0,0,1.09-1v-2.52a1,1,0,0,0-1.09-1.12H69.46a1,1,0,0,0-.93.34v5.41a0.45,0.45,0,0,1-.05.28,0.38,0.38,0,0,1-.25.05h-1.3a0.14,0.14,0,0,1-.09,0,0.18,0.18,0,0,1,0-.1,1.62,1.62,0,0,1,0-.18v-5a1,1,0,0,0-.23-0.62l-0.37-.43a0.55,0.55,0,0,1-.17-0.3,0.44,0.44,0,0,1,.17-0.27l0.71-.66a0.53,0.53,0,0,1,.34-0.16,0.41,0.41,0,0,1,.25.11l0.29,0.3,0.45,0.53a2.65,2.65,0,0,1,1.69-.84H71a2.07,2.07,0,0,1,2.34,2.35v2.8Z" transform="translate(-18.11 -62.33)"/><path class="cls-1" d="M78.4,188.48a0.47,0.47,0,0,1-.4.4H76.75a0.17,0.17,0,0,1-.18-0.21,1.13,1.13,0,0,1,.09-0.35l1.88-5.5H74.8a0.29,0.29,0,0,1-.32-0.34v-3.34a0.3,0.3,0,0,1,.35-0.32h1.09a0.31,0.31,0,0,1,.3.38v2h4.15a0.29,0.29,0,0,1,.35.29,1.13,1.13,0,0,1,0,.29Z" transform="translate(-18.11 -62.33)"/><path class="cls-1" d="M26.46,202.88l-2.64-10.79h2.1l1,4.9c0.27,1.31.53,2.69,0.7,3.76h0c0.18-1.14.48-2.42,0.78-3.78l1.17-4.88h2.06l1.07,5c0.26,1.28.5,2.48,0.66,3.65h0c0.19-1.18.45-2.42,0.74-3.75l1.12-4.87h2L34.4,202.88H32.3l-1.12-5.07c-0.27-1.23-.46-2.26-0.61-3.42h0a32.62,32.62,0,0,1-.7,3.42l-1.25,5.07H26.46Z" transform="translate(-18.11 -62.33)"/><path class="cls-1" d="M44,201a10.49,10.49,0,0,0,.13,1.87H42.33L42.19,202h0a2.85,2.85,0,0,1-2.3,1,2.31,2.31,0,0,1-2.45-2.32c0-2,1.74-3,4.63-2.95v-0.13a1.33,1.33,0,0,0-1.58-1.36,4.13,4.13,0,0,0-2.1.58l-0.38-1.28a5.61,5.61,0,0,1,2.82-.69c2.5,0,3.22,1.58,3.22,3.3V201Zm-1.92-1.94c-1.39,0-2.72.27-2.72,1.46a1,1,0,0,0,1.12,1.12A1.62,1.62,0,0,0,42,200.57a1.34,1.34,0,0,0,0-.43v-1.07Z" transform="translate(-18.11 -62.33)"/><path class="cls-1" d="M48,198.51h0c0.19-.3.42-0.64,0.61-0.91l1.9-2.51h2.37L50,198.27l3.3,4.61H50.92l-2.24-3.44-0.66.78v2.66h-2V191.52h2v7Z" transform="translate(-18.11 -62.33)"/><path class="cls-1" d="M55.48,199.53a2.11,2.11,0,0,0,2.4,2A6.28,6.28,0,0,0,60,201.2l0.29,1.34a7,7,0,0,1-2.72.5,3.69,3.69,0,0,1-4-3.94c0-2.16,1.31-4.19,3.81-4.19s3.36,2.08,3.36,3.79a4.84,4.84,0,0,1-.06.83H55.48Zm3.43-1.38a1.68,1.68,0,0,0-1.62-1.9,1.92,1.92,0,0,0-1.81,1.9h3.43Z" transform="translate(-18.11 -62.33)"/><path class="cls-1" d="M64.38,192.09v6.29c0,2.11.88,3.09,2.21,3.09s2.27-1,2.27-3.09v-6.29h2v6.16c0,3.33-1.71,4.8-4.31,4.8s-4.11-1.39-4.11-4.79v-6.18h2Z" transform="translate(-18.11 -62.33)"/><path class="cls-1" d="M73,197.68c0-1,0-1.86-.06-2.59h1.73l0.1,1.2h0a3,3,0,0,1,2.67-1.38c1.79,0,3.28,1.54,3.28,4,0,2.82-1.78,4.18-3.55,4.18A2.56,2.56,0,0,1,75,202h0v4H73v-8.37Zm2,1.94a3,3,0,0,0,0,.54,1.8,1.8,0,0,0,1.74,1.38c1.25,0,2-1,2-2.58,0-1.38-.67-2.5-1.94-2.5A1.87,1.87,0,0,0,75,197.92a2.62,2.62,0,0,0-.06.5v1.2Z" transform="translate(-18.11 -62.33)"/></svg>