<?xml version="1.0" encoding="utf-8"?>
<!-- Generator: Adobe Illustrator 19.2.1, SVG Export Plug-In . SVG Version: 6.00 Build 0)  -->
<!DOCTYPE svg PUBLIC "-//W3C//DTD SVG 1.1//EN" "http://www.w3.org/Graphics/SVG/1.1/DTD/svg11.dtd">
<svg version="1.1" id="Layer_1" xmlns="http://www.w3.org/2000/svg" xmlns:xlink="http://www.w3.org/1999/xlink" x="0px" y="0px"
	 viewBox="0 0 107.9 275.7" style="enable-background:new 0 0 107.9 275.7;" xml:space="preserve">
<style type="text/css">
	.st0{fill:#B8CBD5;}
	.st1{fill:#FFFFFF;}
	.st2{fill:none;stroke:#B8CBD5;stroke-width:3.6;stroke-linecap:round;stroke-linejoin:round;stroke-miterlimit:10;}
	.st3{fill:none;stroke:#FDE900;stroke-width:3.6;stroke-linecap:round;stroke-linejoin:round;stroke-miterlimit:10;}
	.st4{fill:#C6CED0;}
	.st5{fill:#B1B6B7;}
</style>
<path class="st0" d="M102.5,95.1c0-14-11.5-25.7-12-26.1c-0.8-0.8-2.2-0.8-3,0c-0.8,0.8-0.8,2.2,0,3c0.1,0.1,10.7,10.9,10.7,23.1
	c0,12.2-10.6,23-10.7,23.1c-0.5,0.5-12,12.2-12,26.1c0,12.4,9.1,23,11.5,25.6c0.1,0.1,0.1,0.2,0.2,0.2c0.1,0.1,10.7,10.9,10.7,23.1
	c0,12.2-10.6,23-10.7,23.1c-0.5,0.5-12,12.2-12,26.1c0,14,11.5,25.7,12,26.1c0.8,0.8,2.2,0.8,3,0c0.8-0.8,0.8-2.2,0-3
	c-0.1-0.1-10.7-10.9-10.7-23.1c0-12.2,10.6-23,10.7-23.1c0.5-0.5,12-12.2,12-26.1c0-12.4-9-23-11.4-25.6c-0.1-0.1-0.1-0.2-0.2-0.3
	c-0.1-0.1-10.7-10.9-10.7-23.1c0-12.2,10.6-23,10.7-23.1C91,120.8,102.5,109.1,102.5,95.1"/>
<path class="st1" d="M89.4,76.4c3.4,0,6.2-2.8,6.2-6.2c0-3.4-2.8-6.2-6.2-6.2c-3.4,0-6.2,2.8-6.2,6.2C83.3,73.7,86.1,76.4,89.4,76.4
	"/>
<g>
	<defs>
		<path id="SVGID_1_" d="M81.5,70.3c0,3.9,2.9,7.2,6.6,7.8h2.7c1.7-0.3,3.2-1.1,4.3-2.3V64.7c-1.4-1.5-3.5-2.4-5.7-2.4
			C85.1,62.3,81.5,65.9,81.5,70.3"/>
	</defs>
	<clipPath id="SVGID_2_">
		<use xlink:href="#SVGID_1_"  style="overflow:visible;"/>
	</clipPath>
</g>
<circle class="st2" cx="89.4" cy="70.3" r="6.2"/>
<path class="st1" d="M76.8,148c3.4,0,6.2-2.8,6.2-6.2c0-3.4-2.8-6.2-6.2-6.2c-3.4,0-6.2,2.8-6.2,6.2C70.7,145.3,73.4,148,76.8,148"
	/>
<g>
	<defs>
		<path id="SVGID_3_" d="M68.9,141.9c0,4.4,3.6,8,8,8c1.7,0,3.2-0.5,4.5-1.4v-13.1c-1.3-0.9-2.8-1.4-4.5-1.4
			C72.4,133.9,68.9,137.5,68.9,141.9"/>
	</defs>
	<clipPath id="SVGID_4_">
		<use xlink:href="#SVGID_3_"  style="overflow:visible;"/>
	</clipPath>
</g>
<circle class="st2" cx="76.8" cy="141.9" r="6.2"/>
<path class="st1" d="M99.9,198.7c3.4,0,6.2-2.8,6.2-6.2c0-3.4-2.8-6.2-6.2-6.2c-3.4,0-6.2,2.8-6.2,6.2
	C93.8,195.9,96.5,198.7,99.9,198.7"/>
<circle class="st2" cx="99.9" cy="192.5" r="6.2"/>
<path class="st1" d="M88.8,273.9c3.4,0,6.2-2.8,6.2-6.2c0-3.4-2.8-6.2-6.2-6.2c-3.4,0-6.2,2.8-6.2,6.2
	C82.6,271.1,85.4,273.9,88.8,273.9"/>
<circle class="st3" cx="88.8" cy="267.7" r="6.2"/>
<path class="st4" d="M57.7,209.3c0-3.9-3.2-7.1-7.1-7.1c-3.9,0-7.1,3.2-7.1,7.1c0,3.9,3.2,7.1,7.1,7.1
	C54.5,216.4,57.7,213.2,57.7,209.3 M63.4,209.3c0,7.1-5.8,12.9-12.9,12.9c-7.1,0-12.9-5.8-12.9-12.9c0-7.1,5.8-12.9,12.9-12.9
	C57.7,196.4,63.4,202.2,63.4,209.3 M72.5,209.3c0-12.1-9.8-21.9-21.9-21.9c-12.1,0-21.9,9.8-21.9,21.9c0,6.8,4.5,13.9,7.8,18.7
	c4.9,6.9,10.5,12.5,12.1,14c0.5,0.5,1.2,0.8,2,0.8c0.7,0,1.5-0.3,2-0.8c1.6-1.5,7.2-7.1,12.1-14C68,223.2,72.5,216.1,72.5,209.3"/>
<g>
	<path class="st5" d="M39.1,255c0,0.1,0,0.2-0.1,0.3c0,0-0.1,0.1-0.2,0.1h-1.1c-0.2,0-0.3-0.1-0.3-0.3v-3.9c0-0.2,0.1-0.3,0.3-0.3
		h1.1c0.1,0,0.1,0,0.2,0c0,0,0.1,0,0.1,0c0,0,0,0.1,0,0.1c0,0,0,0.1,0,0.2V255z"/>
	<path class="st5" d="M45.7,258.1c0,0.2,0,0.3-0.1,0.3s-0.1,0.1-0.3,0.1h-1.1c-0.2,0-0.3-0.1-0.3-0.4v-4.7c0-0.5-0.2-0.8-0.5-0.9
		c-0.2-0.1-0.6-0.1-1.1-0.1c-0.7,0-1.3,0-1.9,0.1c-0.2,0-0.3-0.1-0.3-0.3v-0.8c0-0.1,0-0.1,0-0.2c0,0,0-0.1,0-0.1s0,0,0.1-0.1
		s0.1,0,0.1,0c0.5-0.2,1.3-0.2,2.4-0.2c0.9,0,1.6,0.2,2.1,0.5c0.5,0.4,0.8,1.1,0.8,2V258.1z"/>
	<path class="st5" d="M49.1,258.1c0,0.2,0,0.3-0.1,0.3s-0.1,0.1-0.3,0.1h-1.1c-0.2,0-0.3-0.1-0.3-0.4v-6.9c0-0.3,0.1-0.4,0.3-0.4
		h1.1c0.1,0,0.2,0,0.3,0.1c0,0,0.1,0.2,0.1,0.3V258.1z"/>
	<path class="st5" d="M56.8,255.8c0,1.8-1.1,2.8-3.2,2.8c-1.1,0-2-0.1-2.7-0.2c-0.2,0-0.3-0.2-0.3-0.4v-0.6c0-0.3,0.1-0.4,0.3-0.4
		c0.8,0.1,1.6,0.1,2.4,0.1c0.7,0,1.1-0.1,1.3-0.2c0.2-0.2,0.3-0.4,0.3-0.8v-2.9c0-0.3-0.1-0.5-0.3-0.6c-0.2-0.1-0.5-0.1-1-0.1
		c-0.3,0-0.6,0-0.8,0c-0.2,0-0.4,0-0.5,0v1.5v0.2c0,0,0.1,0.1,0.2,0.1h1.1c0.2,0,0.3,0.1,0.3,0.3v0.7c0,0.3-0.2,0.4-0.5,0.4h-2
		c-0.3,0-0.4,0-0.5-0.1c-0.1-0.1-0.2-0.3-0.2-0.5v-3.4c0-0.2,0.1-0.3,0.4-0.4c0.8-0.2,1.6-0.3,2.6-0.3c1.3,0,2.2,0.2,2.6,0.7
		c0.4,0.4,0.6,1,0.6,1.9V255.8z"/>
	<path class="st5" d="M59.9,255c0,0.1,0,0.2-0.1,0.3c0,0-0.1,0.1-0.2,0.1h-1.1c-0.2,0-0.3-0.1-0.3-0.3v-3.9c0-0.2,0.1-0.3,0.3-0.3
		h1.1c0.1,0,0.1,0,0.2,0c0,0,0.1,0,0.1,0c0,0,0,0.1,0,0.1c0,0,0,0.1,0,0.2V255z"/>
	<path class="st5" d="M68,254.6c0,1.3-0.2,2.3-0.7,2.9c-0.6,0.8-1.5,1.2-2.7,1.2h0c-1.3,0-2.3-0.4-2.8-1.1c-0.4-0.6-0.6-1.5-0.6-2.8
		c0-1.4,0.1-2.3,0.4-2.8c0.5-0.8,1.5-1.2,2.9-1.2h0c1.7,0,2.8,0.6,3.1,1.7C67.9,252.9,68,253.6,68,254.6z M66.3,253.8
		c0-0.5-0.1-0.9-0.3-1.2c-0.2-0.3-0.6-0.4-1.2-0.4h-0.4c-0.5,0-0.9,0.1-1.1,0.4c-0.2,0.2-0.3,0.6-0.3,1.2v1.7c0,0.6,0.1,1,0.3,1.2
		c0.2,0.3,0.6,0.4,1.2,0.4h0.3c1,0,1.5-0.6,1.5-1.7V253.8z"/>
	<path class="st5" d="M33.5,271.1c0,0.2,0,0.3-0.1,0.3s-0.2,0.1-0.3,0.1h-2.4c-0.2,0-0.3-0.1-0.3-0.3v-0.9c0-0.1,0-0.2,0.1-0.3
		c0.1,0,0.1-0.1,0.2-0.1h1v-4.5h-0.5c-0.2,0-0.3-0.1-0.3-0.3v-0.8c0-0.1,0-0.1,0-0.2c0,0,0-0.1,0-0.1c0,0,0,0,0.1-0.1
		c0,0,0.1,0,0.1,0c0.7-0.1,1.9-0.1,3.7-0.1c1.1,0,1.9,0.2,2.3,0.6c0.5,0.4,0.7,1.1,0.7,2v4.7c0,0.2-0.1,0.4-0.3,0.4h-1.1
		c-0.2,0-0.3-0.1-0.3-0.4v-4.7c0-0.4-0.1-0.7-0.3-0.9c-0.2-0.2-0.6-0.2-1-0.2h-1.4V271.1z"/>
	<path class="st5" d="M41.3,271.1c0,0.2,0,0.3-0.1,0.3s-0.1,0.1-0.3,0.1h-1.1c-0.2,0-0.3-0.1-0.3-0.4v-6.9c0-0.3,0.1-0.4,0.3-0.4H41
		c0.1,0,0.2,0,0.3,0.1c0,0,0.1,0.2,0.1,0.3V271.1z"/>
	<path class="st5" d="M49.3,271.2c0,0.2-0.1,0.3-0.3,0.3h-1.1c-0.1,0-0.2,0-0.2-0.1s-0.1-0.1-0.1-0.3v-4.8c0-0.4-0.1-0.7-0.3-0.8
		c-0.2-0.1-0.5-0.2-1-0.2c-0.9,0-1.4,0-1.6,0v5.8c0,0.2-0.1,0.3-0.3,0.3h-1.1c-0.1,0-0.2,0-0.2-0.1c0,0-0.1-0.1-0.1-0.3v-6.8
		c0-0.2,0.1-0.3,0.4-0.4c0.5-0.1,0.9-0.1,1.5-0.1s1.1,0,1.8,0c1,0,1.7,0.2,2.1,0.5c0.4,0.4,0.6,1,0.6,1.9V271.2z"/>
	<path class="st5" d="M52.7,271.1c0,0.2,0,0.3-0.1,0.3s-0.1,0.1-0.3,0.1h-1.1c-0.2,0-0.3-0.1-0.3-0.4v-6.9c0-0.3,0.1-0.4,0.3-0.4
		h1.1c0.1,0,0.2,0,0.3,0.1c0,0,0.1,0.2,0.1,0.3V271.1z"/>
	<path class="st5" d="M58.9,271.1c-0.1,0.3-0.3,0.4-0.4,0.4h-1.3c-0.1,0-0.2-0.1-0.2-0.2c0-0.1,0-0.2,0.1-0.4l1.9-3.9
		c0.1-0.2,0.2-0.5,0.2-0.7c0-0.3-0.1-0.5-0.3-0.7s-0.4-0.3-0.7-0.3h-3.9c-0.2,0-0.3-0.1-0.3-0.3v-0.9c0-0.2,0.1-0.3,0.3-0.3h3.8
		c0.8,0,1.5,0.2,2,0.7c0.5,0.5,0.7,1.1,0.7,1.8c0,0.5-0.1,1.1-0.4,1.6L58.9,271.1z M56,274.5c0,0.1,0,0.2-0.1,0.3s-0.1,0.1-0.2,0.1
		h-1.1c-0.2,0-0.3-0.1-0.3-0.3v-5.7c0-0.3,0.1-0.8,0.4-1.5c0.1-0.2,0.2-0.3,0.4-0.3h0.7c0.2,0,0.3,0.1,0.3,0.3V274.5z"/>
	<path class="st5" d="M65.8,271.1c-0.1,0.3-0.2,0.4-0.4,0.4h-1.2c-0.1,0-0.2-0.1-0.2-0.2c0-0.1,0-0.2,0.1-0.4l1.9-5.5h-3.7
		c-0.2,0-0.3-0.1-0.3-0.3v-3.3c0-0.2,0.1-0.3,0.4-0.3h1.1c0.2,0,0.3,0.1,0.3,0.4v2h4.1c0.2,0,0.4,0.1,0.4,0.3c0,0.1,0,0.2,0,0.3
		L65.8,271.1z"/>
</g>
</svg>
