<svg id="Layer_1" data-name="Layer 1" xmlns="http://www.w3.org/2000/svg" viewBox="0 0 107.88 275.69"><defs><style>.cls-1{fill:#e8eaeb;}.cls-2{fill:#c6ced1;}.cls-3,.cls-4,.cls-5{fill:none;}.cls-4{stroke:#feea06;}.cls-4,.cls-5{stroke-linecap:round;stroke-linejoin:round;stroke-width:3.6px;}.cls-5{stroke:#e8eaeb;}</style></defs><title>MovingGraphic-01</title><path class="cls-1" d="M102.53,95.13c0-14-11.51-25.65-12-26.14a2.14,2.14,0,0,0-3,3c0.11,0.11,10.74,10.93,10.74,23.12s-10.64,23-10.74,23.12c-0.49.49-12,12.16-12,26.14,0,12.44,9.1,23,11.45,25.58a2.2,2.2,0,0,0,.19.24c0.11,0.11,10.74,10.93,10.74,23.12s-10.64,23-10.74,23.12c-0.49.49-12,12.16-12,26.14s11.5,25.65,12,26.14a2.14,2.14,0,1,0,3-3c-0.11-.11-10.74-10.88-10.74-23.12s10.63-23,10.74-23.11c0.49-.49,12-12.16,12-26.15,0-12.4-9-23-11.44-25.56a2.19,2.19,0,0,0-.22-0.27c-0.11-.11-10.74-10.88-10.74-23.12s10.63-23,10.74-23.12c0.49-.49,12-12.16,12-26.15" transform="translate(0 0)"/><path class="cls-2" d="M89.44,76.43a6.15,6.15,0,1,0-6.15-6.15,6.16,6.16,0,0,0,6.15,6.15" transform="translate(0 0)"/><rect class="cls-3" width="107.88" height="275.69"/><circle class="cls-4" cx="89.44" cy="70.28" r="6.15"/><path class="cls-2" d="M76.84,148a6.15,6.15,0,1,0-6.15-6.15A6.16,6.16,0,0,0,76.84,148" transform="translate(0 0)"/><rect class="cls-3" width="107.88" height="275.69"/><circle class="cls-5" cx="76.84" cy="141.89" r="6.15"/><path class="cls-2" d="M99.93,198.65a6.15,6.15,0,1,0-6.15-6.15,6.16,6.16,0,0,0,6.15,6.15" transform="translate(0 0)"/><rect class="cls-3" width="107.88" height="275.69"/><circle class="cls-5" cx="99.93" cy="192.5" r="6.15"/><path class="cls-2" d="M88.77,273.89a6.15,6.15,0,1,0-6.15-6.15,6.16,6.16,0,0,0,6.15,6.15" transform="translate(0 0)"/><rect class="cls-3" width="107.88" height="275.69"/><circle class="cls-5" cx="88.77" cy="267.74" r="6.15"/><path class="cls-1" d="M31,71.75a0.47,0.47,0,0,1-.4.4H29.39a0.17,0.17,0,0,1-.18-0.21,1.13,1.13,0,0,1,.09-0.35l1.88-5.5H27.44a0.29,0.29,0,0,1-.32-0.34V62.4a0.3,0.3,0,0,1,.35-0.32h1.09a0.31,0.31,0,0,1,.3.38v2H33a0.29,0.29,0,0,1,.35.29,1.13,1.13,0,0,1,0,.29Z" transform="translate(0 0)"/><path class="cls-1" d="M36.49,71.78a0.39,0.39,0,0,1-.08.31,0.46,0.46,0,0,1-.25.05H35.06a0.31,0.31,0,0,1-.32-0.37V64.89a0.31,0.31,0,0,1,.32-0.38h1.11a0.33,0.33,0,0,1,.27.07,0.62,0.62,0,0,1,.05.31v6.88Z" transform="translate(0 0)"/><path class="cls-1" d="M41.61,71.75a0.47,0.47,0,0,1-.4.4H40a0.17,0.17,0,0,1-.18-0.21,1.13,1.13,0,0,1,.09-0.35l1.88-5.5H38a0.29,0.29,0,0,1-.32-0.34V62.4A0.3,0.3,0,0,1,38,62.08h1.09a0.31,0.31,0,0,1,.3.38v2h4.15a0.29,0.29,0,0,1,.35.29,1.13,1.13,0,0,1,0,.29Z" transform="translate(0 0)"/><path class="cls-1" d="M51.9,68.21a5,5,0,0,1-.66,2.88,3.1,3.1,0,0,1-2.7,1.16h0a3.19,3.19,0,0,1-2.8-1.12,5,5,0,0,1-.58-2.78,6,6,0,0,1,.43-2.77q0.73-1.2,2.95-1.2h0q2.61,0,3.12,1.71A7.09,7.09,0,0,1,51.9,68.21Zm-1.76-.72a1.93,1.93,0,0,0-.29-1.19,1.4,1.4,0,0,0-1.16-.43H48.27a1.26,1.26,0,0,0-1.09.4,2,2,0,0,0-.26,1.16v1.68a2.16,2.16,0,0,0,.26,1.22,1.47,1.47,0,0,0,1.22.43h0.29a1.39,1.39,0,0,0,1.45-1.66v-1.6Z" transform="translate(0 0)"/><path class="cls-1" d="M60.2,69.63a2.82,2.82,0,0,1-.59,1.93,2.15,2.15,0,0,1-1.7.67A4,4,0,0,1,56.55,72a0.48,0.48,0,0,1-.23-0.12,0.65,0.65,0,0,1,0-.26V70.93q0-.3.35-0.27l0.73,0a0.93,0.93,0,0,0,1.09-1V67.18a1,1,0,0,0-1.09-1.12H56.33a1,1,0,0,0-.93.34v5.41a0.45,0.45,0,0,1-.05.28,0.38,0.38,0,0,1-.25.05h-1.3a0.14,0.14,0,0,1-.09,0,0.18,0.18,0,0,1,0-.1,1.74,1.74,0,0,1,0-.18v-5a1,1,0,0,0-.23-0.62l-0.37-.43a0.55,0.55,0,0,1-.17-0.3,0.44,0.44,0,0,1,.17-0.27l0.71-.66a0.53,0.53,0,0,1,.34-0.16,0.41,0.41,0,0,1,.25.11l0.29,0.3,0.45,0.53a2.65,2.65,0,0,1,1.69-.84h1.09a2.07,2.07,0,0,1,2.34,2.35v2.8Z" transform="translate(0 0)"/><path class="cls-1" d="M67.91,71.78a0.39,0.39,0,0,1-.08.31,0.43,0.43,0,0,1-.24.05H66.51a0.31,0.31,0,0,1-.34-0.37V66.86a0.79,0.79,0,0,0-.84-0.8l-0.65,0-0.85,0-0.95,0-1,.06a0.27,0.27,0,0,1-.35-0.29V65a0.33,0.33,0,0,1,.34-0.37q0.78-.08,1.49-0.12t1.36,0a4.14,4.14,0,0,1,2.41.55,2.1,2.1,0,0,1,.76,1.83v4.93Zm-4.43,0a0.39,0.39,0,0,1-.08.31,0.46,0.46,0,0,1-.25.05H62.05a0.31,0.31,0,0,1-.32-0.37V69.5A3,3,0,0,1,62.13,68a0.35,0.35,0,0,1,.34-0.2h0.72a0.27,0.27,0,0,1,.3.3v3.63Z" transform="translate(0 0)"/><path class="cls-1" d="M14.95,88a0.3,0.3,0,0,1-.34.34H13.52A0.29,0.29,0,0,1,13.2,88V77.86a0.31,0.31,0,0,1,.35-0.35h1.11a0.33,0.33,0,0,1,.25.05,0.81,0.81,0,0,1,0,.33V88Z" transform="translate(0 0)"/><path class="cls-1" d="M23.2,84.86q0,0.29-.19.29H21.66a0.49,0.49,0,0,1-.34-0.09L21.27,85l-0.14-.19L18.63,81.3a3.24,3.24,0,0,0-.24.91L17.9,84.76a0.4,0.4,0,0,1-.4.38h-1a0.31,0.31,0,0,1-.32-0.37V84.7l0.34-1.81a3.23,3.23,0,0,1,.77-1.73L18,80.47l-1.77-2.35a0.58,0.58,0,0,1-.15-0.3q0-.3.21-0.3h1.31a0.61,0.61,0,0,1,.45.3l2.3,3.09a1.81,1.81,0,0,0,.27-0.84l0.4-2.16a0.38,0.38,0,0,1,.35-0.38h1.12q0.37,0,.37.21a1.77,1.77,0,0,1,0,.29l-0.25,1.34a3,3,0,0,1-.9,1.74L21,81.72l2.08,2.84A0.53,0.53,0,0,1,23.2,84.86Z" transform="translate(0 0)"/><path class="cls-1" d="M29.63,81.18q0,2.42-.75,3.23a3.28,3.28,0,0,1-2.49.8,7.48,7.48,0,0,1-2.1-.24A0.36,0.36,0,0,1,24,84.58v-0.8q0-.29.38-0.24,1,0.09,1.73.09a2.37,2.37,0,0,0,1.32-.27,1.2,1.2,0,0,0,.38-1v-2a1.16,1.16,0,0,0-.48-1.08A2.9,2.9,0,0,0,26,79a9.29,9.29,0,0,0-1.65.14,0.22,0.22,0,0,1-.3-0.24v-0.8a0.38,0.38,0,0,1,.25-0.4,6.53,6.53,0,0,1,2.12-.26,4,4,0,0,1,2.25.49,2.19,2.19,0,0,1,.77,1.13A7.35,7.35,0,0,1,29.63,81.18Z" transform="translate(0 0)"/><path class="cls-1" d="M37.7,84.75a0.47,0.47,0,0,1-.4.4H36a0.17,0.17,0,0,1-.18-0.21A1.13,1.13,0,0,1,36,84.58l1.88-5.5H34.09a0.29,0.29,0,0,1-.32-0.34V75.4a0.3,0.3,0,0,1,.35-0.32h1.09a0.31,0.31,0,0,1,.3.38v2h4.15a0.29,0.29,0,0,1,.35.29,1.13,1.13,0,0,1,0,.29Z" transform="translate(0 0)"/><path class="cls-1" d="M43,81.69A0.45,0.45,0,0,1,43,82a0.36,0.36,0,0,1-.25.06H41.61a0.29,0.29,0,0,1-.32-0.34V77.8a0.27,0.27,0,0,1,.32-0.29h1.28a0.16,0.16,0,0,1,.09,0,0.19,0.19,0,0,1,0,.11,1.87,1.87,0,0,1,0,.19v3.83Z" transform="translate(0 0)"/><path class="cls-1" d="M51,84.81a0.29,0.29,0,0,1-.32.34H49.54a0.38,0.38,0,0,1-.25-0.05,0.43,0.43,0,0,1-.06-0.28V80A1,1,0,0,0,49,79.21a1.73,1.73,0,0,0-1-.21,16,16,0,0,0-1.65,0v5.76a0.3,0.3,0,0,1-.34.34H44.84a0.35,0.35,0,0,1-.24-0.05,0.48,0.48,0,0,1-.05-0.28V78a0.36,0.36,0,0,1,.38-0.35q0.68-.08,1.49-0.12t1.79,0a3.3,3.3,0,0,1,2.14.55A2.29,2.29,0,0,1,51,79.86v4.95Z" transform="translate(0 0)"/><path class="cls-1" d="M55.12,84.75a0.31,0.31,0,0,1-.4.4H52.34A0.27,0.27,0,0,1,52,84.82v-0.9a0.35,0.35,0,0,1,.08-0.28,0.4,0.4,0,0,1,.24-0.06h1V79.05H52.92a0.26,0.26,0,0,1-.32-0.29V78c0-.08,0-0.14,0-0.18a0.27,0.27,0,0,1,0-.11,0.12,0.12,0,0,1,.07-0.06l0.14,0a32.09,32.09,0,0,1,3.71-.14,3.58,3.58,0,0,1,2.32.59,2.57,2.57,0,0,1,.7,2v4.66a0.3,0.3,0,0,1-.3.37H58.14a0.3,0.3,0,0,1-.3-0.37V80.12a1,1,0,0,0-.31-0.86,1.73,1.73,0,0,0-1-.24H55.12v5.73Z" transform="translate(0 0)"/><path class="cls-1" d="M68,82.63a2.82,2.82,0,0,1-.59,1.93,2.15,2.15,0,0,1-1.7.67A4,4,0,0,1,64.33,85a0.48,0.48,0,0,1-.23-0.12,0.65,0.65,0,0,1,0-.26V83.93q0-.3.35-0.27l0.73,0a0.93,0.93,0,0,0,1.09-1V80.18a1,1,0,0,0-1.09-1.12H64.1a1,1,0,0,0-.93.34v5.41a0.45,0.45,0,0,1-.05.28,0.38,0.38,0,0,1-.25.05h-1.3a0.14,0.14,0,0,1-.09,0,0.18,0.18,0,0,1,0-.1,1.74,1.74,0,0,1,0-.18v-5a1,1,0,0,0-.23-0.62l-0.37-.43a0.55,0.55,0,0,1-.17-0.3,0.45,0.45,0,0,1,.17-0.27l0.71-.66a0.53,0.53,0,0,1,.34-0.16,0.41,0.41,0,0,1,.25.11l0.29,0.3,0.45,0.53a2.65,2.65,0,0,1,1.69-.84h1.09A2.07,2.07,0,0,1,68,79.83v2.8Z" transform="translate(0 0)"/><path class="cls-1" d="M58.66,24.32a7.09,7.09,0,1,0-7.09,7.09,7.1,7.1,0,0,0,7.09-7.09m5.78,0A12.87,12.87,0,1,1,51.57,11.45,12.89,12.89,0,0,1,64.44,24.32m9.06,0a21.93,21.93,0,1,0-43.87,0c0,6.82,4.47,13.92,7.83,18.66A105.67,105.67,0,0,0,49.58,57a2.87,2.87,0,0,0,4,0A105.71,105.71,0,0,0,65.68,43C69,38.24,73.5,31.14,73.5,24.32" transform="translate(0 0)"/></svg>