<?xml version="1.0" encoding="utf-8"?>
<!-- Generator: Adobe Illustrator 19.2.1, SVG Export Plug-In . SVG Version: 6.00 Build 0)  -->
<!DOCTYPE svg PUBLIC "-//W3C//DTD SVG 1.1//EN" "http://www.w3.org/Graphics/SVG/1.1/DTD/svg11.dtd">
<svg version="1.1" id="Layer_1" xmlns="http://www.w3.org/2000/svg" xmlns:xlink="http://www.w3.org/1999/xlink" x="0px" y="0px"
	 viewBox="0 0 107.9 275.7" style="enable-background:new 0 0 107.9 275.7;" xml:space="preserve">
<style type="text/css">
	.st0{fill:#E8EAEB;}
	.st1{fill:#C6CED1;}
	.st2{fill:none;stroke:#E8EAEA;stroke-width:3.6;stroke-linecap:round;stroke-linejoin:round;stroke-miterlimit:10;}
	.st3{fill:none;stroke:#FDE900;stroke-width:3.6;stroke-linecap:round;stroke-linejoin:round;stroke-miterlimit:10;}
	.st4{fill:none;stroke:#E8EAEB;stroke-width:3.6;stroke-linecap:round;stroke-linejoin:round;stroke-miterlimit:10;}
</style>
<path class="st0" d="M102.5,95.1c0-14-11.5-25.7-12-26.1c-0.8-0.8-2.2-0.8-3,0c-0.8,0.8-0.8,2.2,0,3c0.1,0.1,10.7,10.9,10.7,23.1
	c0,12.2-10.6,23-10.7,23.1c-0.5,0.5-12,12.2-12,26.1c0,12.4,9.1,23,11.5,25.6c0.1,0.1,0.1,0.2,0.2,0.2c0.1,0.1,10.7,10.9,10.7,23.1
	c0,12.2-10.6,23-10.7,23.1c-0.5,0.5-12,12.2-12,26.1c0,14,11.5,25.7,12,26.1c0.8,0.8,2.2,0.8,3,0c0.8-0.8,0.8-2.2,0-3
	c-0.1-0.1-10.7-10.9-10.7-23.1c0-12.2,10.6-23,10.7-23.1c0.5-0.5,12-12.2,12-26.1c0-12.4-9-23-11.4-25.6c-0.1-0.1-0.1-0.2-0.2-0.3
	c-0.1-0.1-10.7-10.9-10.7-23.1c0-12.2,10.6-23,10.7-23.1C91,120.8,102.5,109.1,102.5,95.1"/>
<path class="st1" d="M89.4,76.4c3.4,0,6.2-2.8,6.2-6.2c0-3.4-2.8-6.2-6.2-6.2c-3.4,0-6.2,2.8-6.2,6.2C83.3,73.7,86.1,76.4,89.4,76.4
	"/>
<circle class="st2" cx="89.4" cy="70.3" r="6.2"/>
<path class="st1" d="M76.8,148c3.4,0,6.2-2.8,6.2-6.2c0-3.4-2.8-6.2-6.2-6.2c-3.4,0-6.2,2.8-6.2,6.2C70.7,145.3,73.4,148,76.8,148"
	/>
<circle class="st3" cx="76.8" cy="141.9" r="6.2"/>
<path class="st1" d="M99.9,198.7c3.4,0,6.2-2.8,6.2-6.2c0-3.4-2.8-6.2-6.2-6.2c-3.4,0-6.2,2.8-6.2,6.2
	C93.8,195.9,96.5,198.7,99.9,198.7"/>
<circle class="st4" cx="99.9" cy="192.5" r="6.2"/>
<path class="st1" d="M88.8,273.9c3.4,0,6.2-2.8,6.2-6.2c0-3.4-2.8-6.2-6.2-6.2c-3.4,0-6.2,2.8-6.2,6.2
	C82.6,271.1,85.4,273.9,88.8,273.9"/>
<circle class="st4" cx="88.8" cy="267.7" r="6.2"/>
<path class="st0" d="M58.7,90.3c0-3.9-3.2-7.1-7.1-7.1c-3.9,0-7.1,3.2-7.1,7.1c0,3.9,3.2,7.1,7.1,7.1C55.5,97.4,58.7,94.2,58.7,90.3
	 M64.4,90.3c0,7.1-5.8,12.9-12.9,12.9c-7.1,0-12.9-5.8-12.9-12.9c0-7.1,5.8-12.9,12.9-12.9C58.7,77.4,64.4,83.2,64.4,90.3
	 M73.5,90.3c0-12.1-9.8-21.9-21.9-21.9c-12.1,0-21.9,9.8-21.9,21.9c0,6.8,4.5,13.9,7.8,18.7c4.9,6.9,10.5,12.5,12.1,14
	c0.5,0.5,1.2,0.8,2,0.8c0.7,0,1.5-0.3,2-0.8c1.6-1.5,7.2-7.1,12.1-14C69,104.2,73.5,97.1,73.5,90.3"/>
<g>
	<path class="st0" d="M32,139.1c0,0.2,0,0.3-0.1,0.3c-0.1,0-0.1,0.1-0.2,0.1h-1.1c-0.2,0-0.3-0.1-0.3-0.4v-4.9
		c0-0.5-0.3-0.7-0.8-0.8c-0.2,0-0.4,0-0.6,0c-0.2,0-0.5,0-0.9,0c-0.3,0-0.6,0-0.9,0c-0.3,0-0.6,0-1,0.1c-0.2,0-0.4-0.1-0.4-0.3v-0.8
		c0-0.2,0.1-0.4,0.3-0.4c0.5-0.1,1-0.1,1.5-0.1c0.5,0,0.9,0,1.4,0c1.1,0,1.9,0.2,2.4,0.6c0.5,0.4,0.8,1,0.8,1.8V139.1z M27.6,139.1
		c0,0.2,0,0.3-0.1,0.3c-0.1,0-0.1,0.1-0.3,0.1h-1.1c-0.2,0-0.3-0.1-0.3-0.4v-2.3c0-0.5,0.1-1,0.4-1.5c0.1-0.1,0.2-0.2,0.3-0.2h0.7
		c0.2,0,0.3,0.1,0.3,0.3V139.1z"/>
	<path class="st0" d="M37.3,132.9c0,0.2-0.1,0.3-0.3,0.3l-0.5,0.2c-0.3,0.1-0.5,0.3-0.6,0.5c-0.2,0.3-0.3,0.8-0.3,1.3
		c0,0.3,0.1,0.7,0.2,1.3l0.5,2.5c0,0.1,0,0.2,0,0.2c0,0.2-0.1,0.3-0.3,0.3H35c-0.2,0-0.3-0.1-0.3-0.4l-0.5-2.4
		c-0.1-0.6-0.2-1-0.2-1.2c0-0.7,0.2-1.4,0.7-2.1h-1.1c-0.2,0-0.3-0.1-0.3-0.3v-0.9c0-0.2,0.1-0.3,0.3-0.3h3.5c0.2,0,0.3,0.1,0.3,0.3
		V132.9z"/>
	<path class="st0" d="M47.8,139.1c0,0.2,0,0.3-0.1,0.3c-0.1,0-0.1,0.1-0.2,0.1h-1.1c-0.2,0-0.3-0.1-0.3-0.4v-4.9
		c0-0.5-0.3-0.7-0.8-0.8c-0.2,0-0.4,0-0.6,0c-0.2,0-0.5,0-0.9,0c-0.3,0-0.6,0-0.9,0c-0.3,0-0.6,0-1,0.1c-0.2,0-0.4-0.1-0.4-0.3v-0.8
		c0-0.2,0.1-0.4,0.3-0.4c0.5-0.1,1-0.1,1.5-0.1c0.5,0,0.9,0,1.4,0c1.1,0,1.9,0.2,2.4,0.6c0.5,0.4,0.8,1,0.8,1.8V139.1z M43.3,139.1
		c0,0.2,0,0.3-0.1,0.3c-0.1,0-0.1,0.1-0.3,0.1h-1.1c-0.2,0-0.3-0.1-0.3-0.4v-2.3c0-0.5,0.1-1,0.4-1.5c0.1-0.1,0.2-0.2,0.3-0.2H43
		c0.2,0,0.3,0.1,0.3,0.3V139.1z"/>
	<path class="st0" d="M56.1,137c0,0.8-0.2,1.5-0.6,1.9c-0.4,0.4-1,0.7-1.7,0.7c-0.6,0-1-0.1-1.4-0.2c-0.1,0-0.2-0.1-0.2-0.1
		c0,0,0-0.1,0-0.3v-0.7c0-0.2,0.1-0.3,0.4-0.3c0.4,0,0.7,0,0.7,0c0.7,0,1.1-0.3,1.1-1v-2.5c0-0.7-0.4-1.1-1.1-1.1h-1.1
		c-0.5,0-0.8,0.1-0.9,0.3v5.4c0,0.2,0,0.2-0.1,0.3c0,0-0.1,0.1-0.2,0.1h-1.1c-0.1,0-0.1,0-0.2,0c0,0-0.1,0-0.1,0c0,0,0-0.1,0-0.1
		c0,0,0-0.1,0-0.2v-5c0-0.2-0.1-0.4-0.2-0.6l-0.4-0.4c-0.1-0.1-0.2-0.2-0.2-0.3c0-0.1,0.1-0.2,0.2-0.3l0.7-0.7
		c0.1-0.1,0.2-0.2,0.3-0.2c0.1,0,0.2,0,0.2,0.1l0.3,0.3l0.4,0.5c0.6-0.6,1.2-0.8,1.7-0.8h1.1c1.6,0,2.3,0.8,2.3,2.4V137z"/>
	<path class="st0" d="M63,135.5c0,1.6-0.2,2.7-0.8,3.2c-0.5,0.5-1.3,0.8-2.5,0.8c-0.9,0-1.6-0.1-2.1-0.2c-0.2-0.1-0.3-0.2-0.3-0.4
		v-0.8c0-0.2,0.1-0.3,0.4-0.2c0.6,0.1,1.2,0.1,1.7,0.1c0.6,0,1.1-0.1,1.3-0.3c0.2-0.2,0.4-0.5,0.4-1v-2c0-0.5-0.2-0.9-0.5-1.1
		c-0.3-0.2-0.7-0.2-1.4-0.2c-0.6,0-1.1,0-1.6,0.1c-0.2,0-0.3,0-0.3-0.2v-0.8c0-0.2,0.1-0.3,0.2-0.4c0.5-0.2,1.2-0.3,2.1-0.3
		c1,0,1.8,0.2,2.2,0.5c0.4,0.3,0.6,0.6,0.8,1.1C62.9,133.9,63,134.6,63,135.5z"/>
	<path class="st0" d="M45,152.1c0,0.2,0,0.3-0.1,0.3c-0.1,0-0.1,0.1-0.2,0.1h-1.1c-0.2,0-0.3-0.1-0.3-0.4v-4.9
		c0-0.5-0.3-0.7-0.8-0.8c-0.2,0-0.4,0-0.6,0c-0.2,0-0.5,0-0.9,0c-0.3,0-0.6,0-0.9,0c-0.3,0-0.6,0-1,0.1c-0.2,0-0.4-0.1-0.4-0.3v-0.8
		c0-0.2,0.1-0.4,0.3-0.4c0.5-0.1,1-0.1,1.5-0.1c0.5,0,0.9,0,1.4,0c1.1,0,1.9,0.2,2.4,0.6c0.5,0.4,0.8,1,0.8,1.8V152.1z M40.5,152.1
		c0,0.2,0,0.3-0.1,0.3c-0.1,0-0.1,0.1-0.3,0.1h-1.1c-0.2,0-0.3-0.1-0.3-0.4v-2.3c0-0.5,0.1-1,0.4-1.5c0.1-0.1,0.2-0.2,0.3-0.2h0.7
		c0.2,0,0.3,0.1,0.3,0.3V152.1z"/>
	<path class="st0" d="M50.1,152.1c-0.1,0.3-0.2,0.4-0.4,0.4h-1.2c-0.1,0-0.2-0.1-0.2-0.2c0-0.1,0-0.2,0.1-0.4l1.9-5.5h-3.7
		c-0.2,0-0.3-0.1-0.3-0.3v-3.3c0-0.2,0.1-0.3,0.4-0.3h1.1c0.2,0,0.3,0.1,0.3,0.4v2h4.1c0.2,0,0.4,0.1,0.4,0.3c0,0.1,0,0.2,0,0.3
		L50.1,152.1z"/>
	<path class="st0" d="M55.5,152.1c0,0.2,0,0.3-0.1,0.3c-0.1,0-0.1,0.1-0.3,0.1h-1.1c-0.2,0-0.3-0.1-0.3-0.4v-6.9
		c0-0.3,0.1-0.4,0.3-0.4h1.1c0.1,0,0.2,0,0.3,0.1c0,0,0.1,0.2,0.1,0.3V152.1z"/>
	<path class="st0" d="M62.8,147.6c-0.1,0.9-0.3,1.7-0.6,2.4c-0.3,0.6-0.8,1.1-1.4,1.7c-0.7,0.6-1.7,1.3-3.2,2
		c-0.2,0.1-0.3,0.1-0.4,0.1s-0.1,0-0.2-0.1l-0.4-0.7c-0.1-0.2-0.1-0.3-0.1-0.3c0-0.1,0.1-0.2,0.2-0.2c0.6-0.3,1.2-0.7,1.9-1.1l0-0.1
		l-1.9-6.1c-0.1-0.3,0-0.4,0.3-0.4h1.2c0.2,0,0.3,0,0.3,0.1c0.1,0.1,0.1,0.2,0.1,0.3l0.8,3c0.2,0.6,0.2,1.1,0.2,1.5
		c0,0.3,0,0.5,0,0.8l0.1,0c0.5-0.4,0.8-0.8,1-1.2c0.2-0.4,0.3-1,0.4-1.7l0.2-2.3c0-0.3,0.1-0.5,0.3-0.5h1.2c0.2,0,0.3,0.1,0.3,0.4
		L62.8,147.6z"/>
</g>
</svg>
