<svg xmlns="http://www.w3.org/2000/svg" xmlns:xlink="http://www.w3.org/1999/xlink" version="1.1" x="0px" y="0px" viewBox="0 0 100 100" enable-background="new 0 0 100 100" xml:space="preserve"><g><g><path d="M67.5,25.2c-3.1,0-5.7-2.5-5.7-5.7s2.5-5.7,5.7-5.7c3.1,0,5.7,2.5,5.7,5.7S70.6,25.2,67.5,25.2z M67.5,16.4    c-1.7,0-3.2,1.4-3.2,3.2s1.4,3.2,3.2,3.2c1.7,0,3.2-1.4,3.2-3.2S69.2,16.4,67.5,16.4z"></path></g><rect x="66.2" y="5.3" width="2.5" height="4.9"></rect><rect x="74.6" y="8.9" transform="matrix(0.7071 0.7071 -0.7071 0.7071 30.2435 -50.3268)" width="2.5" height="4.9"></rect><rect x="58" y="25.5" transform="matrix(0.7071 0.7071 -0.7071 0.7071 37.1106 -33.7478)" width="2.5" height="4.9"></rect><rect x="56.7" y="10" transform="matrix(0.7072 0.7071 -0.7071 0.7072 25.2886 -38.5664)" width="4.9" height="2.5"></rect><rect x="73.3" y="26.6" transform="matrix(0.7071 0.7072 -0.7072 0.7071 41.8836 -45.4414)" width="4.9" height="2.5"></rect><rect x="76.7" y="18.3" width="4.9" height="2.5"></rect><rect x="53.3" y="18.3" width="4.9" height="2.5"></rect><rect x="66.2" y="28.8" width="2.5" height="4.9"></rect><rect x="66.2" y="5.3" width="2.5" height="4.9"></rect><rect x="74.6" y="8.9" transform="matrix(0.7071 0.7071 -0.7071 0.7071 30.2435 -50.3268)" width="2.5" height="4.9"></rect><rect x="58" y="25.5" transform="matrix(0.7071 0.7071 -0.7071 0.7071 37.1106 -33.7478)" width="2.5" height="4.9"></rect><rect x="56.7" y="10" transform="matrix(0.7072 0.7071 -0.7071 0.7072 25.2886 -38.5664)" width="4.9" height="2.5"></rect><rect x="73.3" y="26.6" transform="matrix(0.7071 0.7072 -0.7072 0.7071 41.8836 -45.4414)" width="4.9" height="2.5"></rect><rect x="76.7" y="18.3" width="4.9" height="2.5"></rect><rect x="53.3" y="18.3" width="4.9" height="2.5"></rect><rect x="66.2" y="28.8" width="2.5" height="4.9"></rect><path d="M86.8,63.2c-1-1.3-2.4-2.2-3.9-2.6V36.8h-2.5v8H68.8l0,0c0.7-0.9,1-2.1,0.8-3.2c-0.2-1.2-0.8-2.2-1.7-2.9   c-0.8-0.6-1.6-0.8-2.6-0.8c-1.4,0-2.7,0.7-3.5,1.8L58,44.8h-1.8C55,42.5,52.7,41,50,41c-2.7,0-5,1.5-6.2,3.8H42l-3.8-5.2   c-0.8-1.1-2.1-1.8-3.5-1.8c-0.9,0-1.8,0.3-2.6,0.8c-0.9,0.7-1.6,1.7-1.7,2.9s0.1,2.3,0.8,3.2l0,0H19.6v-8h-2.5v23.9   c-1.5,0.4-2.9,1.3-3.9,2.6c-1.5,1.9-2.2,4.6-1.9,7.2l1.6,12.5l1.2-0.2c1-0.1,2-0.2,3-0.3v12.2h2.5v-6.3h60.8v6.3h2.5V82.4   c1,0.1,2,0.2,3,0.3l1.2,0.2l1.6-12.5C89,67.8,88.3,65.1,86.8,63.2z M80.4,47.3v13.1c-1.4-0.1-2.7-0.3-4.1-0.4v-2.9   c0-4-3.3-7.3-7.3-7.3h-3.9l1.9-2.6H80.4z M63.3,52.3H69c2.6,0,4.8,2.1,4.8,4.8v2.6c-5.1-0.4-10.2-0.7-15.3-0.8L63.3,52.3z M50,43.5   c2.4,0,4.4,2,4.4,4.4s-2,4.4-4.4,4.4s-4.4-2-4.4-4.4S47.6,43.5,50,43.5z M32.9,41.9c0.1-0.5,0.3-0.9,0.7-1.2c0.8-0.6,2-0.4,2.6,0.4   l10.4,14.3h6.7l10.4-14.3c0.6-0.8,1.8-1,2.6-0.4c0.4,0.3,0.7,0.7,0.7,1.2c0.1,0.5,0,1-0.3,1.4L55.4,58.9c-1.8,0-3.6-0.1-5.4-0.1   c-1.8,0-3.6,0-5.4,0.1L33.2,43.3C32.9,42.9,32.8,42.4,32.9,41.9z M41.6,58.9c-5.1,0.1-10.2,0.4-15.3,0.8v-2.6   c0-2.6,2.1-4.8,4.8-4.8h5.8L41.6,58.9z M33,47.3l1.9,2.6H31c-4,0-7.3,3.3-7.3,7.3V60c-1.4,0.1-2.7,0.2-4.1,0.4V47.3H33z M80.4,85.9   H19.6v-3.7c10.1-1.1,20.3-1.6,30.4-1.6c10.1,0,20.3,0.6,30.4,1.6V85.9z M86.2,70.1l-1.3,10C73.4,78.7,61.6,78,50,78   c-11.6,0-23.4,0.7-34.9,2.1l-1.3-10.1c-0.3-2,0.2-3.9,1.3-5.3c0.6-0.7,1.6-1.6,3.1-1.8c10.5-1.1,21.2-1.7,31.8-1.7   s21.3,0.6,31.8,1.7c1.5,0.2,2.5,1.1,3.1,1.8C86,66.2,86.5,68.1,86.2,70.1z"></path></g><g display="none"><path display="inline" d="M27.3,67.7l-0.2,0l-0.1,0c-2,0-3.9-0.8-5.4-2.3c-2-2-3.1-4.9-3.1-8.1c0-5.4,3.3-9,8.4-9l0.2,0l0.1,0   c5.1,0,8.4,3.5,8.4,9c0,3.2-1.1,6.1-3.1,8.1C31.2,66.9,29.3,67.7,27.3,67.7z M27.1,65l0.2,0c1.3,0,2.5-0.5,3.5-1.6   c1.5-1.5,2.3-3.7,2.3-6.2c0-4-2.1-6.3-5.8-6.3l-0.1,0l-0.2,0c-3.7,0-5.8,2.3-5.8,6.3c0,2.5,0.8,4.7,2.3,6.2c1,1,2.2,1.6,3.5,1.6   L27.1,65z"></path><ellipse display="inline" cx="82.2" cy="55.7" rx="2" ry="3"></ellipse><rect x="61.5" y="54.7" display="inline" width="2" height="2.1"></rect><rect x="57.5" y="54.7" display="inline" width="2" height="2.1"></rect><rect x="65.5" y="54.7" display="inline" width="2" height="2.1"></rect><rect x="69.5" y="54.7" display="inline" width="2" height="2.1"></rect><path display="inline" d="M82.4,42.9C82.4,42.9,82.3,42.9,82.4,42.9l-20.4,0c-2.4,0-4.7,1.4-6.3,3.9c-1.6,2.4-2.4,5.6-2.4,8.9   c0,0.1,0,0.2,0,0.3v23.3c0,0,0,0,0,0c0,0.3,0.1,0.6,0.3,0.8c0.2,0.2,0.5,0.3,0.7,0.3c0.3,0,0.6-0.1,0.8-0.3l1.2-1.3l1.2,1.3   c0.2,0.2,0.5,0.3,0.8,0.3h0c0.3,0,0.6-0.1,0.8-0.3l1.2-1.3l1.2,1.3c0.2,0.2,0.5,0.3,0.8,0.3h0c0.3,0,0.6-0.1,0.8-0.3l1.2-1.3   l1.2,1.3c0.2,0.2,0.5,0.3,0.8,0.3c0,0,0,0,0,0c0.3,0,0.6-0.1,0.8-0.3l1.2-1.3l1.2,1.3c0.2,0.2,0.5,0.3,0.8,0.3h0   c0.3,0,0.6-0.1,0.8-0.3l1.2-1.3l1.2,1.3c0.4,0.4,1.1,0.5,1.5,0c0.2-0.2,0.3-0.5,0.3-0.8c0,0,0,0,0,0V68.6h6.6   c4.9,0,8.7-5.7,8.7-12.9C90.9,48.6,87.2,43.1,82.4,42.9z M73.5,76.6l-0.2-0.2c-0.2-0.2-0.5-0.3-0.8-0.3h0c-0.3,0-0.6,0.1-0.8,0.3   l-1.2,1.3l-1.2-1.3c-0.2-0.2-0.5-0.3-0.8-0.3h0c-0.3,0-0.6,0.1-0.8,0.3l-1.2,1.3l-1.2-1.3c-0.2-0.2-0.5-0.3-0.8-0.3c0,0,0,0,0,0   c-0.3,0-0.6,0.1-0.8,0.3l-1.2,1.3l-1.2-1.3c-0.2-0.2-0.5-0.3-0.8-0.3h0c-0.3,0-0.6,0.1-0.8,0.3l-1.2,1.3l-1.2-1.3   c-0.4-0.4-1.2-0.4-1.6,0l-0.2,0.2V56.8h0v-2.1h0c0.2-2.5,0.9-4.9,2-6.7c1.2-1.9,2.8-3,4.5-3h15.3c-2.1,2.1-3.6,5.6-3.8,9.6h0v0.8   c0,0.1,0,0.2,0,0.3V76.6z M75.6,66.5v-2.2c0.5,0.8,1.1,1.6,1.7,2.2H75.6z M82.2,66.5c-3.6,0-6.6-4.9-6.6-10.7s3-10.7,6.6-10.7   s6.6,4.9,6.6,10.7S85.7,66.5,82.2,66.5z"></path><path display="inline" d="M40.7,43.9c3.3-4.6,5-10.1,4.5-15.4c0-6.1-1.8-11.9-5.2-16.3c-3.4-4.5-8-6.9-12.9-6.9   c-4.9,0-9.5,2.5-12.9,6.9c-3.3,4.4-5.2,10.2-5.2,16.3c0,5.7,1.6,11.2,4.5,15.4c-2.9,3.5-4.5,7.9-4.5,12.6c0,5,1.8,9.6,5.1,13.2   c1.3,6.7,2,14.3,2.1,23.3c0,0.7,0.5,1.2,1.2,1.3c3.2,0.4,6.5,0.6,9.7,0.6c3.3,0,6.6-0.2,9.8-0.6c0.7-0.1,1.2-0.6,1.2-1.3   c0.1-9,0.7-16.6,2-23.3c3.2-3.5,5-8.2,5-13.1C45.2,51.7,43.6,47.3,40.7,43.9z M16.4,13.8c2.9-3.8,6.7-5.9,10.8-5.9   c4,0,7.9,2.1,10.8,5.9c3,3.9,4.6,9.1,4.6,14.8c0.5,6.5-2.3,11.4-4.2,14.1H16c-2.7-3.8-4.2-8.8-4.2-14.2   C11.8,22.9,13.4,17.7,16.4,13.8z M15.9,45.3h22.5c2.7,3,4.1,7,4.1,11.1c0,4.4-1.6,8.5-4.5,11.5c-2.9,3.1-6.8,4.7-10.9,4.7   c-4.1,0-8-1.7-10.9-4.7c-2.9-3.1-4.5-7.2-4.5-11.5C11.8,52.2,13.3,48.3,15.9,45.3z M19,91.7c-0.1-7.3-0.7-13.6-1.6-19.3   c2.9,2,6.2,3,9.8,3c3.5,0,6.9-1.1,9.8-3c-0.9,5.8-1.4,12.1-1.5,19.3C30,92.3,24.5,92.3,19,91.7z"></path></g><g display="none"><g display="inline"><g><path d="M39,94.7c-1.6,0-3.3-0.1-4.9-0.4c-7.3-1.3-13.7-5.4-18-11.5c-4.3-6.1-5.9-13.5-4.6-20.8c2.4-13.4,13.9-23.1,27.4-23.1     c1.6,0,3.3,0.1,4.9,0.4C58.9,42,69.1,56.5,66.4,71.6C64.1,85,52.5,94.7,39,94.7z M38.9,41.6c-12.2,0-22.7,8.8-24.8,20.8     c-1.2,6.6,0.3,13.3,4.2,18.8c3.9,5.5,9.6,9.2,16.3,10.4C36,91.9,37.5,92,39,92c12.2,0,22.7-8.8,24.8-20.8     C66.2,57.5,57,44.4,43.3,42C41.9,41.7,40.4,41.6,38.9,41.6z"></path></g><g><path d="M39,87.7c-1.2,0-2.4-0.1-3.7-0.3c-11.3-2-19-12.9-17-24.2c1.8-10,10.4-17.3,20.6-17.3c1.2,0,2.4,0.1,3.7,0.3     c5.5,1,10.3,4,13.5,8.6c3.2,4.6,4.4,10.1,3.5,15.6C57.8,80.4,49.1,87.7,39,87.7z M38.9,48.6c-8.8,0-16.4,6.3-17.9,15.1     c-1.7,9.9,4.9,19.4,14.8,21.1c1.1,0.2,2.1,0.3,3.2,0.3c8.8,0,16.4-6.3,17.9-15.1c0.8-4.8-0.2-9.6-3-13.6c-2.8-4-7-6.6-11.8-7.5     C41,48.7,40,48.6,38.9,48.6z"></path></g><g><g><path d="M50.7,42.5c-2.4,0-4.9-0.2-7.3-0.7c-7.2-1.3-13.7-4.3-18.3-8.5c-4.7-4.3-6.9-9.4-6-14.3C20.4,11,30,5.3,42.3,5.3      c2.4,0,4.9,0.2,7.3,0.7C64.8,8.6,75.7,18.9,74,28.7C72.5,36.8,63,42.5,50.7,42.5z M42.3,8c-11,0-19.5,4.7-20.7,11.5      c-0.7,4,1.1,8.2,5.2,11.9c4.2,3.8,10.2,6.6,17,7.8c2.3,0.4,4.6,0.6,6.9,0.6c11,0,19.5-4.7,20.7-11.5c1.5-8.4-8.4-17.3-22.1-19.7      C46.9,8.2,44.6,8,42.3,8z"></path></g><g><path d="M49.6,38c-1.8,0-3.6-0.2-5.5-0.5c-5.4-1-10.2-3.2-13.7-6.3c-3.6-3.3-5.2-7.1-4.5-10.9C27,14.1,34.2,9.8,43.4,9.8      c1.8,0,3.6,0.2,5.5,0.5c5.4,1,10.2,3.2,13.7,6.3c3.6,3.3,5.2,7.1,4.5,10.9C66,33.7,58.8,38,49.6,38z M43.4,12.5      c-7.9,0-14,3.4-14.9,8.2c-0.5,2.8,0.8,5.8,3.7,8.4c3,2.8,7.4,4.8,12.3,5.7c1.7,0.3,3.4,0.4,5,0.4c7.9,0,14-3.4,14.9-8.2      c0.5-2.8-0.8-5.8-3.7-8.4c-3-2.8-7.4-4.8-12.3-5.7C46.7,12.7,45.1,12.5,43.4,12.5z"></path></g><g><path fill="#000000" d="M50.4,32.8c-1.7,0.2-3.6,0.1-5.4-0.3"></path><path d="M48.7,34.3c-1.3,0-2.6-0.1-3.9-0.4c-0.7-0.1-1.2-0.8-1.1-1.6c0.1-0.7,0.8-1.2,1.6-1.1c1.7,0.3,3.4,0.4,5.1,0.2      c0.7-0.1,1.4,0.5,1.5,1.2c0.1,0.7-0.5,1.4-1.2,1.5C49.9,34.2,49.3,34.3,48.7,34.3z"></path></g><g><path fill="#000000" d="M60.2,26.3c-0.2,1.2-0.8,2.3-1.7,3.2c-0.9,0.9-2,1.7-3.4,2.2"></path><path d="M55.1,33.1c-0.5,0-1-0.3-1.2-0.8c-0.3-0.7,0-1.5,0.7-1.8c1.2-0.5,2.2-1.2,3-1.9c0.7-0.7,1.2-1.6,1.3-2.5      c0.1-0.7,0.8-1.2,1.6-1.1c0.7,0.1,1.2,0.8,1.1,1.6c-0.3,1.4-0.9,2.7-2,3.9c-1,1-2.3,1.9-3.9,2.6C55.4,33.1,55.2,33.1,55.1,33.1z      "></path></g></g></g><path display="inline" d="M85.9,70.6L85.9,70.6l-0.6-3.5L84.6,63l0,0l-0.3-1.4c-0.1-0.7-0.8-1.2-1.6-1.1l-1.5-8.3   c-0.4-2.4-2.6-4-4.9-3.8l-3.4,10l0.7,3.8l0,0c-0.4,0.1-0.7,0.3-0.9,0.6c-0.2,0.3-0.3,0.7-0.2,1l1.1,6L77,88.6   c0.1,0.7,0.7,1.1,1.3,1.1c0.1,0,0.2,0,0.2,0l9.1-1.6c0.4-0.1,0.7-0.3,0.9-0.6c0.2-0.3,0.3-0.7,0.2-1L85.9,70.6z M76.6,70.9L75.7,66   l6.5-1.1l0.9,4.9L76.6,70.9z M79.4,86.9L77,73.5l6.5-1.1l2.3,13.3L79.4,86.9z"></path></g><g display="none"><path display="inline" d="M88,50.7l-30.3-5.4l-2.7-17.1l8-18.3C63,9.6,63,9.2,62.8,8.8s-0.5-0.6-0.9-0.6l-16-2.1   c-0.4,0-0.8,0.1-1,0.3c-0.3,0.3-0.4,0.6-0.4,1c0.4,5.1-2.3,8.4-7.4,8.8c-5.1,0.5-8.4-2.3-8.8-7.4c0-0.4-0.2-0.7-0.5-0.9   c-0.3-0.2-0.7-0.3-1.1-0.2l-15.4,4.8c-0.4,0.1-0.7,0.4-0.8,0.8c-0.1,0.4-0.1,0.8,0.1,1.1l10.9,16.6l0.6,31.5c0,0.3,0.2,0.7,0.4,0.9   c0.2,0.2,0.5,0.3,0.8,0.3c0,0,0.1,0,0.1,0l26-2.3l-7.3,23.2c-0.1,0.3-0.1,0.7,0.1,1c0.2,0.3,0.5,0.5,0.9,0.6l41.7,7.3   c0.1,0,0.1,0,0.2,0c0.3,0,0.6-0.1,0.8-0.3c0.3-0.2,0.5-0.6,0.5-0.9l1.5-33.2l1.3-7.4C89.1,51.4,88.6,50.8,88,50.7z M47,8.8l2.9,0.4   c0,1.4-0.2,4.4-2.2,6.2c-1.2,1.1-2.9,1.6-5,1.6C45.4,15.3,46.9,12.4,47,8.8z M25.9,10.6c0.7,3.5,2.7,6.1,5.7,7.4   c-2,0.3-3.6,0.1-4.9-0.7c-2.4-1.5-3.1-4.5-3.3-5.8L25.9,10.6z M24.5,61.3l-0.6-30.6c0-0.2-0.1-0.5-0.2-0.7L13.5,14.5l7.5-2.4   c0.3,1.9,1.3,5.3,4.4,7.2c1.4,0.8,2.9,1.3,4.7,1.3c1.6,0,3.3-0.3,5.2-1l-5.6,19.9c-0.1,0.5,0.1,1.1,0.5,1.4l5.7,4   c0.2,0.1,0.5,0.2,0.7,0.2c0.2,0,0.4,0,0.6-0.1c0.4-0.2,0.7-0.6,0.7-1.1L38,29l2.9,14.6c0.1,0.5,0.4,0.8,0.9,1   c0.1,0,0.2,0.1,0.4,0.1c0.3,0,0.6-0.1,0.9-0.4l5-4.9c0.4-0.4,0.5-1,0.2-1.4l-9.3-18.8c1.3,0.3,2.6,0.4,3.8,0.4   c2.8,0,5.1-0.7,6.7-2.2c2.6-2.3,3-5.8,3-7.8l7.5,1l-7.5,17.1c-0.1,0.2-0.1,0.5-0.1,0.7L55,44.8l-0.2,0c-0.3-0.1-0.7,0-0.9,0.2   c-0.3,0.2-0.5,0.5-0.5,0.8l-1.3,7.4l-1.9,5.9L24.5,61.3z M35.5,28l-0.1,13.5l-3.1-2.1L35.5,28z M40.3,27.6l5.3,10.6l-2.7,2.6   L40.3,27.6z M44.9,84.3L54.1,55l4.4,0.8l-8.9,29.4L44.9,84.3z M52.2,85.6l8.9-29.4l4.6,0.8l-8.9,29.4L52.2,85.6z M69.7,88.7   l-10.4-1.8l8.9-29.4l3.2,0.6L69.7,88.7z M77,90l-4.9-0.9l1.7-30.7l4.9,0.9L77,90z M83.8,91.2l-4.2-0.7l1.7-30.7l3.9,0.7L83.8,91.2z    M85.4,57.9l-30.7-5.4l0.9-5l30.7,5.4L85.4,57.9z"></path></g><g display="none"><path display="inline" d="M78.8,62.4c-8.1,0-14.8,6.3-15.5,14.2h-2.5c-0.4-2.4-2-4.5-4.1-5.6l3-9.5c0-0.1,0-0.2,0-0.3h3.4   c2.4,0,4.3-1.9,4.3-4.3c0-2.4-1.9-4.3-4.3-4.3h-7.2c-2.4,0-4.3,1.9-4.3,4.3c0,2.4,1.9,4.3,4.3,4.3h1l-1.3,3.9l-26.6-7.8l3.8-11.8   h7.7c0.8,0,1.4-0.6,1.4-1.4s-0.6-1.4-1.4-1.4h-8.7c-0.6,0-1.1,0.4-1.3,1l-6.1,19c-1.1-0.2-2.2-0.4-3.4-0.4c-8.6,0-15.6,7-15.6,15.6   s7,15.6,15.6,15.6s15.6-7,15.6-15.6c0-6.5-3.9-12-9.5-14.4l1.2-3.6l26.6,7.8l-0.8,2.3c-0.3,0-0.7-0.1-1.1-0.1   c-4.4,0-7.9,3.6-7.9,7.9S48.7,86,53,86c3.9,0,7.1-2.8,7.8-6.5h2.5c0.7,8,7.4,14.2,15.5,14.2c8.6,0,15.6-7,15.6-15.6   S87.4,62.4,78.8,62.4z M54.4,57c0-0.9,0.7-1.5,1.5-1.5h7.2c0.9,0,1.5,0.7,1.5,1.5s-0.7,1.5-1.5,1.5h-7.2   C55.1,58.5,54.4,57.8,54.4,57z M33.8,78c0,7.1-5.8,12.8-12.8,12.8c-7.1,0-12.8-5.8-12.8-12.8c0-7.1,5.8-12.8,12.8-12.8   c0.9,0,1.7,0.1,2.6,0.3l-3.9,12.1c-0.2,0.7,0.2,1.5,0.9,1.7c0.1,0,0.3,0.1,0.4,0.1c0.6,0,1.1-0.4,1.3-1l3.9-12.1   C30.7,68.3,33.8,72.8,33.8,78z M53,83.2c-2.8,0-5.2-2.3-5.2-5.2c0-2.8,2.3-5.2,5.2-5.2c0.1,0,0.1,0,0.2,0l-1.5,4.7   c-0.1,0.4-0.1,0.9,0.2,1.2c0.3,0.4,0.7,0.6,1.1,0.6H58C57.4,81.6,55.4,83.2,53,83.2z M54.9,76.7l0.9-2.9c1,0.7,1.8,1.7,2.1,2.9   H54.9z M78.8,90.9c-6.6,0-12.1-5-12.8-11.4h12.8c0.8,0,1.4-0.6,1.4-1.4c0-0.8-0.6-1.4-1.4-1.4H66c0.7-6.4,6.1-11.4,12.8-11.4   c7.1,0,12.8,5.8,12.8,12.8C91.6,85.1,85.9,90.9,78.8,90.9z"></path><path display="inline" d="M51.4,22.1c-4.4,0-7.9-3.6-7.9-7.9s3.6-7.9,7.9-7.9s7.9,3.6,7.9,7.9S55.7,22.1,51.4,22.1z M51.4,9   c-2.8,0-5.2,2.3-5.2,5.2s2.3,5.2,5.2,5.2s5.2-2.3,5.2-5.2S54.2,9,51.4,9z"></path><path display="inline" d="M62.3,48.7C62.3,48.6,62.3,48.6,62.3,48.7L62.3,48.7C62.3,48.6,62.3,48.6,62.3,48.7   C62.3,48.7,62.3,48.7,62.3,48.7l-1-18.9c0-3.6-2.9-6.6-6.6-6.6c-2.9,0-5.4,1.9-6.2,4.6c0,0,0,0-0.1,0.1l-4.3,8.3l-7.8,4.1   c-0.9,0.4-1.5,1.2-1.9,2.1c-0.4,0.9-0.3,2,0.1,2.9c0.6,1.3,2,2.2,3.4,2.2c0.5,0,1.1-0.1,1.5-0.3l0.1,0l0.1,0l8.9-4.6   c0.7-0.3,1.3-0.9,1.7-1.6l0.4-0.7l1.9,7.9l-9.6,4c-1,0.3-1.8,1-2.3,1.9c-0.5,1-0.5,2.1-0.1,3.2l8.9,22.1l0,0.1l0,0.1   c0.6,1.3,2,2.2,3.4,2.2c0.5,0,1.1-0.1,1.6-0.3c0.9-0.4,1.6-1.2,2-2.1c0.3-0.9,0.3-1.9-0.1-2.8l-7.4-18.4l10.7-4.7   c0.9-0.3,1.6-0.8,2.1-1.6C62.4,50.6,62.6,49.6,62.3,48.7z"></path><path display="inline" fill="#000000" d="M59.9,49.2l-0.2-2.3l-0.1-1l-0.9-16c0-2.3-1.8-4.1-4-4.1c-1.9,0-3.6,1.4-4,3.2   c0,0-0.1,0.1-0.1,0.1l-4.6,9l-8.6,4.5c-0.6,0.3-0.9,1-0.6,1.7c0.2,0.5,0.7,0.7,1.1,0.7c0.2,0,0.3,0,0.5-0.1l9-4.6   c0.3-0.1,0.5-0.3,0.6-0.6l3.4-6.7c0.4-0.7,1.1-0.7,1.1-0.7l0,0c0,0,0,0,0,0c0.7,0,1.3,0.6,1.3,1.3c0,0.3-0.1,0.5-0.2,0.7   c0,0,0,0,0,0l-1.3,2.4l2.3,9.7l0.5,1.9c0,0.1,0.1,0.3,0.1,0.4c0,0.3-0.1,0.5-0.3,0.7c-0.1,0.2-0.3,0.3-0.5,0.4l-0.1,0l-10.7,4.4   c-0.4,0.1-0.7,0.3-0.8,0.7c-0.2,0.3-0.2,0.7,0,1.1l9,22.1c0.2,0.5,0.7,0.7,1.1,0.7c0.2,0,0.4,0,0.5-0.1c0.6-0.3,0.9-1,0.6-1.7   l-8.3-20.7L59,50.7C59.6,50.5,60.1,49.8,59.9,49.2z"></path><path display="inline" d="M89.4,40H74.6c-1.9,0-3.4,1.2-4.1,2.9c-12.3-0.9-16.7-7.8-16.9-8.1c-0.4-0.7-1.2-0.9-1.9-0.5   c-0.7,0.4-0.9,1.2-0.5,1.9c0.2,0.4,5.3,8.5,19.2,9.5c0.6,1.7,2.2,3,4.1,3h14.8c0.8,0,1.4-0.6,1.4-1.4v-5.9   C90.8,40.7,90.2,40,89.4,40z M88,45.9H74.6c-0.9,0-1.6-0.7-1.6-1.6s0.7-1.6,1.6-1.6H88V45.9z"></path></g><g display="none"><g display="inline"><path d="M31.7,55.8H14.1c-1.8,0-3.3-1.5-3.3-3.3V33.9c0-1.8,1.5-3.3,3.3-3.3h17.6c1.8,0,3.3,1.5,3.3,3.3v18.6    C35,54.3,33.5,55.8,31.7,55.8z M14.1,33.1c-0.4,0-0.8,0.3-0.8,0.8v18.6c0,0.4,0.3,0.8,0.8,0.8h17.6c0.4,0,0.8-0.3,0.8-0.8V33.9    c0-0.4-0.3-0.8-0.8-0.8H14.1z"></path></g><path display="inline" fill="#000000" d="M59,54.5H41.4c-1.1,0-2-0.9-2-2"></path><g display="inline"><path d="M86.2,55.8H68.6c-1.8,0-3.3-1.5-3.3-3.3V33.9c0-1.8,1.5-3.3,3.3-3.3h17.6c1.8,0,3.3,1.5,3.3,3.3v18.6    C89.4,54.3,88,55.8,86.2,55.8z M68.6,33.1c-0.4,0-0.8,0.3-0.8,0.8v18.6c0,0.4,0.3,0.8,0.8,0.8h17.6c0.4,0,0.8-0.3,0.8-0.8V33.9    c0-0.4-0.3-0.8-0.8-0.8H68.6z"></path></g><circle display="inline" fill="#000000" cx="50.2" cy="39.1" r="3.6"></circle><g display="inline"><path fill="#000000" d="M56.6,54.5v-4.8c0-2.2-1.7-4-3.8-4h-5.2c-2.1,0-3.8,1.8-3.8,4v4.8H56.6z"></path><g><path d="M59,30.6H41.4c-1.8,0-3.3,1.5-3.3,3.3v18.6c0,1.8,1.5,3.3,3.3,3.3h2.3c0,0,0,0,0.1,0h12.9c0,0,0,0,0.1,0H59     c1.8,0,3.3-1.5,3.3-3.3V33.9C62.2,32.1,60.8,30.6,59,30.6z M40.6,52.5V33.9c0-0.4,0.3-0.8,0.8-0.8H59c0.4,0,0.8,0.3,0.8,0.8v18.6     c0,0.4-0.3,0.8-0.8,0.8h-1.1v-3.5c0-2.9-2.3-5.3-5.1-5.3h-5.2c-2.8,0-5.1,2.4-5.1,5.3v3.5h-1.1C40.9,53.3,40.6,52.9,40.6,52.5z      M45,53.3v-3.5c0-1.5,1.2-2.8,2.6-2.8h5.2c1.4,0,2.6,1.2,2.6,2.8v3.5H45z"></path><path d="M55,39.1c0-2.7-2.2-4.8-4.8-4.8s-4.8,2.2-4.8,4.8s2.2,4.8,4.8,4.8S55,41.7,55,39.1z M47.8,39.1c0-1.3,1-2.3,2.3-2.3     s2.3,1,2.3,2.3s-1,2.3-2.3,2.3S47.8,40.3,47.8,39.1z"></path></g></g><path display="inline" d="M76.6,80.6c3.1-1.5,5.2-4.6,5.2-8.3c0-0.1,0-0.3,0-0.4H91c1.8,0,3.3-1.5,3.3-3.3V27.1   c0-1.8-1.5-3.3-3.3-3.3H79.1l3.3-3.3c0.4-0.4,0.5-1,0.2-1.5l-4.2-6.9c-0.2-0.4-0.6-0.6-1.1-0.6c-0.4,0-0.8,0.2-1.1,0.6l-4.1,6.8   c-0.3,0.5-0.2,1.1,0.2,1.5l3.4,3.4h-51l3.3-3.3c0.4-0.4,0.5-1,0.2-1.5l-4.2-6.9c-0.2-0.4-0.7-0.6-1.1-0.6c-0.4,0-0.8,0.2-1.1,0.6   l-4.1,6.8c-0.3,0.5-0.2,1.1,0.2,1.5l3.4,3.4H9.5c-1.8,0-3.3,1.5-3.3,3.3v41.6c0,1.8,1.5,3.3,3.3,3.3h7.1c0,0.1,0,0.3,0,0.4   c0,3.7,2.1,6.8,5.2,8.3H6.2v2.5h88.1v-2.5H76.6z M77.3,15.2l2.6,4.3L77.4,22l-2.6-2.6L77.3,15.2z M22.9,15.2l2.6,4.3L23,22   l-2.6-2.6L22.9,15.2z M79.3,72.3c0,3.7-3,6.7-6.7,6.7s-6.7-3-6.7-6.7c0-0.1,0-0.3,0-0.4h13.4C79.3,72.1,79.3,72.2,79.3,72.3z    M9.5,26.3H91c0.4,0,0.8,0.3,0.8,0.8v35.3h-83V27.1C8.7,26.7,9.1,26.3,9.5,26.3z M8.7,68.7v-3.8h83v3.8c0,0.4-0.3,0.8-0.8,0.8H9.5   C9.1,69.4,8.7,69.1,8.7,68.7z M19,72.3c0-0.1,0-0.3,0-0.4h13.4c0,0.1,0,0.3,0,0.4c0,3.7-3,6.7-6.7,6.7S19,76,19,72.3z M35,72.3   c0-0.1,0-0.3,0-0.4h28.4c0,0.1,0,0.3,0,0.4c0,3.7,2.1,6.8,5.2,8.3H29.8C32.9,79.1,35,76,35,72.3z"></path></g><g display="none"><rect x="12.9" y="25.2" display="inline" fill="#000000" width="74.3" height="50.5"></rect><g display="inline"><g><path fill="#000000" d="M28,38.8h-8.1c-0.7,0-1.3-0.6-1.3-1.3v-6.2c0-0.7,0.6-1.3,1.3-1.3H28c0.7,0,1.3,0.6,1.3,1.3v6.2     C29.3,38.2,28.7,38.8,28,38.8z M21.2,36.2h5.6v-3.6h-5.6V36.2z"></path></g><g><path fill="#000000" d="M41.1,38.8h-8.1c-0.7,0-1.3-0.6-1.3-1.3v-6.2c0-0.7,0.6-1.3,1.3-1.3h8.1c0.7,0,1.3,0.6,1.3,1.3v6.2     C42.3,38.2,41.8,38.8,41.1,38.8z M34.2,36.2h5.6v-3.6h-5.6V36.2z"></path></g><g><path fill="#000000" d="M54.1,38.8h-8.1c-0.7,0-1.3-0.6-1.3-1.3v-6.2c0-0.7,0.6-1.3,1.3-1.3h8.1c0.7,0,1.3,0.6,1.3,1.3v6.2     C55.3,38.2,54.8,38.8,54.1,38.8z M47.2,36.2h5.6v-3.6h-5.6V36.2z"></path></g><g><path fill="#000000" d="M67.1,38.8h-8.1c-0.7,0-1.3-0.6-1.3-1.3v-6.2c0-0.7,0.6-1.3,1.3-1.3h8.1c0.7,0,1.3,0.6,1.3,1.3v6.2     C68.4,38.2,67.8,38.8,67.1,38.8z M60.2,36.2h5.6v-3.6h-5.6V36.2z"></path></g><g><path fill="#000000" d="M80.1,38.8H72c-0.7,0-1.3-0.6-1.3-1.3v-6.2c0-0.7,0.6-1.3,1.3-1.3h8.1c0.7,0,1.3,0.6,1.3,1.3v6.2     C81.4,38.2,80.8,38.8,80.1,38.8z M73.2,36.2h5.6v-3.6h-5.6V36.2z"></path></g></g><g display="inline"><g><path fill="#000000" d="M28,49.7h-8.1c-0.7,0-1.3-0.6-1.3-1.3v-6.2c0-0.7,0.6-1.3,1.3-1.3H28c0.7,0,1.3,0.6,1.3,1.3v6.2     C29.3,49.1,28.7,49.7,28,49.7z M21.2,47.2h5.6v-3.6h-5.6V47.2z"></path></g><g><path fill="#000000" d="M41.1,49.7h-8.1c-0.7,0-1.3-0.6-1.3-1.3v-6.2c0-0.7,0.6-1.3,1.3-1.3h8.1c0.7,0,1.3,0.6,1.3,1.3v6.2     C42.3,49.1,41.8,49.7,41.1,49.7z M34.2,47.2h5.6v-3.6h-5.6V47.2z"></path></g><g><path fill="#000000" d="M54.1,49.7h-8.1c-0.7,0-1.3-0.6-1.3-1.3v-6.2c0-0.7,0.6-1.3,1.3-1.3h8.1c0.7,0,1.3,0.6,1.3,1.3v6.2     C55.3,49.1,54.8,49.7,54.1,49.7z M47.2,47.2h5.6v-3.6h-5.6V47.2z"></path></g><g><path fill="#000000" d="M67.1,49.7h-8.1c-0.7,0-1.3-0.6-1.3-1.3v-6.2c0-0.7,0.6-1.3,1.3-1.3h8.1c0.7,0,1.3,0.6,1.3,1.3v6.2     C68.4,49.1,67.8,49.7,67.1,49.7z M60.2,47.2h5.6v-3.6h-5.6V47.2z"></path></g><g><path fill="#000000" d="M80.1,49.7H72c-0.7,0-1.3-0.6-1.3-1.3v-6.2c0-0.7,0.6-1.3,1.3-1.3h8.1c0.7,0,1.3,0.6,1.3,1.3v6.2     C81.4,49.1,80.8,49.7,80.1,49.7z M73.2,47.2h5.6v-3.6h-5.6V47.2z"></path></g></g><g display="inline"><g><path fill="#000000" d="M28,60.7h-8.1c-0.7,0-1.3-0.6-1.3-1.3v-6.2c0-0.7,0.6-1.3,1.3-1.3H28c0.7,0,1.3,0.6,1.3,1.3v6.2     C29.3,60.1,28.7,60.7,28,60.7z M21.2,58.1h5.6v-3.6h-5.6V58.1z"></path></g><g><path fill="#000000" d="M41.1,60.7h-8.1c-0.7,0-1.3-0.6-1.3-1.3v-6.2c0-0.7,0.6-1.3,1.3-1.3h8.1c0.7,0,1.3,0.6,1.3,1.3v6.2     C42.3,60.1,41.8,60.7,41.1,60.7z M34.2,58.1h5.6v-3.6h-5.6V58.1z"></path></g><g><path fill="#000000" d="M54.1,60.7h-8.1c-0.7,0-1.3-0.6-1.3-1.3v-6.2c0-0.7,0.6-1.3,1.3-1.3h8.1c0.7,0,1.3,0.6,1.3,1.3v6.2     C55.3,60.1,54.8,60.7,54.1,60.7z M47.2,58.1h5.6v-3.6h-5.6V58.1z"></path></g><g><path fill="#000000" d="M67.1,60.7h-8.1c-0.7,0-1.3-0.6-1.3-1.3v-6.2c0-0.7,0.6-1.3,1.3-1.3h8.1c0.7,0,1.3,0.6,1.3,1.3v6.2     C68.4,60.1,67.8,60.7,67.1,60.7z M60.2,58.1h5.6v-3.6h-5.6V58.1z"></path></g><g><path fill="#000000" d="M80.1,60.7H72c-0.7,0-1.3-0.6-1.3-1.3v-6.2c0-0.7,0.6-1.3,1.3-1.3h8.1c0.7,0,1.3,0.6,1.3,1.3v6.2     C81.4,60.1,80.8,60.7,80.1,60.7z M73.2,58.1h5.6v-3.6h-5.6V58.1z"></path></g></g><line display="inline" fill="#000000" x1="5.2" y1="75.7" x2="94.8" y2="75.7"></line><rect x="40" y="67.4" display="inline" fill="#000000" width="19.9" height="8.3"></rect><g display="inline"><rect x="50" y="68.1" fill="#000000" width="0" height="7.6"></rect><path fill="#000000" d="M88.4,74.4V25.2c0-0.7-0.6-1.3-1.3-1.3H12.9c-0.7,0-1.3,0.6-1.3,1.3v49.2H5.2V77h7.7H40H60h27.2h7.7v-2.6    H88.4z M41.3,74.4v-5.8h7.4v5.8H41.3z M51.3,74.4v-5.8h7.4v5.8H51.3z M61.2,74.4v-7.1c0-0.7-0.6-1.3-1.3-1.3H40    c-0.7,0-1.3,0.6-1.3,1.3v7.1H14.1V26.5h71.7v47.9H61.2z"></path></g></g><g display="none"><path display="inline" d="M66.1,23c-4.8,0-8.7-3.9-8.7-8.7s3.9-8.7,8.7-8.7s8.7,3.9,8.7,8.7S70.9,23,66.1,23z M66.1,8.3   c-3.2,0-5.9,2.6-5.9,5.9s2.6,5.9,5.9,5.9c3.2,0,5.9-2.6,5.9-5.9S69.3,8.3,66.1,8.3z"></path><path display="inline" fill="#000000" d="M37.1,89.8c-0.2,0-0.5-0.1-0.7-0.2c-0.6-0.4-0.8-1.2-0.4-1.8l16.2-26   c0.2-0.3,0.4-0.5,0.8-0.6l18.3-5.2c0.7-0.2,1.4,0.2,1.6,0.9c0.2,0.7-0.2,1.4-0.9,1.6l-17.8,5l-16,25.6C38,89.6,37.6,89.8,37.1,89.8   z"></path><path display="inline" fill="#000000" d="M69.6,25"></path><path display="inline" fill="#000000" d="M68.8,31.4"></path><path display="inline" d="M74.8,73.2h11.4c0.7,0,1.3-0.5,1.4-1.3l0.8-7.3l2.1-20.4c0,0,0-0.1,0-0.1c0-2.8-2.3-5.1-5.1-5.1   c-2.8,0-5,2.2-5.1,5L78.5,63H59.9c-0.8,0-1.4,0.6-1.4,1.4v7.3c0,0.8,0.6,1.4,1.4,1.4H72v6.6l-6.8,5.7c-0.8-0.4-1.6-0.7-2.6-0.7   c-2.8,0-5.1,2.3-5.1,5.1c0,2.8,2.3,5.1,5.1,5.1c2.8,0,5.1-2.3,5.1-5.1c0-0.8-0.2-1.6-0.6-2.3l6.3-5.3l6.5,5.4   c-0.3,0.6-0.5,1.4-0.5,2.1c0,2.8,2.3,5.1,5.1,5.1c2.8,0,5.1-2.3,5.1-5.1c0-2.8-2.3-5.1-5.1-5.1c-1,0-1.9,0.3-2.7,0.8l-6.9-5.8V73.2   z M61.3,65.9h18.5c0.7,0,1.3-0.6,1.4-1.3l2.1-20.4c0,0,0-0.1,0-0.1c0-1.2,1-2.2,2.2-2.2c1.2,0,2.2,1,2.2,2.2l-2.1,20.3l-0.7,6H61.3   V65.9z M62.6,92c-1.2,0-2.2-1-2.2-2.2c0-1.2,1-2.2,2.2-2.2c1.2,0,2.2,1,2.2,2.2C64.8,91.1,63.8,92,62.6,92z M84.5,87.6   c1.2,0,2.2,1,2.2,2.2c0,1.2-1,2.2-2.2,2.2c-1.2,0-2.2-1-2.2-2.2C82.2,88.6,83.2,87.6,84.5,87.6z"></path><path display="inline" d="M23,6.5h-6c-0.8,0-1.4,0.6-1.4,1.4v14h-2.1c-0.7,0-1.3,0.5-1.4,1.3L9.4,44.7c0,0.4,0.1,0.8,0.3,1.1   c0.3,0.3,0.7,0.5,1.1,0.5h10.7c0.8,0,1.4-0.6,1.4-1.4s-0.6-1.4-1.4-1.4h-9.1l2.3-18.7h0.8v14c0,0.8,0.6,1.4,1.4,1.4h6   c0.8,0,1.4-0.6,1.4-1.4V8C24.4,7.2,23.8,6.5,23,6.5z M21.6,37.3h-3.1V9.4h3.1V37.3z"></path><path display="inline" d="M71.7,24.2c-1.7,0-3.3,0.7-4.6,1.7l0,0L50.9,38.4l-13.8,0c-2.1,0-3.9,1.7-3.9,3.9c0,2.2,1.7,3.9,3.9,3.9   l15.2,0c0.9,0,1.8-0.3,2.5-0.9l9.9-7.7l1.6,17.2l-14,4c-0.6,0.2-1.1,0.4-1.5,0.8v-2.3h5.3c0.8,0,1.4-0.6,1.4-1.4v-7.1   c0-0.8-0.6-1.4-1.4-1.4H10.8c-0.8,0-1.4,0.6-1.4,1.4v7.1c0,0.8,0.6,1.4,1.4,1.4h5.3V93c0,0.8,0.6,1.4,1.4,1.4h6.3   c0.8,0,1.4-0.6,1.4-1.4l0-6.2h8.3c-0.4,0.8-0.5,1.7-0.3,2.6c0.2,1,0.9,1.9,1.7,2.4c0.6,0.4,1.3,0.6,2.1,0.6c1.4,0,2.6-0.7,3.3-1.8   l1.1-1.8l0,4.2c0,0.4,0.2,0.7,0.4,1c0.3,0.3,0.6,0.4,1,0.4h6.4c0.8,0,1.4-0.6,1.4-1.4V74l5.1-8.1l16.9-4.8c1.4-0.4,2.4-1.5,2.7-2.8   c0-0.1,0.1-0.2,0.1-0.3l0-0.1c0,0,0-0.1,0-0.1l2.8-25.2c0.1-0.5,0.2-1,0.2-1.5C78.6,27.3,75.5,24.2,71.7,24.2z M37.1,89.8   c-0.2,0-0.5-0.1-0.7-0.2c-0.6-0.4-0.8-1.2-0.4-1.8l0.7-1h3.1l-1.5,2.4C38,89.6,37.6,89.8,37.1,89.8z M47.9,55.8v35.7h-3.5l0-6.2   c0-0.4-0.2-0.7-0.4-1c-0.3-0.3-0.6-0.4-1-0.4H23.9c-0.8,0-1.4,0.6-1.4,1.4l0,6.2H19V55.8c0-0.8-0.6-1.4-1.4-1.4h-5.3v-4.3h42.4v4.3   h-5.3C48.6,54.4,47.9,55.1,47.9,55.8z M75.8,32c0,0,0,0.1,0,0.1L73,57.4l0,0c0,0.5-0.4,1-0.9,1.2l-17.8,5l-3.4,5.4v-4.9l1.5-2.3   c0.2-0.3,0.4-0.5,0.8-0.6L68.1,57v0c0.8-0.4,0.9-0.9,0.9-1.2l-1.9-20.1l2.6-2l0,0c0.3-0.2,0.5-0.6,0.5-1c0-0.6-0.4-1.1-1-1.2   c-0.1,0-0.2-0.1-0.3-0.1c-0.2,0-0.4,0.1-0.6,0.2l0,0l-15,11.6c-0.2,0.2-0.5,0.3-0.9,0.3c0,0,0,0,0,0l-15.2,0   c-0.7,0-1.3-0.6-1.3-1.3c0-0.7,0.6-1.3,1.3-1.3c0,0,0,0,0,0l14.7,0l16.9-13c0.1-0.1,0.1-0.1,0.2-0.1c0.7-0.6,1.7-1,2.7-1   c2.4,0,4.3,1.9,4.3,4.3C75.9,31.4,75.9,31.7,75.8,32z"></path></g><g display="none"><path display="inline" d="M87.4,82.6c-0.3-0.3-0.6-0.4-1-0.4L13.8,84c-0.8,0-1.4,0.6-1.4,1.4v6.3c0,0.8,0.6,1.4,1.4,1.4l72.6,1.9   c0,0,0,0,0,0c0.4,0,0.7-0.1,1-0.4c0.3-0.3,0.4-0.6,0.4-1v-9.9C87.9,83.2,87.7,82.9,87.4,82.6z M85,85.1v2.1H15.3v-0.4L85,85.1z    M15.3,90.3V90H85v2.1L15.3,90.3z"></path><g display="inline"><path fill="#000000" d="M44.2,74.6H14.3c-3.3,0-6-2.7-6-6V17.8c0-3.3,2.7-6,6-6h29.9c3.3,0,6,2.7,6,6v50.8    C50.2,71.9,47.5,74.6,44.2,74.6z"></path><path d="M43.4,76.1H15.1c-4.5,0-8.2-3.7-8.2-8.2V18.6c0-4.5,3.7-8.2,8.2-8.2h28.3c4.5,0,8.2,3.7,8.2,8.2v49.2    C51.6,72.4,47.9,76.1,43.4,76.1z M15.1,13.2c-3,0-5.4,2.4-5.4,5.4v49.2c0,3,2.4,5.4,5.4,5.4h28.3c3,0,5.4-2.4,5.4-5.4V18.6    c0-3-2.4-5.4-5.4-5.4H15.1z"></path></g><g display="inline"><path fill="#000000" d="M86.1,74.6H56.1c-3.3,0-6-2.7-6-6V17.8c0-3.3,2.7-6,6-6h29.9c3.3,0,6,2.7,6,6v50.8    C92.1,71.9,89.4,74.6,86.1,74.6z"></path><path d="M85.2,76.1H57c-4.5,0-8.2-3.7-8.2-8.2V18.6c0-4.5,3.7-8.2,8.2-8.2h28.3c4.5,0,8.2,3.7,8.2,8.2v49.2    C93.5,72.4,89.8,76.1,85.2,76.1z M57,13.2c-3,0-5.4,2.4-5.4,5.4v49.2c0,3,2.4,5.4,5.4,5.4h28.3c3,0,5.4-2.4,5.4-5.4V18.6    c0-3-2.4-5.4-5.4-5.4H57z"></path></g><circle display="inline" cx="71.1" cy="43.2" r="4"></circle><path display="inline" d="M68.4,35.7c-0.8,0-1.4-0.6-1.4-1.4c0-1.2-1-2.2-2.2-2.2c-1.2,0-2.2,1-2.2,2.2c0,0.8-0.6,1.4-1.4,1.4   c-0.8,0-1.4-0.6-1.4-1.4c0-2.8,2.2-5,5-5c2.8,0,5,2.2,5,5C69.9,35,69.2,35.7,68.4,35.7z"></path><path display="inline" d="M80.9,35.7c-0.8,0-1.4-0.6-1.4-1.4c0-1.2-1-2.2-2.2-2.2c-1.2,0-2.2,1-2.2,2.2c0,0.8-0.6,1.4-1.4,1.4   c-0.8,0-1.4-0.6-1.4-1.4c0-2.8,2.2-5,5-5c2.8,0,5,2.2,5,5C82.3,35,81.7,35.7,80.9,35.7z"></path><path display="inline" d="M68.4,57c-0.8,0-1.4-0.6-1.4-1.4c0-1.2-1-2.2-2.2-2.2c-1.2,0-2.2,1-2.2,2.2c0,0.8-0.6,1.4-1.4,1.4   c-0.8,0-1.4-0.6-1.4-1.4c0-2.8,2.2-5,5-5c2.8,0,5,2.2,5,5C69.9,56.3,69.2,57,68.4,57z"></path><path display="inline" d="M80.9,57c-0.8,0-1.4-0.6-1.4-1.4c0-1.2-1-2.2-2.2-2.2c-1.2,0-2.2,1-2.2,2.2c0,0.8-0.6,1.4-1.4,1.4   c-0.8,0-1.4-0.6-1.4-1.4c0-2.8,2.2-5,5-5c2.8,0,5,2.2,5,5C82.3,56.3,81.7,57,80.9,57z"></path><path display="inline" d="M87,46.4c-0.8,0-1.4-0.6-1.4-1.4c0-1.2-1-2.2-2.2-2.2c-1.2,0-2.2,1-2.2,2.2c0,0.8-0.6,1.4-1.4,1.4   c-0.8,0-1.4-0.6-1.4-1.4c0-2.8,2.2-5,5-5c2.8,0,5,2.2,5,5C88.4,45.8,87.8,46.4,87,46.4z"></path><path display="inline" d="M62.5,46.4c-0.8,0-1.4-0.6-1.4-1.4c0-1.2-1-2.2-2.2-2.2s-2.2,1-2.2,2.2c0,0.8-0.6,1.4-1.4,1.4   s-1.4-0.6-1.4-1.4c0-2.8,2.2-5,5-5c2.8,0,5,2.2,5,5C63.9,45.8,63.2,46.4,62.5,46.4z"></path><path display="inline" d="M62.5,25.7c-0.8,0-1.4-0.6-1.4-1.4c0-1.2-1-2.2-2.2-2.2s-2.2,1-2.2,2.2c0,0.8-0.6,1.4-1.4,1.4   s-1.4-0.6-1.4-1.4c0-2.8,2.2-5,5-5c2.8,0,5,2.2,5,5C63.9,25.1,63.2,25.7,62.5,25.7z"></path><path display="inline" d="M74.7,25.7c-0.8,0-1.4-0.6-1.4-1.4c0-1.2-1-2.2-2.2-2.2s-2.2,1-2.2,2.2c0,0.8-0.6,1.4-1.4,1.4   c-0.8,0-1.4-0.6-1.4-1.4c0-2.8,2.2-5,5-5c2.8,0,5,2.2,5,5C76.1,25.1,75.5,25.7,74.7,25.7z"></path><path display="inline" d="M87,25.7c-0.8,0-1.4-0.6-1.4-1.4c0-1.2-1-2.2-2.2-2.2c-1.2,0-2.2,1-2.2,2.2c0,0.8-0.6,1.4-1.4,1.4   c-0.8,0-1.4-0.6-1.4-1.4c0-2.8,2.2-5,5-5c2.8,0,5,2.2,5,5C88.4,25.1,87.8,25.7,87,25.7z"></path><path display="inline" d="M62.5,66.8c-0.8,0-1.4-0.6-1.4-1.4c0-1.2-1-2.2-2.2-2.2s-2.2,1-2.2,2.2c0,0.8-0.6,1.4-1.4,1.4   s-1.4-0.6-1.4-1.4c0-2.8,2.2-5,5-5c2.8,0,5,2.2,5,5C63.9,66.1,63.2,66.8,62.5,66.8z"></path><path display="inline" d="M74.7,66.8c-0.8,0-1.4-0.6-1.4-1.4c0-1.2-1-2.2-2.2-2.2s-2.2,1-2.2,2.2c0,0.8-0.6,1.4-1.4,1.4   c-0.8,0-1.4-0.6-1.4-1.4c0-2.8,2.2-5,5-5c2.8,0,5,2.2,5,5C76.1,66.1,75.5,66.8,74.7,66.8z"></path><path display="inline" d="M87,66.8c-0.8,0-1.4-0.6-1.4-1.4c0-1.2-1-2.2-2.2-2.2c-1.2,0-2.2,1-2.2,2.2c0,0.8-0.6,1.4-1.4,1.4   c-0.8,0-1.4-0.6-1.4-1.4c0-2.8,2.2-5,5-5c2.8,0,5,2.2,5,5C88.4,66.1,87.8,66.8,87,66.8z"></path><path display="inline" d="M47.9,51.9h-5.9c-0.9,0-1.6,0.3-2.3,0.8c-0.6-0.5-1.4-0.8-2.3-0.8h-5.9c-0.9,0-1.6,0.3-2.3,0.8   c-0.6-0.5-1.4-0.8-2.3-0.8H21c-0.9,0-1.6,0.3-2.3,0.8c-0.6-0.5-1.4-0.8-2.3-0.8h-5.9c-2,0-3.7,1.7-3.7,3.7v12.4   c0,2,1.7,3.7,3.7,3.7h5.9c0.9,0,1.6-0.3,2.3-0.8c0.6,0.5,1.4,0.8,2.3,0.8h5.9c0.9,0,1.6-0.3,2.3-0.8c0.6,0.5,1.4,0.8,2.3,0.8h5.9   c0.9,0,1.6-0.3,2.3-0.8c0.6,0.5,1.4,0.8,2.3,0.8h5.9c2,0,3.7-1.7,3.7-3.7V55.6C51.6,53.5,49.9,51.9,47.9,51.9z M16.5,68.8h-5.9   c-0.5,0-0.9-0.4-0.9-0.9V55.6c0-0.5,0.4-0.9,0.9-0.9h5.9c0.5,0,0.9,0.4,0.9,0.9v12.4C17.3,68.4,16.9,68.8,16.5,68.8z M26.9,68.8H21   c-0.5,0-0.9-0.4-0.9-0.9V55.6c0-0.5,0.4-0.9,0.9-0.9h5.9c0.5,0,0.9,0.4,0.9,0.9v12.4C27.8,68.4,27.4,68.8,26.9,68.8z M37.4,68.8   h-5.9c-0.5,0-0.9-0.4-0.9-0.9V55.6c0-0.5,0.4-0.9,0.9-0.9h5.9c0.5,0,0.9,0.4,0.9,0.9v12.4C38.2,68.4,37.9,68.8,37.4,68.8z    M48.7,67.9c0,0.5-0.4,0.9-0.9,0.9h-5.9c-0.5,0-0.9-0.4-0.9-0.9V55.6c0-0.5,0.4-0.9,0.9-0.9h5.9c0.5,0,0.9,0.4,0.9,0.9V67.9z"></path><line display="inline" fill="#000000" x1="13.5" y1="58.3" x2="13.5" y2="65.3"></line><path display="inline" d="M13.5,66.8c-0.8,0-1.4-0.6-1.4-1.4v-7.1c0-0.8,0.6-1.4,1.4-1.4c0.8,0,1.4,0.6,1.4,1.4v7.1   C14.9,66.1,14.3,66.8,13.5,66.8z"></path><line display="inline" fill="#000000" x1="24" y1="58.3" x2="24" y2="65.3"></line><path display="inline" d="M24,66.8c-0.8,0-1.4-0.6-1.4-1.4v-7.1c0-0.8,0.6-1.4,1.4-1.4s1.4,0.6,1.4,1.4v7.1   C25.4,66.1,24.7,66.8,24,66.8z"></path><line display="inline" fill="#000000" x1="34.4" y1="58.3" x2="34.4" y2="65.3"></line><path display="inline" d="M34.4,66.8c-0.8,0-1.4-0.6-1.4-1.4v-7.1c0-0.8,0.6-1.4,1.4-1.4s1.4,0.6,1.4,1.4v7.1   C35.8,66.1,35.2,66.8,34.4,66.8z"></path><line display="inline" fill="#000000" x1="44.9" y1="58.3" x2="44.9" y2="65.3"></line><path display="inline" d="M44.9,66.8c-0.8,0-1.4-0.6-1.4-1.4v-7.1c0-0.8,0.6-1.4,1.4-1.4c0.8,0,1.4,0.6,1.4,1.4v7.1   C46.3,66.1,45.7,66.8,44.9,66.8z"></path><path display="inline" fill="#000000" d="M43.2,43.4H15.1c-1.5,0-2.7-1.2-2.7-2.7v-0.7c0-1.5,1.2-2.7,2.7-2.7h28.1   c1.5,0,2.7,1.2,2.7,2.7v0.7C45.9,42.2,44.7,43.4,43.2,43.4z"></path><line display="inline" fill="#000000" x1="19.6" y1="37.3" x2="22.4" y2="43.4"></line><path display="inline" d="M47.3,40.3c0-2.5-2-4.5-4.5-4.5H15.5c-2.5,0-4.5,2-4.5,4.5c0,1.2,0.5,2.3,1.2,3.1   c-0.8,0.8-1.2,1.9-1.2,3.1c0,2.5,2,4.5,4.5,4.5h27.4c2.5,0,4.5-2,4.5-4.5c0-1.2-0.5-2.3-1.2-3.1C46.9,42.6,47.3,41.5,47.3,40.3z    M34.2,48.1l-1.5-3.3H35l1.5,3.3H34.2z M28.8,48.1l-1.5-3.3h2.3l1.5,3.3H28.8z M23.3,48.1l-1.5-3.3h2.3l1.5,3.3H23.3z M24.1,38.7   l1.5,3.3h-2.3l-1.5-3.3H24.1z M29.6,38.7l1.5,3.3h-2.3l-1.5-3.3H29.6z M35,38.7l1.5,3.3h-2.3l-1.5-3.3H35z M44.5,40.3   c0,0.9-0.7,1.7-1.7,1.7h-3.2l-1.5-3.3h4.7C43.8,38.7,44.5,39.4,44.5,40.3z M15.5,38.7h3.2l1.5,3.3h-4.7c-0.9,0-1.7-0.7-1.7-1.7   C13.8,39.4,14.6,38.7,15.5,38.7z M13.8,46.5c0-0.9,0.7-1.7,1.7-1.7h3.2l1.5,3.3h-4.7C14.6,48.1,13.8,47.4,13.8,46.5z M42.8,48.1   h-3.2l-1.5-3.3h4.7c0.9,0,1.7,0.7,1.7,1.7C44.5,47.4,43.8,48.1,42.8,48.1z"></path><path display="inline" fill="#000000" d="M26.3,23.3l-1.1-6l-1.1-6c-0.3-1.6-1.2-2.9-2.4-3.8c-1.2-0.9-2.8-1.3-4.4-1l0,0l0,0   c-1.6,0.3-2.9,1.2-3.8,2.4s-1.3,2.8-1,4.4l1.1,6l1.1,6"></path><path display="inline" d="M31.9,25.4c-3.2,0.6-4-1.8-4.1-2.3c0,0,0,0,0,0l-2.1-11.9c-0.3-1.9-1.4-3.6-3-4.7   c-1.6-1.1-3.5-1.5-5.4-1.2c-1.9,0.3-3.6,1.4-4.7,3c-1.1,1.6-1.5,3.5-1.2,5.4l2.1,11.8c0.1,0.6,0.2,3.2-3.1,3.7   c-0.8,0.1-1.3,0.9-1.2,1.6c0.1,0.7,0.7,1.2,1.4,1.2c0.1,0,0.2,0,0.2,0c4.8-0.8,5.6-4.8,5.4-6.9c0,0,0,0,0,0l0-0.1c0,0,0,0,0,0   l-0.5-2.7l0,0l-1.6-9.1c-0.2-1.2,0.1-2.3,0.7-3.3c0.7-1,1.7-1.6,2.9-1.8C18.9,7.8,20,8.1,21,8.8c1,0.7,1.6,1.7,1.8,2.9l1.6,9.1   c0,0,0,0,0,0l0.5,2.8c0.4,1.8,2.1,4.8,6,4.8c0.5,0,0.9,0,1.4-0.1c0.8-0.1,1.3-0.9,1.2-1.6C33.4,25.8,32.6,25.3,31.9,25.4z"></path><path display="inline" d="M16,33.5c-0.6,0-1.2-0.4-1.4-1c-0.2-0.8,0.2-1.5,1-1.8c0.7-0.2,1.1-0.6,1.4-1.1c0.8-1.6,0.1-4.4-0.2-5.4   c-0.3-0.7,0.1-1.5,0.9-1.8c0.7-0.3,1.5,0.1,1.8,0.9c0.2,0.5,1.6,4.6,0,7.6c-0.7,1.3-1.8,2.2-3.2,2.6C16.3,33.5,16.1,33.5,16,33.5z"></path><path display="inline" d="M26.7,31.6c-1.3,0-2.5-0.5-3.5-1.3c-2.5-2.3-2.6-6.7-2.6-7.2c0-0.8,0.6-1.4,1.4-1.4c0,0,0,0,0,0   c0.8,0,1.4,0.6,1.4,1.4l0,0c0,1,0.3,3.9,1.7,5.1c0.5,0.4,1,0.6,1.7,0.6c0.8-0.1,1.5,0.5,1.5,1.3c0.1,0.8-0.5,1.5-1.3,1.5   C27,31.6,26.9,31.6,26.7,31.6z"></path><circle display="inline" cx="16.7" cy="13.4" r="0.9"></circle><circle display="inline" cx="20.2" cy="12.7" r="0.9"></circle><circle display="inline" cx="19.2" cy="16" r="1"></circle><path display="inline" fill="#000000" d="M43.9,28.6l1.1-6l1.1-6c0.3-1.6-0.1-3.1-1-4.4s-2.2-2.1-3.8-2.4l0,0l0,0   c-1.6-0.3-3.1,0.1-4.4,1s-2.1,2.2-2.4,3.8l-1.1,6l-1.1,6"></path><path display="inline" d="M48.3,33.6c-3.2-0.5-3.1-3-3.1-3.6c0,0,0,0,0,0l2.1-11.9c0.3-1.9-0.1-3.8-1.2-5.4c-1.1-1.6-2.8-2.7-4.7-3   c-1.9-0.3-3.8,0.1-5.4,1.2c-1.6,1.1-2.7,2.8-3,4.7L31,27.3c-0.1,0.6-0.9,3-4.2,2.5c-0.8-0.1-1.5,0.4-1.6,1.2   c-0.1,0.7,0.3,1.3,0.9,1.6c0.1,0,0.2,0.1,0.2,0.1c4.8,0.8,6.9-2.6,7.4-4.6c0,0,0,0,0,0l0-0.1c0,0,0,0,0,0l0.5-2.7l0,0l1.6-9.1   c0.2-1.2,0.9-2.2,1.8-2.9c1-0.7,2.1-0.9,3.3-0.7c1.2,0.2,2.2,0.9,2.9,1.8c0.7,1,0.9,2.1,0.7,3.3L43,26.7c0,0,0,0,0,0l-0.5,2.8   c-0.2,1.8,0.4,5.2,4,6.5c0.4,0.2,0.9,0.3,1.4,0.4c0.8,0.1,1.5-0.4,1.6-1.2C49.6,34.5,49.1,33.7,48.3,33.6z"></path><path display="inline" d="M30.7,35.8c-0.6-0.2-1-0.8-0.9-1.4c0.1-0.8,0.7-1.4,1.5-1.3c0.7,0.1,1.3-0.1,1.7-0.6   c1.3-1.2,1.7-4.1,1.7-5.1c0-0.8,0.6-1.4,1.4-1.4c0.8,0,1.4,0.6,1.4,1.4c0,0.5-0.1,4.9-2.6,7.2c-1,1-2.4,1.4-3.9,1.3   C30.9,35.9,30.8,35.9,30.7,35.8z"></path><path display="inline" d="M41.4,37.7c-1.2-0.5-2.2-1.3-2.8-2.4c-1.5-3-0.1-7.2,0-7.6c0.3-0.7,1.1-1.1,1.8-0.9c0,0,0,0,0,0   c0.7,0.3,1.1,1.1,0.9,1.8l0,0c-0.3,1-1,3.8-0.2,5.4c0.3,0.6,0.8,0.9,1.4,1.1c0.7,0.2,1.2,1,1,1.8c-0.2,0.8-1,1.2-1.8,1   C41.7,37.8,41.5,37.7,41.4,37.7z"></path><circle display="inline" cx="38.2" cy="17.1" r="0.9"></circle><circle display="inline" cx="41.7" cy="17.7" r="0.9"></circle><circle display="inline" cx="39.6" cy="20.5" r="1"></circle></g><g display="none"><line display="inline" fill="#000000" stroke="#0081AA" stroke-width="2.5" stroke-miterlimit="10" x1="34.8" y1="65.8" x2="34.8" y2="80.1"></line><line display="inline" fill="#000000" stroke="#0081AA" stroke-width="2.5" stroke-miterlimit="10" x1="40" y1="65.8" x2="40" y2="80.1"></line><g display="inline"><path d="M37.6,46.3h-0.4c-3.9,0-7.1,3.2-7.1,7.1v12c0,0.6,0.4,1.1,1,1.2v13.4c0,1.9,1.7,3.5,3.8,3.5c1,0,1.8-0.3,2.5-0.9    c0.7,0.5,1.5,0.9,2.5,0.9c2.1,0,3.8-1.5,3.8-3.5V66.7c0.6-0.1,1.1-0.6,1.1-1.3v-12C44.7,49.5,41.5,46.3,37.6,46.3z M37.2,48.9h0.4    c2.5,0,4.6,2,4.6,4.6v9.7c-0.6-0.4-1.4-0.7-2.3-0.7c-1,0-1.8,0.3-2.5,0.9c-0.7-0.5-1.5-0.9-2.5-0.9c-0.8,0-1.6,0.2-2.2,0.6v-9.6    C32.6,50.9,34.7,48.9,37.2,48.9z"></path></g><path display="inline" d="M37.4,28.6C37.4,28.6,37.4,28.6,37.4,28.6c-0.6,0-1-0.4-1.2-0.9l-1.3-3.6c-4-1-6.8-4.4-6.8-8.3   c0-4.8,4.2-8.7,9.3-8.7s9.3,3.9,9.3,8.7c0,3.9-2.8,7.3-6.8,8.3l-1.3,3.6C38.4,28.3,37.9,28.6,37.4,28.6z M37.4,9.7   c-3.7,0-6.7,2.7-6.7,6.1c0,2.9,2.3,5.4,5.4,6c0.5,0.1,0.8,0.4,1,0.9l0.3,0.8l0.3-0.8c0.2-0.4,0.5-0.8,1-0.8c3.1-0.6,5.4-3.1,5.4-6   C44.1,12.4,41.1,9.7,37.4,9.7z"></path><circle display="inline" cx="34.2" cy="15.8" r="1.2"></circle><circle display="inline" cx="37.4" cy="15.8" r="1.2"></circle><circle display="inline" cx="40.6" cy="15.8" r="1.2"></circle><path display="inline" fill="#000000" d="M34.8,80.9c-0.7,0-1.2-0.4-1.2-0.9V65.8c0-0.5,0.5-0.9,1.2-0.9s1.2,0.4,1.2,0.9v14.2   C36,80.6,35.5,80.9,34.8,80.9z"></path><path display="inline" fill="#000000" d="M39.8,80.9c-0.7,0-1.2-0.4-1.2-0.9V65.8c0-0.5,0.5-0.9,1.2-0.9s1.2,0.4,1.2,0.9v14.2   C41.1,80.6,40.5,80.9,39.8,80.9z"></path><path display="inline" d="M37.4,45.2c-3.9,0-7-3.2-7-7s3.2-7,7-7s7,3.2,7,7S41.3,45.2,37.4,45.2z M37.4,33.8c-2.4,0-4.4,2-4.4,4.4   c0,2.4,2,4.4,4.4,4.4c2.4,0,4.4-2,4.4-4.4C41.8,35.8,39.8,33.8,37.4,33.8z"></path><line display="inline" fill="#000000" stroke="#0081AA" stroke-width="2.5" stroke-miterlimit="10" x1="59.8" y1="65.8" x2="59.8" y2="80.1"></line><line display="inline" fill="#000000" stroke="#0081AA" stroke-width="2.5" stroke-miterlimit="10" x1="65.1" y1="65.8" x2="65.1" y2="80.1"></line><g display="inline"><path d="M62.7,46.3h-0.4c-3.9,0-7.1,3.2-7.1,7.1v12c0,0.6,0.4,1.1,1,1.2v13.4c0,1.9,1.7,3.5,3.8,3.5c1,0,1.8-0.3,2.5-0.9    c0.7,0.5,1.5,0.9,2.5,0.9c2.1,0,3.8-1.5,3.8-3.5V66.7c0.6-0.1,1.1-0.6,1.1-1.3v-12C69.8,49.5,66.6,46.3,62.7,46.3z M62.3,48.9h0.4    c2.5,0,4.6,2,4.6,4.6v9.7c-0.6-0.4-1.4-0.7-2.3-0.7c-1,0-1.8,0.3-2.5,0.9c-0.7-0.5-1.5-0.9-2.5-0.9c-0.8,0-1.6,0.2-2.2,0.6v-9.6    C57.7,50.9,59.8,48.9,62.3,48.9z"></path></g><path display="inline" d="M62.5,28.6C62.5,28.6,62.5,28.6,62.5,28.6c-0.6,0-1-0.4-1.2-0.9L60,24.1c-4-1-6.8-4.4-6.8-8.3   c0-4.8,4.2-8.7,9.3-8.7s9.3,3.9,9.3,8.7c0,3.9-2.8,7.3-6.8,8.3l-1.3,3.6C63.5,28.3,63,28.6,62.5,28.6z M62.5,9.7   c-3.7,0-6.7,2.7-6.7,6.1c0,2.9,2.3,5.4,5.4,6c0.5,0.1,0.8,0.4,1,0.9l0.3,0.8l0.3-0.8c0.2-0.4,0.5-0.8,1-0.8c3.1-0.6,5.4-3.1,5.4-6   C69.1,12.4,66.2,9.7,62.5,9.7z"></path><circle display="inline" cx="59.3" cy="15.8" r="1.2"></circle><circle display="inline" cx="62.5" cy="15.8" r="1.2"></circle><circle display="inline" cx="65.6" cy="15.8" r="1.2"></circle><path display="inline" fill="#000000" d="M59.9,80.9c-0.7,0-1.2-0.4-1.2-0.9V65.8c0-0.5,0.5-0.9,1.2-0.9s1.2,0.4,1.2,0.9v14.2   C61.1,80.6,60.6,80.9,59.9,80.9z"></path><path display="inline" fill="#000000" d="M64.9,80.9c-0.7,0-1.2-0.4-1.2-0.9V65.8c0-0.5,0.5-0.9,1.2-0.9c0.7,0,1.2,0.4,1.2,0.9   v14.2C66.1,80.6,65.6,80.9,64.9,80.9z"></path><path display="inline" d="M62.5,45.2c-3.9,0-7-3.2-7-7s3.2-7,7-7s7,3.2,7,7S66.3,45.2,62.5,45.2z M62.5,33.8c-2.4,0-4.4,2-4.4,4.4   c0,2.4,2,4.4,4.4,4.4s4.4-2,4.4-4.4C66.9,35.8,64.9,33.8,62.5,33.8z"></path><polygon display="inline" fill="#000000" points="74.4,55.8 25.4,55.8 25.4,58.3 48.8,58.3 48.8,88.9 51,88.9 51,58.3 74.4,58.3     "></polygon><path display="inline" d="M74.4,55.8v2.4H51v30.7h-2.2V58.3H25.4v-2.4H74.4 M74.4,53.2h-49c-1.4,0-2.6,1.2-2.6,2.6v2.4   c0,1.4,1.2,2.6,2.6,2.6h20.8v28.1c0,1.4,1.2,2.6,2.6,2.6H51c1.4,0,2.6-1.2,2.6-2.6V60.9h20.8c1.4,0,2.6-1.2,2.6-2.6v-2.4   C77,54.4,75.9,53.2,74.4,53.2L74.4,53.2z"></path><path display="inline" fill="#000000" d="M8.2,53.9"></path><path display="inline" d="M18.4,73.9H7.8V51.4c0-0.7-0.5-1.2-1.2-1.2s-1.2,0.5-1.2,1.2v37.5c0,0.7,0.5,1.2,1.2,1.2s1.2-0.5,1.2-1.2   V76.4h9.5v12.5c0,0.7,0.5,1.2,1.2,1.2s1.2-0.5,1.2-1.2V75.1C19.6,74.5,19.1,73.9,18.4,73.9z"></path><path display="inline" d="M14.4,31.5C14.4,31.5,14.4,31.5,14.4,31.5c-0.6,0-1-0.4-1.2-0.9L11.9,27c-4-1-6.8-4.4-6.8-8.3   c0-4.8,4.2-8.7,9.3-8.7s9.3,3.9,9.3,8.7c0,3.9-2.8,7.3-6.8,8.3l-1.3,3.6C15.4,31.2,14.9,31.5,14.4,31.5z M14.4,12.6   c-3.7,0-6.7,2.7-6.7,6.1c0,2.9,2.3,5.4,5.4,6c0.5,0.1,0.8,0.4,1,0.9l0.3,0.8l0.3-0.8c0.2-0.4,0.5-0.8,1-0.8c3.1-0.6,5.4-3.1,5.4-6   C21.1,15.4,18.1,12.6,14.4,12.6z"></path><circle display="inline" cx="11.2" cy="18.7" r="1.2"></circle><circle display="inline" cx="14.4" cy="18.7" r="1.2"></circle><circle display="inline" cx="17.6" cy="18.7" r="1.2"></circle><path display="inline" fill="#000000" d="M14.4,50c-2.3,0-4.1,1.9-4.1,4.1c0,0.3,0,0.6,0.1,0.9l1.5,14.1l6.7-2.6V54.2   C18.5,51.9,16.7,50,14.4,50z"></path><path display="inline" d="M14.4,47.8c-3.9,0-7-3.2-7-7s3.2-7,7-7s7,3.2,7,7S18.3,47.8,14.4,47.8z M14.4,36.3c-2.4,0-4.4,2-4.4,4.4   c0,2.4,2,4.4,4.4,4.4s4.4-2,4.4-4.4C18.8,38.3,16.8,36.3,14.4,36.3z"></path><path display="inline" d="M24.8,65.1h-5V54.2c0-3-2.4-5.4-5.4-5.4c-3,0-5.4,2.4-5.4,5.4c0,0.4,0,0.7,0.1,1.1l1.5,14   c0,0.1,0,0.1,0.1,0.2c0.2,1.9,1.9,3.4,3.8,3.4H21v11.4c0,2.1,1.7,3.9,3.9,3.9c2.1,0,3.9-1.7,3.9-3.9V69   C28.7,66.8,27,65.1,24.8,65.1z M26.1,84.3c0,0.7-0.6,1.3-1.3,1.3c-0.7,0-1.3-0.6-1.3-1.3l0-12.7c0-0.7-0.5-1.3-1.2-1.3h-7.8   c-0.7,0-1.3-0.6-1.3-1.3L13,67.3l0,0l-1.3-12.4c0,0,0-0.1,0-0.1c0-0.2-0.1-0.4-0.1-0.6c0-1.6,1.3-2.9,2.9-2.9   c1.6,0,2.9,1.3,2.9,2.9v11.5l0,0v0.8l0-0.1c0,0.7,0.6,1.3,1.3,1.3l0,0h6.3c0.7,0,1.3,0.6,1.3,1.3V84.3z"></path><polygon display="inline" fill="#000000" points="22.2,70.3 22.2,70.3 22.2,70.3  "></polygon><path display="inline" d="M81.7,73.9h10.7V51.4c0-0.7,0.5-1.2,1.2-1.2c0.7,0,1.2,0.5,1.2,1.2v37.5c0,0.7-0.5,1.2-1.2,1.2   c-0.7,0-1.2-0.5-1.2-1.2V76.4h-9.5v12.5c0,0.7-0.5,1.2-1.2,1.2c-0.7,0-1.2-0.5-1.2-1.2V75.1C80.5,74.5,81.1,73.9,81.7,73.9z"></path><path display="inline" d="M84.6,30.7L83.3,27c-4-1-6.8-4.4-6.8-8.3c0-4.8,4.2-8.7,9.3-8.7s9.3,3.9,9.3,8.7c0,3.9-2.8,7.3-6.8,8.3   L87,30.7c-0.2,0.5-0.7,0.9-1.2,0.9c0,0,0,0,0,0C85.2,31.5,84.7,31.2,84.6,30.7z M79.1,18.7c0,2.9,2.3,5.4,5.4,6   c0.5,0.1,0.8,0.4,1,0.8l0.3,0.8l0.3-0.8c0.2-0.4,0.5-0.8,1-0.9c3.1-0.6,5.4-3.1,5.4-6c0-3.3-3-6.1-6.7-6.1S79.1,15.4,79.1,18.7z"></path><circle display="inline" cx="88.9" cy="18.7" r="1.2"></circle><circle display="inline" cx="85.8" cy="18.7" r="1.2"></circle><circle display="inline" cx="82.6" cy="18.7" r="1.2"></circle><path display="inline" d="M78.7,40.7c0-3.9,3.2-7,7-7c3.9,0,7,3.2,7,7s-3.2,7-7,7C81.9,47.8,78.7,44.6,78.7,40.7z M81.3,40.7   c0,2.4,2,4.4,4.4,4.4s4.4-2,4.4-4.4c0-2.4-2-4.4-4.4-4.4S81.3,38.3,81.3,40.7z"></path><path display="inline" d="M85.8,48.7c-3,0-5.4,2.4-5.4,5.4v10.9h-5c-2.1,0-3.9,1.7-3.9,3.9v15.3c0,2.1,1.7,3.9,3.9,3.9   s3.9-1.7,3.9-3.9V72.9h6.5c2,0,3.6-1.5,3.8-3.4c0-0.1,0-0.1,0.1-0.2l1.5-14c0.1-0.4,0.1-0.7,0.1-1.1C91.2,51.2,88.8,48.7,85.8,48.7   z M88.5,54.8c0,0,0,0.1,0,0.1l-1.3,12.4l0,0L87,69c0,0.7-0.6,1.3-1.3,1.3h-7.8c-0.7,0-1.2,0.6-1.2,1.3l0,12.7   c0,0.7-0.6,1.3-1.3,1.3S74,85,74,84.3V69c0-0.7,0.6-1.3,1.3-1.3h6.3l0,0c0.7,0,1.3-0.6,1.3-1.3l0,0.1v-0.8l0,0V54.2   c0-1.6,1.3-2.9,2.9-2.9c1.6,0,2.9,1.3,2.9,2.9C88.6,54.3,88.6,54.5,88.5,54.8z"></path><polygon display="inline" fill="#000000" points="77.9,70.3 77.9,70.3 77.9,70.3  "></polygon></g><g display="none"><path display="inline" d="M27.8,46.7c-0.3,0-0.5-0.1-0.8-0.3c-0.6-0.4-0.7-1.2-0.2-1.8c0.1-0.2,3.5-4.7,0.2-7.7   c-4.1-3.7-1.9-8.7-0.1-10.9c0.4-0.5,1.2-0.6,1.8-0.2c0.5,0.4,0.6,1.2,0.2,1.8c-0.1,0.2-3.5,4.4-0.1,7.4c4.1,3.7,1.9,8.9,0.2,11.1   C28.5,46.6,28.1,46.7,27.8,46.7z"></path><path display="inline" d="M38.6,46.7c-0.3,0-0.5-0.1-0.8-0.3c-0.6-0.4-0.7-1.2-0.2-1.8c0.1-0.2,3.5-4.7,0.2-7.7   c-4.1-3.7-1.9-8.7-0.1-10.9c0.4-0.5,1.2-0.6,1.8-0.2c0.5,0.4,0.6,1.2,0.2,1.8c-0.1,0.2-3.5,4.4-0.1,7.4c4.1,3.7,1.9,8.9,0.2,11.1   C39.4,46.6,39,46.7,38.6,46.7z"></path><path display="inline" d="M49.5,46.7c-0.3,0-0.5-0.1-0.8-0.3c-0.6-0.4-0.7-1.2-0.2-1.8c0.1-0.2,3.5-4.7,0.2-7.7   c-4.1-3.7-1.9-8.7-0.1-10.9c0.4-0.5,1.2-0.6,1.8-0.2c0.5,0.4,0.6,1.2,0.2,1.8c-0.1,0.2-3.5,4.4-0.1,7.4c4.1,3.7,1.9,8.9,0.2,11.1   C50.2,46.6,49.9,46.7,49.5,46.7z"></path><path display="inline" d="M70.1,91.4H60c1.2-0.3,1.9-1,2.3-1.6c1.9-3.3-1.6-9.9-2.4-11.1c-0.2-0.4-0.6-0.6-1.1-0.6   s-0.9,0.2-1.1,0.6c-0.7,1.3-4.3,7.9-2.4,11.1c0.4,0.6,1,1.3,2.3,1.6h-7.7c1.2-0.3,1.9-1,2.3-1.6c1.9-3.3-1.6-9.9-2.4-11.1   c-0.2-0.4-0.6-0.6-1.1-0.6s-0.9,0.2-1.1,0.6c-0.7,1.3-4.3,7.9-2.4,11.1c0.4,0.6,1,1.3,2.3,1.6h-7.7c1.2-0.3,1.9-1,2.3-1.6   c1.9-3.3-1.6-9.9-2.4-11.1c-0.2-0.4-0.6-0.6-1.1-0.6s-0.9,0.2-1.1,0.6c-0.7,1.3-4.3,7.9-2.4,11.1c0.4,0.6,1,1.3,2.3,1.6h-7.7   c1.2-0.3,1.9-1,2.3-1.6c1.9-3.3-1.6-9.9-2.4-11.1C29.4,78.2,29,78,28.6,78c-0.5,0-0.9,0.2-1.1,0.6c-0.7,1.3-4.3,7.9-2.4,11.1   c0.4,0.6,1,1.3,2.3,1.6h-7.7c1.2-0.3,1.9-1,2.3-1.6c1.9-3.3-1.6-9.9-2.4-11.1C19.4,78.2,19,78,18.5,78s-0.9,0.2-1.1,0.6   c-0.7,1.3-4.3,7.9-2.4,11.1c0.4,0.6,1,1.3,2.3,1.6H7.2c-0.7,0-1.3,0.6-1.3,1.3s0.6,1.3,1.3,1.3h62.9c0.7,0,1.3-0.6,1.3-1.3   S70.8,91.4,70.1,91.4z M57.5,88.5c-0.7-1.1,0.2-4,1.3-6.4c1.1,2.5,1.9,5.3,1.3,6.4C60,88.6,59.8,89,58.8,89   C57.8,89,57.6,88.6,57.5,88.5z M47.4,88.5c-0.7-1.1,0.2-4,1.3-6.4c1.1,2.5,1.9,5.3,1.3,6.4c-0.1,0.1-0.3,0.5-1.3,0.5   C47.7,89,47.5,88.6,47.4,88.5z M37.4,88.5c-0.7-1.1,0.2-4,1.3-6.4c1.1,2.5,1.9,5.3,1.3,6.4c-0.1,0.1-0.3,0.5-1.3,0.5   C37.7,89,37.4,88.6,37.4,88.5z M27.3,88.5c-0.7-1.1,0.2-4,1.3-6.4c1.1,2.5,1.9,5.3,1.3,6.4c-0.1,0.1-0.3,0.5-1.3,0.5   C27.6,89,27.4,88.6,27.3,88.5z M17.2,88.5c-0.7-1.1,0.2-4,1.3-6.4c1.1,2.5,1.9,5.3,1.3,6.4c-0.1,0.1-0.3,0.5-1.3,0.5   C17.5,89,17.3,88.6,17.2,88.5z"></path><path display="inline" d="M78.7,8.9c0.6,0.3,1.1,1.1,0.8,1.8L61.9,45.5c-0.3,0.6-0.3,0.6-0.8,1c0-0.6,0-0.6,0.3-1.3L76.8,9.4   C77.1,8.8,78.1,8.6,78.7,8.9 M79.8,6.6c-1.9-0.9-4.3-0.1-5.2,1.7L59.2,44.2c-0.9,1.9-1,3.7,0.9,4.6s3.2-0.4,4.1-2.3l17.6-34.8   C82.7,9.8,81.7,7.5,79.8,6.6L79.8,6.6z"></path><path display="inline" d="M91,16c0.6,0.4,0.9,1.3,0.5,1.9L68.1,49.1c-0.4,0.6-0.4,0.6-0.9,0.9c0.1-0.6,0.1-0.6,0.5-1.2l21.4-32.6   C89.5,15.6,90.4,15.6,91,16 M92.5,13.9c-1.7-1.2-4.2-0.9-5.4,0.8L65.6,47.4c-1.2,1.7-1.6,3.5,0.1,4.7c1.7,1.2,3.3,0.2,4.5-1.5   l23.4-31.3C94.8,17.6,94.2,15.1,92.5,13.9L92.5,13.9z"></path><path display="inline" d="M93.2,74.5H67.6c4.5-4.5,3-10.6,3-10.7c-0.1-0.6-0.6-0.9-1.2-0.9H67c-0.4-3-3-5.3-6.1-5.1   c-0.7-4-4.2-7.1-8.5-7.1c-3.4,0-6.4,2-7.8,5c-1.8-1.2-4.4-1.1-6.2,0.1c-1.2-1.7-3.2-2.7-5.4-2.7c-1.4,0-2.8,0.5-4,1.3   c-1.4-1.2-3.2-1.8-5.1-1.8c-4,0-7.4,2.9-8,6.8c-2.7-0.2-5,1.3-6.1,3.5H7c-0.6,0-1.1,0.4-1.2,0.9c0,0.1-2.2,8.9,6.5,13.1   c0.2,0.1,0.4,0.1,0.5,0.1H55h8.6h29.6c0.7,0,1.3-0.6,1.3-1.3S93.9,74.5,93.2,74.5z M15.6,61.9c0.4,0,0.8,0.1,1.2,0.2   c0.4,0.1,0.8,0.1,1.2-0.2c0.3-0.3,0.5-0.7,0.5-1.1c0,0,0-0.2,0-0.2c0-3.1,2.5-5.5,5.5-5.5c1.6,0,3.1,0.7,4.1,1.8   c0.2,0.3,0.6,0.4,0.9,0.4c0,0,0,0,0,0c0.4,0,0.7-0.2,0.9-0.4c0.8-0.9,1.9-1.4,3.1-1.4c1.7,0,3.2,1,3.8,2.7c0.2,0.4,0.5,0.7,1,0.8   c0.4,0.1,0.9-0.1,1.2-0.5c0.6-0.8,1.5-1.2,2.5-1.2c1,0,2,0.5,2.6,1.4c0.3,0.4,0.8,0.6,1.3,0.5c0.5-0.1,0.9-0.5,1-1   c0.5-2.9,3-4.9,6-4.9c3.3,0,6.1,2.7,6.1,6.1c0,0.4,0.2,0.8,0.5,1c0.3,0.2,0.8,0.3,1.2,0.1c0.4-0.1,0.8-0.2,1.1-0.2   c1.6,0,2.8,1.1,3.2,2.6H13.1C13.7,62.3,14.6,61.9,15.6,61.9z M55,74.5H13.1c-5.1-2.6-5.2-7.1-5-9.1h60.3c0.2,2,0.1,6.5-5.1,9.1H55z   "></path></g><g display="none"><path display="inline" fill="none" d="M25.5,74.3c-0.4,0-0.8,0.4-0.8,0.8V87c0,0.4,0.4,0.8,0.8,0.8c0.5,0,0.8-0.4,0.8-0.8V75.2   C26.3,74.7,25.9,74.3,25.5,74.3z"></path><polygon display="inline" fill="#000000" points="82.2,85.4 18.2,83.8 18.2,78.3 82.2,76.7  "></polygon><line display="inline" fill="#000000" x1="18.2" y1="81.1" x2="81.5" y2="81.1"></line><polygon display="inline" fill="none" points="24.6,82.3 24.6,82.7 26.3,82.8 26.3,82.3  "></polygon><polygon display="inline" fill="none" points="26.3,79.8 26.3,79.3 24.6,79.4 24.6,79.8  "></polygon><polygon display="inline" fill="none" points="19.5,79.5 19.5,79.8 22.1,79.8 22.1,79.4  "></polygon><polygon display="inline" fill="none" points="19.5,82.3 19.5,82.6 22.1,82.6 22.1,82.3  "></polygon><path display="inline" fill="none" d="M26.3,75.2c0-0.4-0.4-0.8-0.8-0.8s-0.8,0.4-0.8,0.8v1.7l1.7,0V75.2z"></path><polygon display="inline" fill="none" points="81,79.8 81,78 28.8,79.3 28.8,79.8  "></polygon><polygon display="inline" fill="none" points="81,84.2 81,82.3 28.8,82.3 28.8,82.8  "></polygon><path display="inline" fill="none" d="M24.6,87c0,0.4,0.4,0.8,0.8,0.8c0.5,0,0.8-0.4,0.8-0.8v-1.7l-1.7,0V87z"></path><path display="inline" d="M83.1,75.8c-0.2-0.2-0.6-0.4-0.9-0.4l-53.4,1.3v-1.6c0-1.8-1.5-3.3-3.3-3.3s-3.3,1.5-3.3,3.3v1.8L18.2,77   c-0.7,0-1.2,0.6-1.2,1.3v5.5c0,0.7,0.5,1.2,1.2,1.3l3.9,0.1V87c0,1.8,1.5,3.3,3.3,3.3s3.3-1.5,3.3-3.3v-1.7l53.4,1.4c0,0,0,0,0,0   c0.3,0,0.6-0.1,0.9-0.4c0.2-0.2,0.4-0.6,0.4-0.9v-8.7C83.5,76.4,83.3,76.1,83.1,75.8z M24.6,75.2c0-0.4,0.4-0.8,0.8-0.8   s0.8,0.4,0.8,0.8v1.7l-1.7,0V75.2z M26.3,87c0,0.5-0.4,0.8-0.8,0.8c-0.4,0-0.8-0.4-0.8-0.8v-1.8l1.7,0V87z M81,84.2l-52.2-1.3   l-2.5-0.1l-1.7,0l-2.5-0.1l-2.7-0.1v-0.3h2.7h2.5h1.7h2.5H81V84.2z M81,79.8H28.8h-2.5h-1.7h-2.5h-2.7v-0.3l2.7-0.1l2.5-0.1l1.7,0   l2.5-0.1L81,78V79.8z"></path><line display="inline" fill="#000000" stroke="#0081AA" stroke-width="2.5" stroke-miterlimit="10" x1="80.2" y1="51" x2="80.2" y2="64.6"></line><path display="inline" d="M35.6,70.1c-16.7,0-30.2-13.6-30.2-30.2S18.9,9.7,35.6,9.7s30.2,13.6,30.2,30.2S52.3,70.1,35.6,70.1z    M35.6,12.2c-15.3,0-27.7,12.4-27.7,27.7c0,15.3,12.4,27.7,27.7,27.7s27.7-12.4,27.7-27.7C63.3,24.6,50.9,12.2,35.6,12.2z"></path><line display="inline" fill="#000000" x1="19.2" y1="32.9" x2="20.9" y2="34.6"></line><line display="inline" fill="#000000" x1="20.9" y1="32.9" x2="19.2" y2="34.6"></line><path display="inline" d="M21.8,32c-0.5-0.5-1.2-0.5-1.7,0c-0.5-0.5-1.3-0.5-1.7,0s-0.5,1.2,0,1.7c-0.5,0.5-0.5,1.3,0,1.7   c0.2,0.2,0.6,0.4,0.9,0.4c0.3,0,0.6-0.1,0.8-0.3c0.2,0.2,0.5,0.3,0.8,0.3c0.3,0,0.6-0.1,0.9-0.4c0.5-0.5,0.5-1.2,0-1.7   C22.2,33.3,22.2,32.5,21.8,32z"></path><path display="inline" d="M32.5,24.3c0-3.8-3.1-6.8-6.8-6.8s-6.8,3.1-6.8,6.8c0,1,0.2,1.9,0.6,2.8c-3.5,0.3-6.2,3.2-6.2,6.8   c0,3.8,3.1,6.8,6.8,6.8s6.8-3.1,6.8-6.8c0-1-0.2-1.9-0.6-2.8C29.8,30.8,32.5,27.8,32.5,24.3z M20.1,38.2c-2.4,0-4.3-1.9-4.3-4.3   c0-2.4,1.9-4.3,4.3-4.3c0.6,0,1.3,0.2,1.8,0.4c0.2,0.1,0.5,0.3,0.7,0.4c1.1,0.8,1.8,2.1,1.8,3.5C24.4,36.3,22.5,38.2,20.1,38.2z    M25.7,28.6c-0.6,0-1.3-0.2-1.8-0.4c-0.2-0.1-0.4-0.3-0.7-0.4c-1.1-0.8-1.8-2.1-1.8-3.5c0-2.4,1.9-4.3,4.3-4.3s4.3,1.9,4.3,4.3   C30,26.7,28.1,28.6,25.7,28.6z"></path><line display="inline" fill="#000000" x1="24.8" y1="23.3" x2="26.4" y2="25"></line><line display="inline" fill="#000000" x1="26.4" y1="23.3" x2="24.8" y2="25"></line><path display="inline" d="M27.3,22.5c-0.5-0.5-1.2-0.5-1.7,0c-0.5-0.5-1.3-0.5-1.7,0s-0.5,1.2,0,1.7c-0.5,0.5-0.5,1.3,0,1.7   c0.2,0.2,0.6,0.4,0.9,0.4c0.3,0,0.6-0.1,0.8-0.3c0.2,0.2,0.5,0.3,0.8,0.3c0.3,0,0.6-0.1,0.9-0.4c0.5-0.5,0.5-1.2,0-1.7   C27.8,23.7,27.8,22.9,27.3,22.5z"></path><path display="inline" d="M55.1,35.8l-1.2-0.5l0.6-2.4c0.2-0.7-0.3-1.3-0.9-1.5c-0.7-0.2-1.3,0.3-1.5,0.9l-0.5,2l0,0   c-0.4-0.2-0.9-0.1-1.2,0.2c-0.5-0.3-1.1-0.3-1.6,0.1l-2.3,2.1l-2.9-1.9l0.8-4.5h2.1l0.6,2.7c0.1,0.6,0.6,1,1.2,1c0.1,0,0.2,0,0.3,0   c0.7-0.2,1.1-0.8,0.9-1.5l-0.5-2.2H51c0.2,0.5,0.6,0.8,1.2,0.8s1-0.3,1.2-0.8h1.3c0.2,0,0.3,0,0.5-0.1c0.1,0,0.1-0.1,0.2-0.1   c0.1,0,0.1-0.1,0.2-0.1c0,0,0,0,0,0c0.1-0.1,0.1-0.2,0.2-0.3c0,0,0.1-0.1,0.1-0.1c0,0,0-0.1,0-0.1c0-0.1,0.1-0.2,0.1-0.3   c0,0,0,0,0,0c0-0.1,0-0.1,0-0.2c0-0.1,0-0.2-0.1-0.3c0-0.1-0.1-0.2-0.2-0.3c0,0-0.1-0.1-0.1-0.1l-2.1-2.2v-3.4   c0-0.7-0.6-1.3-1.3-1.3s-1.3,0.6-1.3,1.3v0.8l-1.7-1.8c-0.5-0.5-1.3-0.5-1.8,0c0,0,0,0,0,0l-0.1-0.1l1-1c0.5-0.5,0.5-1.3,0-1.8   c-0.5-0.5-1.3-0.5-1.8,0L45.2,20l-3.3-2c-0.6-0.4-1.4-0.2-1.7,0.4c-0.4,0.6-0.2,1.4,0.4,1.7l0.4,0.3c-0.4,0.3-0.6,0.7-0.5,1.2   l0.4,3.1l-2.6-1l1.1-1.9c0.3-0.6,0.2-1.4-0.4-1.7c-0.6-0.3-1.4-0.2-1.7,0.4l-1.3,2.3l-0.6-0.2c-0.6-0.2-1.4,0.1-1.6,0.7   c-0.2,0.6,0.1,1.4,0.7,1.6l0.2,0.1l-0.8,1.4c-0.3,0.6-0.2,1.4,0.4,1.7c0.2,0.1,0.4,0.2,0.6,0.2c0.4,0,0.8-0.2,1.1-0.6l1.1-1.8   l4.3,1.6c0.1,0.4,0.5,0.7,1,0.8c0,0.1-0.1,0.1-0.1,0.2c0,0,0,0,0,0c-0.1-0.1-0.3-0.1-0.4-0.1h-6.9c-0.7,0-1.3,0.6-1.3,1.3   s0.6,1.3,1.3,1.3h6.9l-0.4,2.2l-2.4-1.6c-0.5-0.3-1.2-0.2-1.6,0.2c-0.1-0.1-0.2-0.1-0.3-0.2c-0.6-0.3-1.4,0-1.6,0.7l-1.8,4.3   c-0.3,0.6,0,1.4,0.7,1.6c0.2,0.1,0.3,0.1,0.5,0.1c0.5,0,1-0.3,1.2-0.8l1.6-3.8l3.3,2.2L40.5,38c-0.1,0.7,0.3,1.3,1,1.4   c0.1,0,0.1,0,0.2,0c0.6,0,1.1-0.4,1.2-1l0.2-1.1l1.5,1L43,39.9c-0.5,0.5-0.5,1.3-0.1,1.8c0.2,0.3,0.6,0.4,0.9,0.4   c0.3,0,0.6-0.1,0.8-0.3l2.5-2.3c0.2-0.1,0.4-0.2,0.5-0.4c0,0,0-0.1,0-0.1l2.6-2.4c0.1,0,0.1,0.1,0.2,0.1l0.4,0.2L50.3,40   c-0.2,0.7,0.3,1.3,0.9,1.5c0.1,0,0.2,0,0.3,0c0.6,0,1.1-0.4,1.2-1l0.7-2.8l0.8,0.3c0.2,0.1,0.3,0.1,0.5,0.1c0.5,0,0.9-0.3,1.1-0.7   C56.1,36.8,55.8,36.1,55.1,35.8z M47.9,24.9c0-0.2-0.2-0.4-0.3-0.6l2,1.2c0.1,0.1,0.2,0.1,0.3,0.1l1,1.1v0.8h-2.4L47.9,24.9z    M43.3,21.8l-0.3,0.3L43,21.6L43.3,21.8z M43.3,24.2c0.2,0.1,0.3,0.1,0.5,0.1c0.3,0,0.6-0.1,0.9-0.4l0.8-0.8L47,24   c-0.2,0-0.4,0-0.5,0c-0.7,0.2-1.1,0.8-0.9,1.5l0.5,2.2h-1c0,0,0-0.1,0-0.1c0.2-0.6-0.1-1.4-0.7-1.6l-0.7-0.3L43.3,24.2z"></path><path display="inline" d="M30.1,63.4c-0.1,0-0.2,0-0.3,0c-1.9-0.4-3.7-1.3-5.2-2.6c-0.3-0.2-0.4-0.6-0.4-0.9V42.4   c0-0.4,0.2-0.7,0.4-0.9c1.5-1.3,3.3-2.2,5.2-2.6c0.4-0.1,0.8,0,1.1,0.2c0.3,0.2,0.5,0.6,0.5,1v22c0,0.4-0.2,0.7-0.5,1   C30.6,63.3,30.4,63.4,30.1,63.4z M26.7,59.2c0.7,0.5,1.4,0.9,2.1,1.2V41.8c-0.8,0.3-1.5,0.7-2.1,1.2V59.2z"></path><path display="inline" d="M35.6,63.7c-0.9,0-1.7-0.1-2.6-0.3c-0.6-0.1-1-0.6-1-1.2v-22c0-0.6,0.4-1.1,1-1.2c1.7-0.4,3.5-0.4,5.2,0   c0.6,0.1,1,0.6,1,1.2v22c0,0.6-0.4,1.1-1,1.2C37.3,63.6,36.4,63.7,35.6,63.7z M34.5,61.1c0.7,0.1,1.4,0.1,2.1,0V41.2   c-0.7-0.1-1.4-0.1-2.1,0V61.1z"></path><path display="inline" d="M22.4,61.1c-0.3,0-0.6-0.1-0.8-0.3c-2.8-2.4-4.4-5.9-4.4-9.6s1.6-7.2,4.4-9.6c0.4-0.3,0.9-0.4,1.3-0.2   c0.4,0.2,0.7,0.6,0.7,1.1v17.4c0,0.5-0.3,0.9-0.7,1.1C22.7,61,22.6,61.1,22.4,61.1z M21.1,45.8c-0.9,1.6-1.5,3.4-1.5,5.3   s0.5,3.7,1.5,5.3V45.8z"></path><path display="inline" d="M48.9,61.1c-0.2,0-0.4,0-0.5-0.1c-0.4-0.2-0.7-0.6-0.7-1.1V42.4c0-0.5,0.3-0.9,0.7-1.1s1-0.1,1.3,0.2   c2.8,2.4,4.4,5.9,4.4,9.6s-1.6,7.2-4.4,9.6C49.5,61,49.2,61.1,48.9,61.1z M50.2,45.8v10.6c0.9-1.6,1.5-3.4,1.5-5.3   S51.1,47.4,50.2,45.8z"></path><path display="inline" d="M41,63.4c-0.3,0-0.6-0.1-0.8-0.3c-0.3-0.2-0.5-0.6-0.5-1v-22c0-0.4,0.2-0.7,0.5-1   c0.3-0.2,0.7-0.3,1.1-0.2c1.9,0.4,3.7,1.3,5.2,2.6c0.3,0.2,0.4,0.6,0.4,0.9v17.4c0,0.4-0.2,0.7-0.4,0.9c-1.5,1.3-3.3,2.2-5.2,2.6   C41.2,63.4,41.1,63.4,41,63.4z M42.3,41.8v18.6c0.8-0.3,1.5-0.7,2.1-1.2V43C43.8,42.5,43.1,42.1,42.3,41.8z"></path><path display="inline" d="M93.5,46.3c-0.1-1.8-1-3.4-2.5-4.3c0.1-0.5,0.2-1.1,0.2-1.6c0-3.3-2.7-6.1-5.9-5.9   c-0.5-2-2.3-3.5-4.3-3.5c-1.8,0-3.3,1.1-4,2.7c-0.5-0.1-1-0.2-1.6-0.2c-3.3,0-6,2.9-6,6.4c0,0.6,0.1,1.3,0.3,1.9   c-1.5,0.8-2.6,2.5-2.6,4.4c-0.7,1.7-1.1,3.5-1.1,5.4c0,1.9,0.4,3.8,1.1,5.6c0.7,1.7,1.7,3.2,3.1,4.5c1.3,1.3,2.8,2.3,4.5,3.1   c0.4,0.2,0.7,0.3,1.1,0.4l-0.3,2.7c0,0.3,0.1,0.5,0.2,0.7c0.2,0.2,0.4,0.3,0.7,0.3h7.7c0,0,0,0,0,0c0.5,0,0.9-0.4,0.9-0.9   c0-0.1,0-0.2,0-0.3l-0.3-2.6c0.4-0.1,0.7-0.2,1.1-0.4c0.7-0.3,1.3-0.6,1.9-1l0,0c0,0,0.1-0.1,0.1-0.1c0.9-0.6,1.7-1.2,2.5-2   c1.3-1.3,2.3-2.8,3.1-4.5c0.7-1.8,1.1-3.6,1.1-5.6C94.5,49.8,94.1,48,93.5,46.3z M71.5,43.8l1.7-0.3l-0.8-1.5   c-0.3-0.6-0.5-1.3-0.5-2c0-2.1,1.6-3.9,3.5-3.9c0.6,0,1.2,0.2,1.7,0.5l1.7,1.1l0.2-2c0.1-1.1,0.9-2,2-2c1.1,0,2,1,2,2.2L82.8,38   l1.8-0.7c0.3-0.1,0.7-0.2,1-0.2c1.7,0,3.1,1.5,3.1,3.4c0,0.6-0.1,1.2-0.4,1.7l-0.7,1.3l1.4,0.5c1.1,0.3,1.8,1.4,1.9,2.6   c0,0,0,0,0,0.1c0,1.1-3.8,3.2-10.7,3.2c-6.5,0-10.2-1.9-10.7-3c0-0.1,0-0.3,0-0.4C69.5,45.1,70.4,44,71.5,43.8z M86.1,61.8   c-0.4,0.2-0.8,0.4-1.2,0.6c1.8-3.9,1.8-8.5,1.6-10.7c0.6-0.1,1.2-0.3,1.8-0.5C88.4,53.6,88.4,58.4,86.1,61.8z M76.6,52.1   c0.8,0.1,1.6,0.2,2.5,0.2v10.8C76.4,59.7,76.4,54.5,76.6,52.1z M84,52.1c0.2,2.4,0.1,7.6-2.5,11V52.3C82.4,52.2,83.2,52.2,84,52.1z    M79,63.2L79,63.2C79,63.3,79,63.3,79,63.2L79,63.2z M81.5,63.2L81.5,63.2C81.6,63.2,81.6,63.2,81.5,63.2L81.5,63.2z M69.4,56.1   c-0.6-1.4-0.9-3-0.9-4.6c0-0.7,0.1-1.4,0.2-2.1c0.4,0.3,0.8,0.5,1.2,0.8c-0.1,1.4-0.3,4.4,0.4,7.5C69.9,57.2,69.6,56.7,69.4,56.1z    M74.6,61.9c-2.4-3.3-2.4-8.3-2.3-10.7c0.6,0.2,1.2,0.3,1.8,0.5c-0.2,2.2-0.2,6.9,1.6,10.8c0,0-0.1,0-0.1,0   C75.3,62.3,75,62.1,74.6,61.9z M83.1,67h-5.7l0.2-1.5c0.9,0.2,1.8,0.3,2.7,0.3c0.9,0,1.8-0.1,2.7-0.3L83.1,67z M91.1,56.1   c-0.2,0.5-0.4,0.9-0.7,1.3c0.6-3.1,0.4-6,0.3-7.3c0.4-0.2,0.8-0.4,1.1-0.7c0.1,0.7,0.2,1.4,0.2,2.1C92,53.2,91.7,54.7,91.1,56.1z"></path></g><g display="none"><g display="inline"><path d="M67.7,40.2c-4.7,0-8.6-3.9-8.6-8.6S63,23,67.7,23c4.7,0,8.6,3.9,8.6,8.6S72.5,40.2,67.7,40.2z M67.7,25.5    c-3.4,0-6.1,2.7-6.1,6.1s2.7,6.1,6.1,6.1s6.1-2.7,6.1-6.1S71.1,25.5,67.7,25.5z"></path></g><polygon display="inline" fill="#000000" points="70.6,45.6 67.7,48.7 64.8,45.8 67.7,42.7  "></polygon><polygon display="inline" fill="#000000" points="71,55.3 67.7,58.6 64.4,55.3 67.7,48.9  "></polygon><line display="inline" fill="#000000" x1="50" y1="68.9" x2="50" y2="81.2"></line><line display="inline" fill="#000000" x1="37.4" y1="81.2" x2="62.6" y2="81.2"></line><path display="inline" fill="#000000" d="M39.9,53.5H19.2c-1.6,0-3-1.3-3-3V29c0-1.6,1.4-3,3-3h20.7c1.7,0,3,1.4,3,3v21.5   C42.9,52.2,41.6,53.5,39.9,53.5z"></path><g display="inline"><polyline fill="#000000" points="24.9,32.5 27.2,34.5 29.5,32.5 31.9,34.5 34.2,32.5   "></polyline></g><path display="inline" d="M39.9,24.8H19.2c-2.3,0-4.3,1.9-4.3,4.3v21.5c0,2.3,1.9,4.3,4.3,4.3h20.7c2.3,0,4.3-1.9,4.3-4.3V29   C44.2,26.7,42.3,24.8,39.9,24.8z M25.6,34.7l0.8,0.7c0.5,0.4,1.2,0.4,1.6,0l1.5-1.3l1.5,1.3c0.2,0.2,0.5,0.3,0.8,0.3   s0.6-0.1,0.8-0.3l0.8-0.7l1,3.9h-9.8L25.6,34.7z M24,41.1H35l2.7,11.1H21.2L24,41.1z M41.7,50.5c0,0.8-0.6,1.5-1.3,1.7l-4.9-20   c0,0,0,0,0,0c0-0.2-0.1-0.4-0.3-0.5c-0.4-0.5-1.2-0.6-1.8-0.1l-1.5,1.3l-1.5-1.3c-0.5-0.4-1.2-0.4-1.6,0l-1.5,1.3l-1.5-1.3   c-0.5-0.5-1.3-0.4-1.8,0.1c-0.1,0.2-0.2,0.3-0.3,0.5c0,0,0,0,0,0l-5,19.9c-0.7-0.2-1.2-0.9-1.2-1.7V29c0-1,0.8-1.8,1.8-1.8h20.7   c1,0,1.8,0.8,1.8,1.8V50.5z"></path><path display="inline" d="M89,17.6H11c-2.3,0-4.3,1.9-4.3,4.3v44.1c0,2.3,1.9,4.3,4.3,4.3h37.8v9.7H37.4c-0.7,0-1.3,0.6-1.3,1.3   s0.6,1.3,1.3,1.3h25.2c0.7,0,1.3-0.6,1.3-1.3s-0.6-1.3-1.3-1.3H51.3v-9.7H89c2.3,0,4.3-1.9,4.3-4.3V21.8   C93.3,19.5,91.4,17.6,89,17.6z M90.8,65.9c0,1-0.8,1.8-1.8,1.8H11c-1,0-1.8-0.8-1.8-1.8v-3h81.5V65.9z M55.3,58   c0-6.5,3.9-12,9.1-13.7l-0.5,0.6c-0.5,0.5-0.5,1.3,0,1.7l2.4,2.4l-3,5.8c-0.2,0.5-0.2,1.1,0.2,1.5l3.3,3.3c0.2,0.2,0.6,0.4,0.9,0.4   s0.6-0.1,0.9-0.4l3.3-3.3c0.4-0.4,0.5-1,0.2-1.5l-3-5.8l2.4-2.5c0.5-0.5,0.5-1.3,0-1.7l-0.4-0.4c5.2,1.7,9,7.2,9,13.6   c0,0.8-0.1,1.7-0.2,2.4H55.5C55.4,59.7,55.3,58.8,55.3,58z M67.7,51.7l1.8,3.4l-1.8,1.8l-1.8-1.8L67.7,51.7z M66.5,45.7l1.2-1.3   l1.2,1.2l-1.2,1.3L66.5,45.7z M90.8,60.4h-8.3c0.1-0.8,0.2-1.6,0.2-2.4c0-9.2-6.7-16.7-14.9-16.7S52.8,48.8,52.8,58   c0,0.8,0.1,1.6,0.2,2.4H9.2V21.8c0-1,0.8-1.8,1.8-1.8h78c1,0,1.8,0.8,1.8,1.8V60.4z"></path></g><g display="none"><path display="inline" d="M75,81.7c-0.5,0-1-0.3-1.2-0.8c-0.3-0.7,0-1.4,0.7-1.7c2.1-0.9,4-2.2,5.6-3.8c1.6-1.6,2.9-3.5,3.8-5.6   c0.3-0.7,1.1-1,1.7-0.7c0.7,0.3,1,1.1,0.7,1.7c-1,2.4-2.5,4.6-4.4,6.5c-1.9,1.9-4,3.3-6.5,4.4C75.3,81.7,75.2,81.7,75,81.7z"></path><g display="inline"><path d="M17.7,31.4c-2.8,0-5.1-2.3-5.1-5.1s2.3-5.1,5.1-5.1s5.1,2.3,5.1,5.1S20.5,31.4,17.7,31.4z M17.7,23.8    c-1.4,0-2.5,1.1-2.5,2.5c0,1.4,1.1,2.5,2.5,2.5c1.4,0,2.5-1.1,2.5-2.5C20.2,24.9,19.1,23.8,17.7,23.8z"></path></g><g display="inline"><path d="M33,44.6c-0.7,0-1.3-0.6-1.3-1.3c0-1-0.8-1.7-1.7-1.7s-1.7,0.8-1.7,1.7c0,0.7-0.6,1.3-1.3,1.3c-0.7,0-1.3-0.6-1.3-1.3    c0-2.4,2-4.4,4.4-4.4s4.4,2,4.4,4.4C34.3,44,33.7,44.6,33,44.6z"></path></g><g display="inline"><path d="M39.1,52.6c-0.7,0-1.3-0.6-1.3-1.3c0-1-0.8-1.7-1.7-1.7c-1,0-1.7,0.8-1.7,1.7c0,0.7-0.6,1.3-1.3,1.3    c-0.7,0-1.3-0.6-1.3-1.3c0-2.4,2-4.4,4.4-4.4c2.4,0,4.4,2,4.4,4.4C40.4,52,39.8,52.6,39.1,52.6z"></path></g><g display="inline"><path d="M22.9,18.6c-2.2,0-3.9-1.7-3.9-3.9s1.8-3.9,3.9-3.9c2.2,0,3.9,1.7,3.9,3.9S25.1,18.6,22.9,18.6z M22.9,13.5    c-0.7,0-1.3,0.6-1.3,1.3s0.6,1.3,1.3,1.3c0.7,0,1.3-0.6,1.3-1.3S23.6,13.5,22.9,13.5z"></path></g><g display="inline"><path d="M66.4,16.6c0,0-0.7,5.4-2.5,4.4C62.1,19.9,66.4,16.6,66.4,16.6z"></path><path d="M69.8,18.6c0,0-0.7,5.4-2.5,4.4C65.5,21.9,69.8,18.6,69.8,18.6z"></path><path d="M73.2,20.6c0,0-0.7,5.4-2.5,4.4C68.9,23.9,73.2,20.6,73.2,20.6z"></path><path d="M62.9,22.7c0,0-0.7,5.4-2.5,4.4C58.5,26,62.9,22.7,62.9,22.7z"></path><path d="M66.3,24.7c0,0-0.7,5.4-2.5,4.4S66.3,24.7,66.3,24.7z"></path><path d="M69.7,26.7c0,0-0.7,5.4-2.5,4.4C65.4,30,69.7,26.7,69.7,26.7z"></path></g><path display="inline" fill="#000000" d="M77.4,19.7c0.2-0.5,0.3-0.9,0.3-1.4c0.1-0.5,0.1-0.9,0-1.4s-0.1-0.9-0.2-1.4   c-0.1-0.5-0.3-0.9-0.5-1.3c-0.2-0.4-0.5-0.8-0.7-1.2c-0.3-0.4-0.6-0.7-1-1.1c-0.4-0.3-0.8-0.6-1.2-0.9c-0.4-0.3-0.9-0.5-1.3-0.6   s-0.9-0.3-1.4-0.3c-0.5-0.1-0.9-0.1-1.4,0c-0.5,0-0.9,0.1-1.4,0.2c-0.5,0.1-0.9,0.3-1.3,0.5c-0.4,0.2-0.8,0.5-1.2,0.7   c-0.4,0.3-0.7,0.6-1.1,1L77.4,19.7z"></path><g display="inline"><path d="M92.3,56.7c0-0.7-0.6-1.3-1.3-1.3h-4.6V6.9c0-0.7-0.6-1.3-1.3-1.3h-8c-0.5,0-0.9,0.2-1.1,0.6l-2.1,3.3    c-0.2-0.1-0.4-0.2-0.7-0.3c-0.5-0.2-1.1-0.3-1.7-0.4c-0.6-0.1-1.1-0.1-1.7,0c-0.6,0-1.1,0.1-1.6,0.3c-0.5,0.1-1.1,0.3-1.6,0.6    c-0.5,0.2-1,0.5-1.4,0.9c-0.4,0.3-0.9,0.7-1.2,1.1c-0.3,0.3-0.4,0.7-0.3,1.1c0.1,0.4,0.3,0.7,0.6,0.9l12.4,7.2    c0.2,0.1,0.4,0.2,0.7,0.2c0.2,0,0.3,0,0.5-0.1c0.4-0.1,0.7-0.4,0.8-0.8c0.2-0.5,0.3-1.1,0.4-1.7c0.1-0.6,0.1-1.1,0-1.7    c0-0.5-0.1-1.1-0.3-1.6c-0.1-0.5-0.3-1.1-0.6-1.5c-0.2-0.5-0.5-1-0.9-1.4c-0.3-0.5-0.7-0.9-1.2-1.2c0,0-0.1-0.1-0.1-0.1l1.7-2.7h6    v47.2h-8c1.2-1.4,1.9-3.1,1.9-5.1c0-4.3-3.5-7.7-7.7-7.7s-7.7,3.5-7.7,7.7c0,2,0.7,3.7,1.9,5.1h-8.4c0.1-0.4,0.1-0.9,0.1-1.4    c0-4.2-3-7.8-7-8.7c0.7-1.2,1.1-2.6,1.1-4c0-4.1-3-7.5-7-8c0.2-0.7,0.3-1.4,0.3-2.1c0-4.1-3.4-7.5-7.5-7.5s-7.5,3.4-7.5,7.5    c0,0.2,0,0.5,0,0.7c-0.2,0-0.4,0-0.6,0c-4.8,0-8.7,3.9-8.7,8.7c0,0.8,0.1,1.7,0.4,2.4c-3.1,1.9-4.9,5.3-4.9,9    c0,1.1,0.2,2.2,0.5,3.3H9c-0.7,0-1.3,0.6-1.3,1.3l-0.2,9.2v1.5c0,2.7,0.5,5.4,1.6,7.9c1,2.4,2.5,4.6,4.4,6.5    c1.9,1.9,4,3.3,6.5,4.4c2.1,0.9,4.3,1.4,6.6,1.5c0,0,0,0.1,0,0.1c0.1,0.6,0.1,2.4-0.7,3.4c-0.4,0.4-0.9,0.6-1.7,0.6    c-0.7,0-1.3,0.6-1.3,1.3c0,0.7,0.6,1.3,1.3,1.3c1.9,0,3.1-0.8,3.7-1.6c1.5-1.7,1.4-4.2,1.3-5.1h42.9c-0.1,0.9-0.2,3.4,1.3,5.1    c0.6,0.7,1.7,1.6,3.7,1.6c0.7,0,1.3-0.6,1.3-1.3c0-0.7-0.6-1.3-1.3-1.3c-0.8,0-1.3-0.2-1.7-0.6c-0.8-0.9-0.8-2.7-0.7-3.4    c0-0.1,0-0.1,0-0.2c1.8-0.2,3.7-0.7,5.4-1.4c2.4-1,4.6-2.5,6.5-4.4c1.9-1.9,3.3-4,4.4-6.5c1.1-2.5,1.6-5.2,1.6-7.9L92.3,56.7z     M76.3,15.9c0.1,0.4,0.2,0.8,0.2,1.1c0,0.2,0,0.4,0,0.6l-9.2-5.3c0.2-0.1,0.4-0.2,0.6-0.3c0.3-0.2,0.7-0.3,1.1-0.4    c0.4-0.1,0.7-0.2,1.1-0.2c0.4,0,0.8,0,1.2,0c0.4,0,0.8,0.1,1.1,0.3c0.4,0.1,0.8,0.3,1.1,0.5c0.4,0.2,0.7,0.4,1,0.7    c0.3,0.3,0.6,0.5,0.8,0.9c0.2,0.3,0.4,0.6,0.6,1C76,15.2,76.2,15.5,76.3,15.9z M64.8,50.3c0-2.8,2.3-5.1,5.1-5.1    c2.8,0,5.1,2.3,5.1,5.1c0,2.8-2.3,5.1-5.1,5.1h0C67.1,55.4,64.8,53.1,64.8,50.3z M21.5,44.9l1.1-0.6l-0.5-1.2    c-0.4-0.8-0.5-1.6-0.5-2.5c0-3.4,2.7-6.1,6.1-6.1c0.7,0,1.3,0.1,1.9,0.3l2.8,0.9l-1.1-2.7c-0.2-0.6-0.4-1.2-0.4-1.9    c0-2.7,2.2-4.9,4.9-4.9c2.7,0,4.9,2.2,4.9,4.9c0,0.9-0.3,1.9-0.8,2.6l-1.6,2.4l2.9-0.4c0.2,0,0.5-0.1,0.7-0.1c3,0,5.4,2.4,5.4,5.4    c0,1.6-0.7,3.1-1.9,4.1l-3.2,2.7l4.1-0.4c0.2,0,0.4,0,0.6,0c3.5,0,6.3,2.8,6.3,6.3c0,0.5-0.1,0.9-0.2,1.4H17.7    c-0.5-1-0.7-2.1-0.7-3.3C17,49.1,18.8,46.3,21.5,44.9z M89.9,67.5c0,2.4-0.5,4.7-1.4,6.9c-0.9,2.1-2.2,4-3.8,5.6    c-1.6,1.6-3.5,2.9-5.6,3.8c-2.2,0.9-4.5,1.4-6.9,1.4H27.8c-2.4,0-4.7-0.5-6.9-1.4c-2.1-0.9-4-2.2-5.6-3.8    c-1.6-1.6-2.9-3.5-3.8-5.6c-0.9-2.2-1.4-4.5-1.4-6.9l0-1.5l0.2-7.9h59.6c0,0,0,0,0,0c0,0,0,0,0,0h19.7l0.2,7.9V67.5z"></path></g></g><g display="none"><circle display="inline" cx="34.2" cy="78.1" r="1.9"></circle><circle display="inline" cx="47.7" cy="78.1" r="1.9"></circle><g display="inline"><g><path d="M76.7,29c-3,0-5.8-1.9-6.8-4.8c-1.4-3.8,0.6-7.9,4.3-9.3c0.8-0.3,1.6-0.4,2.5-0.4c3,0,5.8,1.9,6.8,4.8     c0.7,1.8,0.6,3.8-0.2,5.5s-2.3,3.1-4.1,3.8C78.4,28.9,77.5,29,76.7,29z M76.7,17c-0.6,0-1.1,0.1-1.6,0.3     c-2.5,0.9-3.7,3.6-2.8,6.1c0.7,1.9,2.5,3.1,4.5,3.1c0.6,0,1.1-0.1,1.6-0.3c1.2-0.4,2.1-1.3,2.7-2.5c0.5-1.2,0.6-2.4,0.2-3.6     C80.5,18.2,78.7,17,76.7,17z"></path></g><g><path fill="#000000" d="M86.4,46.6c0,0,0.2,7.1,7.2,7.9"></path><path d="M93.7,53.3c-4.5-0.5-5.7-4.1-6-5.8l2.8-1c0.3-0.1,0.6-0.3,0.7-0.6c0.1-0.3,0.2-0.6,0-1l-5-13.8c3.5-3.7,4.7-9,2.9-13.8     c-1.9-5.2-6.9-8.8-12.5-8.8c-1.6,0-3.1,0.3-4.5,0.8L42.4,19.5c-0.3,0.1-0.6,0.3-0.7,0.6c-0.1,0.3-0.2,0.7,0,1l4.5,12.3     c0.1,0.3,0.4,0.6,0.7,0.7c0.3,0.1,0.7,0.1,1,0l16.9-6.7c2,4.2,6,7,10.6,7.5l5,13.8c0.2,0.5,0.7,0.8,1.2,0.8c0.1,0,0.3,0,0.4-0.1     l3.4-1.3c0.6,2.9,2.8,6.8,8.1,7.4c0,0,0.1,0,0.1,0c0.6,0,1.2-0.5,1.2-1.1C94.9,54,94.4,53.3,93.7,53.3z M77.3,33.4     c-0.2-0.5-0.6-0.8-1.1-0.8c-4.4-0.2-8.2-3-9.7-7.1c-0.1-0.3-0.4-0.6-0.7-0.7c-0.2-0.1-0.3-0.1-0.5-0.1c-0.2,0-0.3,0-0.5,0.1     L48,31.4l-3.6-9.9L73,11.6c1.2-0.4,2.4-0.7,3.7-0.7c4.5,0,8.6,2.9,10.2,7.1c1.5,4.1,0.4,8.7-2.9,11.7c-0.4,0.3-0.5,0.9-0.3,1.4     l4.9,13.4l-6.3,2.3L77.3,33.4z"></path></g></g><path display="inline" d="M44.5,39.9c-2.3,0-4.6,0.3-6.7,0.9c-2.3-0.9-5.2-3-7.1-7.7c-4.5-11.2-11.7-10.1-12-10   c-0.7,0.1-1.1,0.8-1,1.4c0.1,0.7,0.7,1.1,1.4,1c0.2,0,5.6-0.7,9.3,8.5c1.6,4.1,3.9,6.5,6.1,7.9c-2.2,0.9-4.3,2.2-6.1,3.6   c-1.5-1.3-3-3.1-4.1-6c-4.5-11.2-11.7-10.1-12-10c-0.7,0.1-1.1,0.8-1,1.4c0.1,0.7,0.7,1.1,1.4,1c0.2,0,5.6-0.7,9.3,8.5   c1.2,3.1,2.9,5.2,4.5,6.7c-1.6,1.5-3,3.3-4.1,5.2c-1.5-1.3-3-3.2-4.2-6c-4.5-11.2-11.7-10.1-12-10c-0.7,0.1-1.1,0.8-1,1.4   c0.1,0.7,0.8,1.1,1.4,1c0.1,0,5.5-0.9,9.3,8.5c1.4,3.6,3.3,5.8,5.3,7.3c-1.6,3.4-2.5,7.2-2.5,11.1c0,14.3,11.6,25.8,25.8,25.8   S70.4,80,70.4,65.7S58.8,39.9,44.5,39.9z M44.5,42.4c12.5,0,22.7,9.8,23.3,22.2c-7.4,0.1-11.6-9.7-11.6-9.8   c-0.2-0.4-0.5-0.7-0.9-0.7c-0.4-0.1-0.8,0-1.1,0.3C40.9,67,25.7,61.6,21.9,60C24.5,49.9,33.6,42.4,44.5,42.4z M44.5,89.1   c-12.9,0-23.3-10.5-23.3-23.3c0-1.1,0.1-2.2,0.2-3.3c4.8,1.9,19.9,6.4,33.2-5.1c1.7,3.1,6,9.8,13,9.8c0,0,0.1,0,0.1,0   C67.1,79.3,57,89.1,44.5,89.1z"></path></g><g display="none"><g display="inline"><path d="M43.4,38.3l0.2,1.6l-5.7,0.8l-0.2-1.3l2.5-4.3l-2.8,0.4l-0.2-1.6l5.3-0.7l0.2,1.3l-2.4,4.3L43.4,38.3z"></path><path d="M51.4,37.2l0.2,1.6L46,39.6l-0.2-1.3l2.5-4.3l-2.8,0.4l-0.2-1.6l5.3-0.7l0.2,1.3l-2.4,4.3L51.4,37.2z"></path><path d="M59.5,36.1l0.2,1.6L54,38.5l-0.2-1.3l2.5-4.3l-2.8,0.4l-0.2-1.6l5.3-0.7l0.2,1.3l-2.4,4.3L59.5,36.1z"></path><path d="M64,35.3l0.2,1.8l-1.9,0.3l-0.2-1.8L64,35.3z"></path><path d="M68.9,34.7l0.2,1.8l-1.9,0.3L67,34.9L68.9,34.7z"></path><path d="M73.7,34l0.2,1.8l-1.9,0.3l-0.2-1.8L73.7,34z"></path></g><g display="inline"><circle fill="#000000" cx="50" cy="53.9" r="5.9"></circle></g><g display="inline"><path fill="#000000" d="M87.3,81.5c0.5-3.9,1-7.8,1.5-11.7c0.6-4.4-2-8.4-5.7-8.8c-21.9-2.3-44.1-2.3-66,0    c-3.7,0.4-6.3,4.4-5.7,8.8c0.5,3.9,1,7.8,1.5,11.7C37.5,78.4,62.5,78.4,87.3,81.5z"></path></g><g display="inline"><path d="M78.8,12.8c-0.7-1.5-1.6-2.9-2.8-4.1C74.9,7.5,73.5,6.6,72,6c-3.2-1.4-6.9-1.3-10.1,0c-0.6,0.2-0.9,0.9-0.8,1.5    c0.1,0.5,0.5,0.9,1,1l0,0l0,0c4.3,0.9,7.6,4.3,8.4,8.5c0.1,0.7,0.2,1.4,0.2,2.2c0,3.6-1.8,6.9-4.7,9l0,0l0,0    c-0.4,0.3-0.6,0.8-0.5,1.3l0.1,0.4c0.1,0.6,0.7,1,1.3,1c1.7,0,3.4-0.3,5-1c1.5-0.7,2.9-1.6,4.1-2.8c1.2-1.2,2.1-2.6,2.8-4.1    c0.7-1.6,1-3.3,1-5C79.9,16.1,79.5,14.4,78.8,12.8z M76.5,21.9c-0.5,1.2-1.3,2.3-2.2,3.3c-0.9,1-2.1,1.7-3.3,2.2    c-0.2,0.1-0.4,0.2-0.6,0.2c0.2-0.3,0.4-0.6,0.6-0.9c0,0,0,0,0,0c0.3-0.4,0.5-0.8,0.7-1.2c0.1-0.1,0.1-0.2,0.2-0.3    c0.2-0.3,0.3-0.7,0.5-1.1c0-0.1,0.1-0.2,0.1-0.3c0.2-0.4,0.3-0.9,0.4-1.4c0-0.1,0-0.2,0.1-0.3c0.1-0.4,0.2-0.8,0.2-1.2    c0-0.1,0-0.3,0.1-0.4c0.1-0.5,0.1-1,0.1-1.5v0v0l0,0c0-0.4,0-0.7,0-1.1c0-0.1,0-0.2,0-0.3c0-0.3-0.1-0.5-0.1-0.8    c0-0.1,0-0.2-0.1-0.3c-0.1-0.3-0.1-0.6-0.2-0.9c0,0,0-0.1,0-0.1c-0.1-0.3-0.2-0.7-0.3-1c0-0.1-0.1-0.2-0.1-0.3    c-0.1-0.2-0.2-0.5-0.3-0.7c0-0.1-0.1-0.2-0.1-0.3c-0.1-0.3-0.3-0.5-0.4-0.8c0-0.1-0.1-0.1-0.1-0.2c-0.2-0.3-0.4-0.6-0.5-0.9    c0-0.1-0.1-0.1-0.2-0.2c-0.1-0.2-0.3-0.4-0.5-0.6c-0.1-0.1-0.1-0.2-0.2-0.2c-0.2-0.2-0.4-0.4-0.5-0.6c-0.1-0.1-0.1-0.1-0.1-0.2    c-0.2-0.2-0.5-0.5-0.7-0.7c-0.1,0-0.1-0.1-0.2-0.1c-0.2-0.2-0.4-0.3-0.6-0.5c-0.1-0.1-0.2-0.1-0.3-0.2c-0.2-0.2-0.4-0.3-0.7-0.4    c-0.1,0-0.1-0.1-0.2-0.1c0,0-0.1,0-0.1-0.1c1.4,0,2.8,0.3,4.1,0.8c1.2,0.5,2.3,1.3,3.3,2.2c1,1,1.7,2.1,2.2,3.3    c0.5,1.3,0.8,2.6,0.8,4C77.3,19.3,77,20.6,76.5,21.9z"></path></g><g display="inline"><path d="M48.2,25c-0.3,0-0.6-0.1-0.8-0.3l-2.6-2.2l-3.3,0.9c-0.5,0.1-1,0-1.3-0.4c-0.3-0.4-0.4-0.9-0.2-1.3l1.3-3.1l-1.8-2.9    c-0.3-0.4-0.3-0.9,0-1.4c0.3-0.4,0.7-0.7,1.2-0.6l3.4,0.3l2.2-2.6c0.3-0.4,0.8-0.5,1.3-0.4c0.5,0.1,0.9,0.5,1,1l0.8,3.3l3.2,1.2    c0.5,0.2,0.8,0.6,0.8,1.1c0,0.5-0.2,1-0.6,1.2l-2.9,1.8l-0.2,3.4c0,0.5-0.3,0.9-0.8,1.1C48.5,25,48.4,25,48.2,25z M45.1,19.7    c0.3,0,0.6,0.1,0.8,0.3l1.1,1l0.1-1.5c0-0.4,0.3-0.8,0.6-1l1.3-0.8l-1.4-0.5c-0.4-0.2-0.7-0.5-0.8-0.9l-0.3-1.4L45.6,16    c-0.3,0.3-0.7,0.5-1.1,0.5L43,16.4l0.8,1.2c0.2,0.4,0.3,0.8,0.1,1.2l-0.6,1.4l1.4-0.4C44.9,19.8,45,19.7,45.1,19.7z"></path></g><g display="inline"><path d="M27.2,33.4c-0.2,0-0.4,0-0.6-0.1c-0.4-0.2-0.7-0.7-0.7-1.2l0-2.2l-1.8-1.3c-0.4-0.3-0.6-0.8-0.5-1.3    c0.1-0.5,0.4-0.9,0.9-1l2.1-0.6l0.7-2.1c0.1-0.5,0.5-0.8,1-0.9c0.5-0.1,1,0.1,1.3,0.5l1.2,1.8l2.2,0c0.5,0,0.9,0.3,1.2,0.7    c0.2,0.4,0.2,1-0.1,1.4l-1.3,1.7l0.7,2.1c0.2,0.5,0,1-0.3,1.3c-0.4,0.3-0.9,0.5-1.3,0.3l-2.1-0.7l-1.7,1.3    C27.7,33.3,27.5,33.4,27.2,33.4z M27.8,28.1l0.2,0.1c0.3,0.2,0.5,0.6,0.5,1.1l0,0.2l0.2-0.1c0.3-0.3,0.8-0.3,1.2-0.2l0.2,0.1    L30,29c-0.1-0.4-0.1-0.8,0.2-1.2l0.1-0.2l-0.2,0c-0.5,0-0.8-0.2-1.1-0.6l-0.1-0.2l-0.1,0.2c-0.1,0.4-0.4,0.7-0.9,0.8L27.8,28.1z"></path></g><path display="inline" d="M88.1,62.5c-1.1-1.4-2.5-2.3-4.1-2.7V35.2h-2.6v8.3H18.6v-8.3H16v24.7c-1.6,0.4-3,1.3-4.1,2.7   c-1.6,2-2.3,4.7-1.9,7.5l1.6,13l1.3-0.2c1-0.1,2-0.2,3.1-0.4V95h2.6v-6.5h62.9V95H84V82.4c1,0.1,2,0.2,3.1,0.4l1.3,0.2L90,70   C90.4,67.2,89.7,64.5,88.1,62.5z M18.6,46h62.9v13.5c-1.4-0.1-2.8-0.2-4.2-0.4v-3c0-4.1-3.4-7.5-7.5-7.5H54.9   c-1.3-1.2-3-1.9-4.9-1.9s-3.6,0.7-4.9,1.9H30.3c-4.1,0-7.5,3.4-7.5,7.5v3c-1.4,0.1-2.8,0.2-4.2,0.4V46z M44.2,58   c-6.3,0.1-12.5,0.4-18.8,0.9v-2.8c0-2.7,2.2-4.9,4.9-4.9h13.1c-0.3,0.8-0.5,1.7-0.5,2.6C42.9,55.5,43.3,56.9,44.2,58z M45.4,53.9   c0-1.2,0.5-2.3,1.2-3.1c0.1-0.1,0.2-0.2,0.3-0.3c0.1-0.1,0.2-0.2,0.4-0.3c0.1-0.1,0.2-0.1,0.3-0.2c0.2-0.1,0.3-0.2,0.5-0.3   c0.1,0,0.1-0.1,0.2-0.1c0.2-0.1,0.5-0.2,0.7-0.2c0.1,0,0.1,0,0.2,0c0.3,0,0.5-0.1,0.8-0.1s0.6,0,0.8,0.1c0.1,0,0.1,0,0.2,0   c0.2,0.1,0.5,0.1,0.7,0.2c0.1,0,0.1,0.1,0.2,0.1c0.2,0.1,0.3,0.2,0.5,0.3c0.1,0.1,0.2,0.1,0.3,0.2c0.1,0.1,0.3,0.2,0.4,0.3   c0.1,0.1,0.2,0.2,0.3,0.3c0.8,0.8,1.2,1.9,1.2,3.1c0,1.8-1,3.3-2.5,4.1c-0.7,0-1.3,0-2,0s-1.3,0-2,0C46.5,57.2,45.4,55.7,45.4,53.9   z M56.6,51.3h13.1c2.7,0,4.9,2.2,4.9,4.9v2.8c-6.2-0.5-12.5-0.8-18.8-0.9c0.8-1.2,1.3-2.6,1.3-4.1C57.1,53,57,52.1,56.6,51.3z    M81.4,86H18.6v-3.8C29,81,39.5,80.4,50,80.4c10.5,0,21,0.6,31.4,1.7V86z M87.4,69.6L86.1,80c-12-1.5-24.1-2.2-36.1-2.2   c-12,0-24.2,0.7-36.1,2.2l-1.3-10.4c-0.3-2.1,0.2-4.1,1.4-5.5c0.6-0.8,1.6-1.7,3.2-1.8C28,61.1,39.1,60.6,50,60.6   c10.9,0,22,0.6,32.9,1.7c1.6,0.2,2.6,1.1,3.2,1.8C87.2,65.6,87.7,67.6,87.4,69.6z"></path></g></svg>