<svg id="Layer_1" data-name="Layer 1" xmlns="http://www.w3.org/2000/svg" xmlns:xlink="http://www.w3.org/1999/xlink" viewBox="0 0 217.37 51.24"><defs><style>.cls-1{fill:none;}.cls-2{clip-path:url(#clip-path);}.cls-3{fill:#ffeb08;}</style><clipPath id="clip-path" transform="translate(0 0)"><rect class="cls-1" width="217.37" height="51.24"/></clipPath></defs><title>Wakeuplogo</title><g class="cls-2"><path class="cls-3" d="M0,0H10.3l5,25a23.2,23.2,0,0,1,.5,4.2H16a22.12,22.12,0,0,1,.67-4.2L22.79,0h7.9l6,25a22.12,22.12,0,0,1,.67,4.2h0.11A23.2,23.2,0,0,1,38,25L43.46,0H53.59L43.46,40H32.54l-5-20.22a34.11,34.11,0,0,1-.78-4.7H26.6a34,34,0,0,1-.78,4.7L20.77,40h-11Z" transform="translate(0 0)"/><path class="cls-3" d="M66.28,22.06h0.84v-0.5c0-2.41-2-3.19-4.09-3.19a15.11,15.11,0,0,0-8,2.74l-3.36-6.83a22.22,22.22,0,0,1,12.21-3.75c8,0,12.88,4.42,12.88,11.76V40H68V38.3a15.26,15.26,0,0,1,.11-1.79H68a10.58,10.58,0,0,1-8.57,4.2c-5.54,0-9.41-3.81-9.41-8.79,0-7.73,9.18-9.86,16.3-9.86m-4,11.42a5.27,5.27,0,0,0,4.93-5.1V27.61h-0.9c-3,0-6.78.78-6.78,3.42a2.46,2.46,0,0,0,2.74,2.46" transform="translate(0 0)"/></g><polygon class="cls-3" points="79.17 0 88.85 0 88.85 20.72 91.6 20.72 97.31 11.2 107.84 11.2 99.38 24.3 99.38 24.42 109.01 40.04 97.98 40.04 91.88 28.84 88.85 28.84 88.85 40.04 79.17 40.04 79.17 0"/><g class="cls-2"><path class="cls-3" d="M150.32,0h9.8V25.31c0,4.2,2.74,6.44,6.94,6.44S174,29.51,174,25.31V0h9.8V25.31c0,9-6.61,15.4-16.69,15.4s-16.8-6.38-16.8-15.4V0Z" transform="translate(0 0)"/><path class="cls-3" d="M186.91,11.2h8.74v1.46a17.06,17.06,0,0,1-.11,1.85h0.11a10.73,10.73,0,0,1,8.74-4c7.84,0,13,6.16,13,15.12,0,9.13-5.77,15.06-13.44,15.06A11.15,11.15,0,0,1,196.6,38h-0.11s0.11,1,.11,2.46V51.24h-9.69v-40ZM202,32.7c3,0,5.66-2.46,5.66-6.89s-2.3-7.11-5.66-7.11c-2.91,0-5.66,2.13-5.66,7.11,0,3.47,1.85,6.89,5.66,6.89" transform="translate(0 0)"/><path class="cls-3" d="M150.64,1.35c0,17.72-12.07,32.43-27.34,32.43-3.82-.17-7.23-1.67-7.91-5.43h18.2c0.11-1,.22-2.44.22-3.45,0-8-4.82-14.16-13.33-14.16-9.3,0-14.81,6.5-14.81,15,0,7.65,5,15,16,15l1.42,0.09a32.36,32.36,0,0,0,23.87-10.29c6.68-7.28,10.71-18.27,10.71-29.17h-7ZM120.26,19c2.46,0,4,1.31,4,4.31h-8.62c0.5-3,1.85-4.31,4.65-4.31" transform="translate(0 0)"/></g></svg>